<ttFont>
    <TTGlyph name="A" xMin="20" yMin="-7" xMax="591" yMax="687">
      <contour>
        <pt x="429" y="166" on="1"/>
        <pt x="369" y="165" on="1"/>
        <pt x="232" y="165" on="1"/>
        <pt x="174" y="166" on="1"/>
        <pt x="121" y="-1" on="1"/>
        <pt x="104" y="-5" on="0"/>
        <pt x="48" y="-5" on="0"/>
        <pt x="23" y="2" on="1"/>
        <pt x="20" y="7" on="1"/>
        <pt x="246" y="683" on="1"/>
        <pt x="267" y="687" on="0"/>
        <pt x="347" y="687" on="0"/>
        <pt x="367" y="683" on="1"/>
        <pt x="591" y="7" on="1"/>
        <pt x="570" y="-7" on="0"/>
        <pt x="504" y="-7" on="0"/>
        <pt x="476" y="17" on="0"/>
        <pt x="466" y="49" on="1"/>
      </contour>
      <contour>
        <pt x="201" y="252" on="1"/>
        <pt x="252" y="253" on="1"/>
        <pt x="352" y="253" on="1"/>
        <pt x="393" y="252" on="0"/>
        <pt x="402" y="252" on="1"/>
        <pt x="356" y="397" on="1"/>
        <pt x="321" y="509" on="0"/>
        <pt x="303" y="578" on="1"/>
        <pt x="298" y="578" on="1"/>
        <pt x="286" y="523" on="0"/>
        <pt x="259" y="433" on="1"/>
      </contour>
    </TTGlyph>
    <TTGlyph name="AE" xMin="15" yMin="-5" xMax="829" yMax="683">
      <contour>
        <pt x="401" y="166" on="1"/>
        <pt x="346" y="165" on="1"/>
        <pt x="257" y="165" on="1"/>
        <pt x="204" y="166" on="1"/>
        <pt x="123" y="-1" on="1"/>
        <pt x="103" y="-5" on="0"/>
        <pt x="44" y="-5" on="0"/>
        <pt x="19" y="2" on="1"/>
        <pt x="15" y="8" on="1"/>
        <pt x="343" y="673" on="1"/>
        <pt x="364" y="683" on="0"/>
        <pt x="407" y="683" on="1"/>
        <pt x="809" y="683" on="1"/>
        <pt x="813" y="662" on="0"/>
        <pt x="813" y="617" on="0"/>
        <pt x="804" y="593" on="1"/>
        <pt x="654" y="593" on="0"/>
        <pt x="503" y="593" on="1"/>
        <pt x="504" y="528" on="1"/>
        <pt x="504" y="388" on="1"/>
        <pt x="566" y="389" on="1"/>
        <pt x="755" y="389" on="1"/>
        <pt x="760" y="371" on="0"/>
        <pt x="760" y="318" on="0"/>
        <pt x="755" y="301" on="1"/>
        <pt x="566" y="301" on="1"/>
        <pt x="527" y="301" on="0"/>
        <pt x="504" y="302" on="1"/>
        <pt x="504" y="139" on="1"/>
        <pt x="504" y="130" on="0"/>
        <pt x="503" y="97" on="0"/>
        <pt x="503" y="87" on="1"/>
        <pt x="532" y="90" on="0"/>
        <pt x="569" y="90" on="1"/>
        <pt x="829" y="90" on="1"/>
        <pt x="829" y="63" on="0"/>
        <pt x="826" y="49" on="1"/>
        <pt x="819" y="-1" on="0"/>
        <pt x="758" y="-1" on="1"/>
        <pt x="461" y="-1" on="1"/>
        <pt x="433" y="-1" on="0"/>
        <pt x="401" y="34" on="0"/>
        <pt x="401" y="65" on="1"/>
      </contour>
      <contour>
        <pt x="347" y="253" on="1"/>
        <pt x="401" y="252" on="1"/>
        <pt x="401" y="578" on="1"/>
        <pt x="396" y="578" on="1"/>
        <pt x="362" y="494" on="0"/>
        <pt x="333" y="433" on="1"/>
        <pt x="245" y="252" on="1"/>
        <pt x="286" y="253" on="1"/>
      </contour>
    </TTGlyph>
    <TTGlyph name="Aacute" xMin="20" yMin="-7" xMax="591" yMax="902">
      <component glyphName="A" x="0" y="0" flags="0x204"/>
      <component glyphName="acute.cap" x="109" y="0" flags="0x4"/>
    </TTGlyph>
    <TTGlyph name="Acircumflex" xMin="20" yMin="-7" xMax="591" yMax="897">
      <component glyphName="A" x="0" y="0" flags="0x204"/>
      <component glyphName="circumflex.cap" x="108" y="0" flags="0x4"/>
    </TTGlyph>
    <TTGlyph name="Adieresis" xMin="20" yMin="-7" xMax="591" yMax="842">
      <component glyphName="A" x="0" y="0" flags="0x204"/>
      <component glyphName="dieresis.cap" x="108" y="0" flags="0x4"/>
    </TTGlyph>
    <TTGlyph name="Agrave" xMin="20" yMin="-7" xMax="591" yMax="902">
      <component glyphName="A" x="0" y="0" flags="0x204"/>
      <component glyphName="grave.cap" x="108" y="0" flags="0x4"/>
    </TTGlyph>
    <TTGlyph name="Aogonek" xMin="20" yMin="-217" xMax="634" yMax="687">
      <contour>
        <pt x="232" y="165" on="1"/>
        <pt x="174" y="165" on="1"/>
        <pt x="121" y="-1" on="1"/>
        <pt x="113" y="-3" on="0"/>
        <pt x="91" y="-5" on="0"/>
        <pt x="79" y="-5" on="1"/>
        <pt x="65" y="-5" on="0"/>
        <pt x="37" y="-2" on="0"/>
        <pt x="23" y="2" on="1"/>
        <pt x="20" y="7" on="1"/>
        <pt x="246" y="683" on="1"/>
        <pt x="265" y="687" on="0"/>
        <pt x="307" y="687" on="1"/>
        <pt x="350" y="687" on="0"/>
        <pt x="367" y="683" on="1"/>
        <pt x="591" y="7" on="1"/>
        <pt x="503" y="-48" on="0"/>
        <pt x="503" y="-103" on="1"/>
        <pt x="503" y="-124" on="0"/>
        <pt x="530" y="-149" on="0"/>
        <pt x="553" y="-149" on="1"/>
        <pt x="579" y="-149" on="0"/>
        <pt x="610" y="-132" on="1"/>
        <pt x="632" y="-148" on="0"/>
        <pt x="634" y="-182" on="1"/>
        <pt x="593" y="-217" on="0"/>
        <pt x="537" y="-217" on="1"/>
        <pt x="480" y="-217" on="0"/>
        <pt x="420" y="-167" on="0"/>
        <pt x="420" y="-124" on="1"/>
        <pt x="420" y="-59" on="0"/>
        <pt x="492" y="3" on="1"/>
        <pt x="477" y="14" on="0"/>
        <pt x="466" y="49" on="1"/>
        <pt x="429" y="166" on="1"/>
        <pt x="369" y="165" on="1"/>
      </contour>
      <contour>
        <pt x="201" y="252" on="1"/>
        <pt x="352" y="253" on="1"/>
        <pt x="372" y="252" on="0"/>
        <pt x="402" y="252" on="1"/>
        <pt x="356" y="397" on="1"/>
        <pt x="338" y="454" on="0"/>
        <pt x="312" y="543" on="0"/>
        <pt x="303" y="578" on="1"/>
        <pt x="298" y="578" on="1"/>
        <pt x="291" y="550" on="0"/>
        <pt x="273" y="478" on="0"/>
        <pt x="259" y="433" on="1"/>
      </contour>
    </TTGlyph>
    <TTGlyph name="Aring" xMin="20" yMin="-7" xMax="591" yMax="894">
      <contour>
        <pt x="429" y="166" on="1"/>
        <pt x="232" y="165" on="1"/>
        <pt x="174" y="166" on="1"/>
        <pt x="121" y="-1" on="1"/>
        <pt x="113" y="-3" on="0"/>
        <pt x="91" y="-5" on="0"/>
        <pt x="79" y="-5" on="1"/>
        <pt x="65" y="-5" on="0"/>
        <pt x="37" y="-2" on="0"/>
        <pt x="23" y="2" on="1"/>
        <pt x="20" y="7" on="1"/>
        <pt x="245" y="681" on="1"/>
        <pt x="186" y="713" on="0"/>
        <pt x="186" y="781" on="1"/>
        <pt x="186" y="804" on="0"/>
        <pt x="204" y="845" on="0"/>
        <pt x="236" y="876" on="0"/>
        <pt x="280" y="894" on="0"/>
        <pt x="306" y="894" on="1"/>
        <pt x="360" y="894" on="0"/>
        <pt x="428" y="829" on="0"/>
        <pt x="428" y="781" on="1"/>
        <pt x="428" y="712" on="0"/>
        <pt x="367" y="681" on="1"/>
        <pt x="591" y="7" on="1"/>
        <pt x="569" y="-7" on="0"/>
        <pt x="537" y="-7" on="1"/>
        <pt x="504" y="-7" on="0"/>
        <pt x="476" y="17" on="0"/>
        <pt x="466" y="49" on="1"/>
      </contour>
      <contour>
        <pt x="201" y="252" on="1"/>
        <pt x="352" y="253" on="1"/>
        <pt x="402" y="252" on="1"/>
        <pt x="356" y="397" on="1"/>
        <pt x="338" y="454" on="0"/>
        <pt x="312" y="543" on="0"/>
        <pt x="303" y="578" on="1"/>
        <pt x="298" y="578" on="1"/>
        <pt x="286" y="524" on="0"/>
        <pt x="259" y="433" on="1"/>
      </contour>
      <contour>
        <pt x="307" y="835" on="1"/>
        <pt x="285" y="835" on="0"/>
        <pt x="256" y="804" on="0"/>
        <pt x="256" y="780" on="1"/>
        <pt x="256" y="754" on="0"/>
        <pt x="288" y="726" on="0"/>
        <pt x="311" y="726" on="1"/>
        <pt x="334" y="726" on="0"/>
        <pt x="356" y="760" on="0"/>
        <pt x="356" y="780" on="1"/>
        <pt x="356" y="801" on="0"/>
        <pt x="334" y="835" on="0"/>
      </contour>
    </TTGlyph>
    <TTGlyph name="Atilde" xMin="20" yMin="-7" xMax="591" yMax="877">
      <component glyphName="A" x="0" y="0" flags="0x204"/>
      <component glyphName="tilde.cap" x="108" y="0" flags="0x4"/>
    </TTGlyph>
    <TTGlyph name="B" xMin="91" yMin="-4" xMax="556" yMax="687">
      <contour>
        <pt x="318" y="-4" on="1"/>
        <pt x="97" y="-2" on="1"/>
        <pt x="91" y="6" on="1"/>
        <pt x="91" y="677" on="1"/>
        <pt x="97" y="684" on="1"/>
        <pt x="305" y="687" on="1"/>
        <pt x="414" y="687" on="0"/>
        <pt x="523" y="593" on="0"/>
        <pt x="523" y="506" on="1"/>
        <pt x="523" y="458" on="0"/>
        <pt x="471" y="383" on="0"/>
        <pt x="429" y="366" on="1"/>
        <pt x="454" y="358" on="0"/>
        <pt x="501" y="324" on="0"/>
        <pt x="535" y="278" on="0"/>
        <pt x="556" y="222" on="0"/>
        <pt x="556" y="191" on="1"/>
        <pt x="556" y="103" on="0"/>
        <pt x="438" y="-4" on="0"/>
      </contour>
      <contour>
        <pt x="196" y="76" on="1"/>
        <pt x="317" y="77" on="1"/>
        <pt x="354" y="77" on="0"/>
        <pt x="404" y="97" on="0"/>
        <pt x="434" y="130" on="0"/>
        <pt x="447" y="173" on="0"/>
        <pt x="447" y="198" on="1"/>
        <pt x="447" y="220" on="0"/>
        <pt x="432" y="263" on="0"/>
        <pt x="399" y="297" on="0"/>
        <pt x="347" y="318" on="0"/>
        <pt x="311" y="318" on="1"/>
        <pt x="196" y="318" on="1"/>
      </contour>
      <contour>
        <pt x="196" y="607" on="1"/>
        <pt x="196" y="400" on="1"/>
        <pt x="301" y="400" on="1"/>
        <pt x="333" y="400" on="0"/>
        <pt x="377" y="416" on="0"/>
        <pt x="404" y="444" on="0"/>
        <pt x="416" y="482" on="0"/>
        <pt x="416" y="503" on="1"/>
        <pt x="416" y="606" on="0"/>
        <pt x="303" y="606" on="1"/>
        <pt x="265" y="606" on="0"/>
        <pt x="212" y="606" on="0"/>
      </contour>
    </TTGlyph>
    <TTGlyph name="C" xMin="49" yMin="-13" xMax="564" yMax="696">
      <contour>
        <pt x="460" y="447" on="1"/>
        <pt x="460" y="479" on="0"/>
        <pt x="445" y="538" on="0"/>
        <pt x="411" y="583" on="0"/>
        <pt x="357" y="610" on="0"/>
        <pt x="318" y="610" on="1"/>
        <pt x="241" y="610" on="0"/>
        <pt x="161" y="472" on="0"/>
        <pt x="161" y="343" on="1"/>
        <pt x="161" y="215" on="0"/>
        <pt x="247" y="80" on="0"/>
        <pt x="331" y="80" on="1"/>
        <pt x="415" y="80" on="0"/>
        <pt x="506" y="156" on="1"/>
        <pt x="547" y="129" on="0"/>
        <pt x="559" y="87" on="1"/>
        <pt x="537" y="65" on="0"/>
        <pt x="480" y="29" on="0"/>
        <pt x="417" y="2" on="0"/>
        <pt x="350" y="-13" on="0"/>
        <pt x="318" y="-13" on="1"/>
        <pt x="241" y="-13" on="0"/>
        <pt x="137" y="46" on="0"/>
        <pt x="78" y="143" on="0"/>
        <pt x="49" y="270" on="0"/>
        <pt x="49" y="338" on="1"/>
        <pt x="49" y="428" on="0"/>
        <pt x="91" y="562" on="0"/>
        <pt x="164" y="651" on="0"/>
        <pt x="262" y="696" on="0"/>
        <pt x="317" y="696" on="1"/>
        <pt x="374" y="696" on="0"/>
        <pt x="465" y="664" on="0"/>
        <pt x="530" y="610" on="0"/>
        <pt x="564" y="540" on="0"/>
        <pt x="564" y="501" on="1"/>
        <pt x="564" y="441" on="0"/>
        <pt x="504" y="441" on="1"/>
        <pt x="485" y="441" on="0"/>
      </contour>
    </TTGlyph>
    <TTGlyph name="Cacute" xMin="49" yMin="-13" xMax="564" yMax="902">
      <component glyphName="C" x="0" y="0" flags="0x204"/>
      <component glyphName="acute.cap" x="123" y="0" flags="0x4"/>
    </TTGlyph>
    <TTGlyph name="Ccaron" xMin="49" yMin="-13" xMax="564" yMax="900">
      <component glyphName="C" x="0" y="0" flags="0x204"/>
      <component glyphName="caron.cap" x="123" y="0" flags="0x4"/>
    </TTGlyph>
    <TTGlyph name="Ccedilla" xMin="49" yMin="-223" xMax="564" yMax="696">
      <contour>
        <pt x="262" y="-74" on="1"/>
        <pt x="272" y="-40" on="0"/>
        <pt x="283" y="-11" on="1"/>
        <pt x="220" y="-6" on="0"/>
        <pt x="131" y="56" on="0"/>
        <pt x="75" y="152" on="0"/>
        <pt x="49" y="273" on="0"/>
        <pt x="49" y="338" on="1"/>
        <pt x="49" y="428" on="0"/>
        <pt x="91" y="562" on="0"/>
        <pt x="164" y="651" on="0"/>
        <pt x="262" y="696" on="0"/>
        <pt x="317" y="696" on="1"/>
        <pt x="374" y="696" on="0"/>
        <pt x="465" y="664" on="0"/>
        <pt x="530" y="610" on="0"/>
        <pt x="564" y="540" on="0"/>
        <pt x="564" y="501" on="1"/>
        <pt x="564" y="441" on="0"/>
        <pt x="504" y="441" on="1"/>
        <pt x="501" y="441" on="0"/>
        <pt x="487" y="441" on="0"/>
        <pt x="472" y="444" on="0"/>
        <pt x="460" y="448" on="0"/>
        <pt x="460" y="453" on="1"/>
        <pt x="460" y="484" on="0"/>
        <pt x="444" y="541" on="0"/>
        <pt x="412" y="585" on="0"/>
        <pt x="356" y="610" on="0"/>
        <pt x="318" y="610" on="1"/>
        <pt x="241" y="610" on="0"/>
        <pt x="161" y="472" on="0"/>
        <pt x="161" y="343" on="1"/>
        <pt x="161" y="215" on="0"/>
        <pt x="247" y="80" on="0"/>
        <pt x="331" y="80" on="1"/>
        <pt x="415" y="80" on="0"/>
        <pt x="506" y="156" on="1"/>
        <pt x="547" y="129" on="0"/>
        <pt x="559" y="87" on="1"/>
        <pt x="476" y="4" on="0"/>
        <pt x="347" y="-11" on="1"/>
        <pt x="337" y="-30" on="0"/>
        <pt x="336" y="-37" on="1"/>
        <pt x="378" y="-39" on="0"/>
        <pt x="429" y="-87" on="0"/>
        <pt x="429" y="-127" on="1"/>
        <pt x="429" y="-148" on="0"/>
        <pt x="410" y="-183" on="0"/>
        <pt x="378" y="-208" on="0"/>
        <pt x="335" y="-223" on="0"/>
        <pt x="311" y="-223" on="1"/>
        <pt x="262" y="-223" on="0"/>
        <pt x="230" y="-203" on="1"/>
        <pt x="231" y="-177" on="0"/>
        <pt x="251" y="-151" on="1"/>
        <pt x="273" y="-165" on="0"/>
        <pt x="297" y="-165" on="1"/>
        <pt x="323" y="-165" on="0"/>
        <pt x="346" y="-143" on="0"/>
        <pt x="346" y="-126" on="1"/>
        <pt x="346" y="-106" on="0"/>
        <pt x="318" y="-87" on="0"/>
        <pt x="302" y="-87" on="1"/>
        <pt x="290" y="-87" on="0"/>
        <pt x="280" y="-92" on="1"/>
        <pt x="268" y="-88" on="0"/>
      </contour>
    </TTGlyph>
    <TTGlyph name="D" xMin="91" yMin="-5" xMax="597" yMax="687">
      <contour>
        <pt x="491" y="46" on="1"/>
        <pt x="476" y="34" on="0"/>
        <pt x="435" y="15" on="0"/>
        <pt x="387" y="2" on="0"/>
        <pt x="338" y="-5" on="0"/>
        <pt x="316" y="-5" on="1"/>
        <pt x="293" y="-5" on="0"/>
        <pt x="185" y="-3" on="0"/>
        <pt x="97" y="-1" on="1"/>
        <pt x="91" y="6" on="1"/>
        <pt x="91" y="677" on="1"/>
        <pt x="97" y="684" on="1"/>
        <pt x="184" y="687" on="0"/>
        <pt x="317" y="687" on="1"/>
        <pt x="398" y="687" on="0"/>
        <pt x="506" y="633" on="0"/>
        <pt x="571" y="539" on="0"/>
        <pt x="597" y="412" on="0"/>
        <pt x="597" y="340" on="1"/>
        <pt x="597" y="240" on="0"/>
        <pt x="554" y="97" on="0"/>
      </contour>
      <contour>
        <pt x="317" y="601" on="1"/>
        <pt x="197" y="601" on="1"/>
        <pt x="197" y="81" on="1"/>
        <pt x="317" y="81" on="1"/>
        <pt x="487" y="81" on="0"/>
        <pt x="487" y="341" on="1"/>
        <pt x="487" y="477" on="0"/>
        <pt x="402" y="601" on="0"/>
      </contour>
    </TTGlyph>
    <TTGlyph name="Dcaron" xMin="91" yMin="-5" xMax="597" yMax="900">
      <component glyphName="D" x="0" y="0" flags="0x204"/>
      <component glyphName="caron.cap" x="110" y="0" flags="0x4"/>
    </TTGlyph>
    <TTGlyph name="E" xMin="90" yMin="-1" xMax="519" yMax="683">
      <contour>
        <pt x="195" y="138" on="1"/>
        <pt x="194" y="87" on="1"/>
        <pt x="224" y="90" on="0"/>
        <pt x="260" y="90" on="1"/>
        <pt x="519" y="90" on="1"/>
        <pt x="519" y="63" on="0"/>
        <pt x="516" y="49" on="1"/>
        <pt x="507" y="-1" on="0"/>
        <pt x="448" y="-1" on="1"/>
        <pt x="151" y="-1" on="1"/>
        <pt x="123" y="-1" on="0"/>
        <pt x="90" y="34" on="0"/>
        <pt x="90" y="65" on="1"/>
        <pt x="90" y="677" on="1"/>
        <pt x="97" y="683" on="1"/>
        <pt x="499" y="683" on="1"/>
        <pt x="502" y="667" on="0"/>
        <pt x="502" y="614" on="0"/>
        <pt x="494" y="593" on="1"/>
        <pt x="194" y="593" on="1"/>
        <pt x="195" y="528" on="1"/>
        <pt x="195" y="388" on="1"/>
        <pt x="257" y="389" on="1"/>
        <pt x="445" y="389" on="1"/>
        <pt x="450" y="371" on="0"/>
        <pt x="450" y="318" on="0"/>
        <pt x="445" y="301" on="1"/>
        <pt x="257" y="301" on="1"/>
        <pt x="218" y="301" on="0"/>
        <pt x="195" y="302" on="1"/>
      </contour>
    </TTGlyph>
    <TTGlyph name="Eacute" xMin="90" yMin="-1" xMax="519" yMax="902">
      <component glyphName="E" x="0" y="0" flags="0x204"/>
      <component glyphName="acute.cap" x="100" y="0" flags="0x4"/>
    </TTGlyph>
    <TTGlyph name="Ecaron" xMin="90" yMin="-1" xMax="519" yMax="900">
      <component glyphName="E" x="0" y="0" flags="0x204"/>
      <component glyphName="caron.cap" x="100" y="0" flags="0x4"/>
    </TTGlyph>
    <TTGlyph name="Ecircumflex" xMin="90" yMin="-1" xMax="519" yMax="897">
      <component glyphName="E" x="0" y="0" flags="0x204"/>
      <component glyphName="circumflex.cap" x="100" y="0" flags="0x4"/>
    </TTGlyph>
    <TTGlyph name="Edieresis" xMin="90" yMin="-1" xMax="519" yMax="842">
      <component glyphName="E" x="0" y="0" flags="0x204"/>
      <component glyphName="dieresis.cap" x="100" y="0" flags="0x4"/>
    </TTGlyph>
    <TTGlyph name="Egrave" xMin="90" yMin="-1" xMax="519" yMax="902">
      <component glyphName="E" x="0" y="0" flags="0x204"/>
      <component glyphName="grave.cap" x="100" y="0" flags="0x4"/>
    </TTGlyph>
    <TTGlyph name="Eogonek" xMin="90" yMin="-217" xMax="519" yMax="683">
      <contour>
        <pt x="195" y="138" on="1"/>
        <pt x="194" y="87" on="1"/>
        <pt x="224" y="90" on="0"/>
        <pt x="260" y="90" on="1"/>
        <pt x="519" y="90" on="1"/>
        <pt x="519" y="52" on="0"/>
        <pt x="503" y="13" on="0"/>
        <pt x="479" y="3" on="1"/>
        <pt x="437" y="-14" on="0"/>
        <pt x="387" y="-73" on="0"/>
        <pt x="387" y="-99" on="1"/>
        <pt x="387" y="-148" on="0"/>
        <pt x="435" y="-148" on="1"/>
        <pt x="463" y="-148" on="0"/>
        <pt x="494" y="-132" on="1"/>
        <pt x="517" y="-152" on="0"/>
        <pt x="517" y="-182" on="1"/>
        <pt x="476" y="-217" on="0"/>
        <pt x="420" y="-217" on="1"/>
        <pt x="363" y="-217" on="0"/>
        <pt x="304" y="-168" on="0"/>
        <pt x="304" y="-123" on="1"/>
        <pt x="304" y="-54" on="0"/>
        <pt x="375" y="-1" on="1"/>
        <pt x="151" y="-1" on="1"/>
        <pt x="123" y="-1" on="0"/>
        <pt x="90" y="34" on="0"/>
        <pt x="90" y="65" on="1"/>
        <pt x="90" y="677" on="1"/>
        <pt x="97" y="683" on="1"/>
        <pt x="499" y="683" on="1"/>
        <pt x="502" y="668" on="0"/>
        <pt x="502" y="646" on="1"/>
        <pt x="502" y="632" on="0"/>
        <pt x="499" y="604" on="0"/>
        <pt x="494" y="593" on="1"/>
        <pt x="194" y="593" on="1"/>
        <pt x="194" y="388" on="1"/>
        <pt x="249" y="389" on="1"/>
        <pt x="445" y="389" on="1"/>
        <pt x="450" y="369" on="0"/>
        <pt x="450" y="344" on="1"/>
        <pt x="450" y="319" on="0"/>
        <pt x="445" y="301" on="1"/>
        <pt x="257" y="301" on="1"/>
        <pt x="237" y="301" on="0"/>
        <pt x="206" y="301" on="0"/>
        <pt x="195" y="302" on="1"/>
      </contour>
    </TTGlyph>
    <TTGlyph name="Eth" xMin="25" yMin="-5" xMax="613" yMax="687">
      <contour>
        <pt x="507" y="46" on="1"/>
        <pt x="492" y="34" on="0"/>
        <pt x="450" y="15" on="0"/>
        <pt x="403" y="2" on="0"/>
        <pt x="354" y="-5" on="0"/>
        <pt x="332" y="-5" on="1"/>
        <pt x="309" y="-5" on="0"/>
        <pt x="201" y="-3" on="0"/>
        <pt x="113" y="-1" on="1"/>
        <pt x="106" y="6" on="1"/>
        <pt x="106" y="302" on="1"/>
        <pt x="29" y="302" on="1"/>
        <pt x="27" y="310" on="0"/>
        <pt x="25" y="333" on="0"/>
        <pt x="25" y="345" on="1"/>
        <pt x="25" y="357" on="0"/>
        <pt x="27" y="380" on="0"/>
        <pt x="29" y="390" on="1"/>
        <pt x="106" y="390" on="1"/>
        <pt x="106" y="677" on="1"/>
        <pt x="113" y="684" on="1"/>
        <pt x="200" y="687" on="0"/>
        <pt x="333" y="687" on="1"/>
        <pt x="414" y="687" on="0"/>
        <pt x="522" y="633" on="0"/>
        <pt x="586" y="539" on="0"/>
        <pt x="613" y="413" on="0"/>
        <pt x="613" y="341" on="1"/>
        <pt x="613" y="241" on="0"/>
        <pt x="569" y="97" on="0"/>
      </contour>
      <contour>
        <pt x="333" y="601" on="1"/>
        <pt x="211" y="601" on="1"/>
        <pt x="211" y="390" on="1"/>
        <pt x="365" y="390" on="1"/>
        <pt x="367" y="378" on="0"/>
        <pt x="370" y="356" on="0"/>
        <pt x="370" y="345" on="1"/>
        <pt x="370" y="325" on="0"/>
        <pt x="365" y="302" on="1"/>
        <pt x="211" y="302" on="1"/>
        <pt x="211" y="81" on="1"/>
        <pt x="333" y="81" on="1"/>
        <pt x="382" y="81" on="0"/>
        <pt x="447" y="119" on="0"/>
        <pt x="486" y="188" on="0"/>
        <pt x="502" y="284" on="0"/>
        <pt x="502" y="342" on="1"/>
        <pt x="502" y="467" on="0"/>
        <pt x="426" y="601" on="0"/>
      </contour>
    </TTGlyph>
    <TTGlyph name="Euro" xMin="21" yMin="-13" xMax="544" yMax="661">
      <contour>
        <pt x="496" y="515" on="1"/>
        <pt x="420" y="573" on="0"/>
        <pt x="345" y="573" on="1"/>
        <pt x="235" y="573" on="0"/>
        <pt x="209" y="433" on="1"/>
        <pt x="415" y="433" on="1"/>
        <pt x="419" y="414" on="0"/>
        <pt x="419" y="379" on="0"/>
        <pt x="415" y="362" on="1"/>
        <pt x="201" y="362" on="1"/>
        <pt x="201" y="323" on="1"/>
        <pt x="201" y="296" on="0"/>
        <pt x="202" y="283" on="1"/>
        <pt x="415" y="283" on="1"/>
        <pt x="419" y="264" on="0"/>
        <pt x="419" y="229" on="0"/>
        <pt x="415" y="212" on="1"/>
        <pt x="210" y="212" on="1"/>
        <pt x="236" y="75" on="0"/>
        <pt x="345" y="75" on="1"/>
        <pt x="420" y="75" on="0"/>
        <pt x="496" y="133" on="1"/>
        <pt x="533" y="110" on="0"/>
        <pt x="544" y="68" on="1"/>
        <pt x="447" y="-13" on="0"/>
        <pt x="331" y="-13" on="1"/>
        <pt x="141" y="-13" on="0"/>
        <pt x="104" y="212" on="1"/>
        <pt x="25" y="212" on="1"/>
        <pt x="21" y="229" on="0"/>
        <pt x="21" y="264" on="0"/>
        <pt x="25" y="283" on="1"/>
        <pt x="97" y="283" on="1"/>
        <pt x="96" y="296" on="0"/>
        <pt x="96" y="349" on="0"/>
        <pt x="97" y="362" on="1"/>
        <pt x="25" y="362" on="1"/>
        <pt x="21" y="379" on="0"/>
        <pt x="21" y="414" on="0"/>
        <pt x="25" y="433" on="1"/>
        <pt x="104" y="433" on="1"/>
        <pt x="140" y="661" on="0"/>
        <pt x="331" y="661" on="1"/>
        <pt x="446" y="661" on="0"/>
        <pt x="544" y="580" on="1"/>
        <pt x="539" y="562" on="0"/>
        <pt x="513" y="525" on="0"/>
      </contour>
    </TTGlyph>
    <TTGlyph name="Euro.smcp" xMin="19" yMin="-13" xMax="482" yMax="559">
      <contour>
        <pt x="436" y="434" on="1"/>
        <pt x="371" y="475" on="0"/>
        <pt x="310" y="475" on="1"/>
        <pt x="218" y="475" on="0"/>
        <pt x="195" y="370" on="1"/>
        <pt x="364" y="370" on="1"/>
        <pt x="369" y="354" on="0"/>
        <pt x="369" y="320" on="0"/>
        <pt x="364" y="304" on="1"/>
        <pt x="186" y="304" on="1"/>
        <pt x="186" y="242" on="1"/>
        <pt x="364" y="242" on="1"/>
        <pt x="369" y="226" on="0"/>
        <pt x="369" y="193" on="0"/>
        <pt x="364" y="177" on="1"/>
        <pt x="194" y="177" on="1"/>
        <pt x="218" y="71" on="0"/>
        <pt x="310" y="71" on="1"/>
        <pt x="374" y="71" on="0"/>
        <pt x="436" y="111" on="1"/>
        <pt x="454" y="102" on="0"/>
        <pt x="479" y="68" on="0"/>
        <pt x="482" y="50" on="1"/>
        <pt x="399" y="-13" on="0"/>
        <pt x="297" y="-13" on="1"/>
        <pt x="127" y="-13" on="0"/>
        <pt x="93" y="177" on="1"/>
        <pt x="23" y="177" on="1"/>
        <pt x="19" y="190" on="0"/>
        <pt x="19" y="229" on="0"/>
        <pt x="23" y="242" on="1"/>
        <pt x="86" y="242" on="1"/>
        <pt x="85" y="252" on="0"/>
        <pt x="85" y="293" on="0"/>
        <pt x="86" y="304" on="1"/>
        <pt x="23" y="304" on="1"/>
        <pt x="19" y="317" on="0"/>
        <pt x="19" y="357" on="0"/>
        <pt x="23" y="370" on="1"/>
        <pt x="93" y="370" on="1"/>
        <pt x="127" y="559" on="0"/>
        <pt x="297" y="559" on="1"/>
        <pt x="399" y="559" on="0"/>
        <pt x="482" y="496" on="1"/>
        <pt x="479" y="478" on="0"/>
        <pt x="453" y="443" on="0"/>
      </contour>
    </TTGlyph>
    <TTGlyph name="F" xMin="91" yMin="-4" xMax="499" yMax="683">
      <contour>
        <pt x="196" y="593" on="1"/>
        <pt x="197" y="475" on="1"/>
        <pt x="197" y="387" on="1"/>
        <pt x="212" y="388" on="0"/>
        <pt x="239" y="388" on="1"/>
        <pt x="440" y="388" on="1"/>
        <pt x="445" y="371" on="0"/>
        <pt x="445" y="316" on="0"/>
        <pt x="440" y="299" on="1"/>
        <pt x="197" y="299" on="1"/>
        <pt x="197" y="0" on="1"/>
        <pt x="174" y="-4" on="0"/>
        <pt x="112" y="-4" on="0"/>
        <pt x="91" y="0" on="1"/>
        <pt x="91" y="677" on="1"/>
        <pt x="97" y="683" on="1"/>
        <pt x="493" y="683" on="1"/>
        <pt x="499" y="665" on="0"/>
        <pt x="499" y="641" on="1"/>
        <pt x="499" y="592" on="0"/>
        <pt x="439" y="592" on="1"/>
        <pt x="292" y="592" on="1"/>
        <pt x="224" y="592" on="0"/>
      </contour>
    </TTGlyph>
    <TTGlyph name="G" xMin="49" yMin="-13" xMax="580" yMax="696">
      <contour>
        <pt x="350" y="359" on="1"/>
        <pt x="504" y="360" on="1"/>
        <pt x="580" y="360" on="0"/>
        <pt x="580" y="290" on="1"/>
        <pt x="580" y="30" on="1"/>
        <pt x="468" y="-13" on="0"/>
        <pt x="333" y="-13" on="1"/>
        <pt x="258" y="-13" on="0"/>
        <pt x="145" y="43" on="0"/>
        <pt x="112" y="92" on="1"/>
        <pt x="49" y="189" on="0"/>
        <pt x="49" y="337" on="1"/>
        <pt x="49" y="429" on="0"/>
        <pt x="99" y="571" on="0"/>
        <pt x="142" y="612" on="1"/>
        <pt x="229" y="696" on="0"/>
        <pt x="345" y="696" on="1"/>
        <pt x="481" y="696" on="0"/>
        <pt x="578" y="623" on="1"/>
        <pt x="570" y="573" on="0"/>
        <pt x="527" y="543" on="1"/>
        <pt x="445" y="605" on="0"/>
        <pt x="345" y="605" on="1"/>
        <pt x="262" y="605" on="0"/>
        <pt x="160" y="475" on="0"/>
        <pt x="160" y="336" on="1"/>
        <pt x="160" y="75" on="0"/>
        <pt x="351" y="75" on="1"/>
        <pt x="422" y="75" on="0"/>
        <pt x="478" y="92" on="1"/>
        <pt x="478" y="204" on="1"/>
        <pt x="478" y="248" on="0"/>
        <pt x="480" y="268" on="1"/>
        <pt x="392" y="268" on="1"/>
        <pt x="342" y="268" on="0"/>
        <pt x="342" y="315" on="1"/>
        <pt x="342" y="338" on="0"/>
      </contour>
    </TTGlyph>
    <TTGlyph name="H" xMin="91" yMin="-4" xMax="584" yMax="687">
      <contour>
        <pt x="478" y="397" on="1"/>
        <pt x="477" y="471" on="1"/>
        <pt x="477" y="683" on="1"/>
        <pt x="498" y="687" on="0"/>
        <pt x="563" y="687" on="0"/>
        <pt x="584" y="683" on="1"/>
        <pt x="584" y="0" on="1"/>
        <pt x="561" y="-4" on="0"/>
        <pt x="500" y="-4" on="0"/>
        <pt x="477" y="0" on="1"/>
        <pt x="477" y="234" on="1"/>
        <pt x="478" y="308" on="1"/>
        <pt x="422" y="307" on="1"/>
        <pt x="253" y="307" on="1"/>
        <pt x="196" y="308" on="1"/>
        <pt x="197" y="234" on="1"/>
        <pt x="197" y="0" on="1"/>
        <pt x="176" y="-4" on="0"/>
        <pt x="111" y="-4" on="0"/>
        <pt x="91" y="0" on="1"/>
        <pt x="91" y="683" on="1"/>
        <pt x="111" y="687" on="0"/>
        <pt x="176" y="687" on="0"/>
        <pt x="197" y="683" on="1"/>
        <pt x="197" y="471" on="1"/>
        <pt x="196" y="397" on="1"/>
        <pt x="253" y="398" on="1"/>
        <pt x="422" y="398" on="1"/>
      </contour>
    </TTGlyph>
    <TTGlyph name="Hbar" xMin="19" yMin="-4" xMax="664" yMax="687">
      <contour>
        <pt x="201" y="307" on="1"/>
        <pt x="202" y="233" on="1"/>
        <pt x="202" y="0" on="1"/>
        <pt x="179" y="-4" on="0"/>
        <pt x="116" y="-4" on="0"/>
        <pt x="95" y="0" on="1"/>
        <pt x="95" y="494" on="1"/>
        <pt x="24" y="494" on="1"/>
        <pt x="19" y="516" on="0"/>
        <pt x="19" y="554" on="0"/>
        <pt x="24" y="577" on="1"/>
        <pt x="95" y="577" on="1"/>
        <pt x="95" y="683" on="1"/>
        <pt x="116" y="687" on="0"/>
        <pt x="179" y="687" on="0"/>
        <pt x="202" y="683" on="1"/>
        <pt x="202" y="577" on="1"/>
        <pt x="482" y="577" on="1"/>
        <pt x="482" y="683" on="1"/>
        <pt x="503" y="687" on="0"/>
        <pt x="566" y="687" on="0"/>
        <pt x="589" y="683" on="1"/>
        <pt x="589" y="577" on="1"/>
        <pt x="660" y="577" on="1"/>
        <pt x="664" y="558" on="0"/>
        <pt x="664" y="511" on="0"/>
        <pt x="660" y="494" on="1"/>
        <pt x="589" y="494" on="1"/>
        <pt x="589" y="0" on="1"/>
        <pt x="566" y="-4" on="0"/>
        <pt x="503" y="-4" on="0"/>
        <pt x="482" y="0" on="1"/>
        <pt x="482" y="233" on="1"/>
        <pt x="483" y="307" on="1"/>
        <pt x="426" y="306" on="1"/>
        <pt x="258" y="306" on="1"/>
      </contour>
      <contour>
        <pt x="201" y="396" on="1"/>
        <pt x="258" y="397" on="1"/>
        <pt x="426" y="397" on="1"/>
        <pt x="483" y="396" on="1"/>
        <pt x="482" y="470" on="1"/>
        <pt x="482" y="494" on="1"/>
        <pt x="202" y="494" on="1"/>
        <pt x="202" y="470" on="1"/>
      </contour>
    </TTGlyph>
    <TTGlyph name="I" xMin="94" yMin="-4" xMax="200" yMax="687">
      <contour>
        <pt x="94" y="0" on="1"/>
        <pt x="94" y="683" on="1"/>
        <pt x="114" y="687" on="0"/>
        <pt x="179" y="687" on="0"/>
        <pt x="200" y="683" on="1"/>
        <pt x="200" y="0" on="1"/>
        <pt x="179" y="-4" on="0"/>
        <pt x="114" y="-4" on="0"/>
      </contour>
    </TTGlyph>
    <TTGlyph name="IJ" xMin="94" yMin="-10" xMax="662" yMax="687">
      <component glyphName="I" x="0" y="0" flags="0x4"/>
      <component glyphName="J" x="292" y="0" flags="0x4"/>
    </TTGlyph>
    <TTGlyph name="Iacute" xMin="47" yMin="-4" xMax="296" yMax="902">
      <component glyphName="I" x="0" y="0" flags="0x204"/>
      <component glyphName="acute.cap" x="-51" y="0" flags="0x4"/>
    </TTGlyph>
    <TTGlyph name="Icircumflex" xMin="-13" yMin="-4" xMax="305" yMax="897">
      <component glyphName="I" x="0" y="0" flags="0x204"/>
      <component glyphName="circumflex.cap" x="-51" y="0" flags="0x4"/>
    </TTGlyph>
    <TTGlyph name="Idieresis" xMin="-15" yMin="-4" xMax="311" yMax="842">
      <component glyphName="I" x="0" y="0" flags="0x204"/>
      <component glyphName="dieresis.cap" x="-51" y="0" flags="0x4"/>
    </TTGlyph>
    <TTGlyph name="Igrave" xMin="14" yMin="-4" xMax="263" yMax="902">
      <component glyphName="I" x="0" y="0" flags="0x204"/>
      <component glyphName="grave.cap" x="-50" y="0" flags="0x4"/>
    </TTGlyph>
    <TTGlyph name="Itilde" xMin="-33" yMin="-4" xMax="329" yMax="877">
      <component glyphName="I" x="0" y="0" flags="0x204"/>
      <component glyphName="tilde.cap" x="-51" y="0" flags="0x4"/>
    </TTGlyph>
    <TTGlyph name="J" xMin="10" yMin="-10" xMax="370" yMax="687">
      <contour>
        <pt x="50" y="112" on="1"/>
        <pt x="105" y="79" on="0"/>
        <pt x="217" y="79" on="0"/>
        <pt x="264" y="151" on="0"/>
        <pt x="264" y="234" on="1"/>
        <pt x="264" y="683" on="1"/>
        <pt x="285" y="687" on="0"/>
        <pt x="349" y="687" on="0"/>
        <pt x="370" y="683" on="1"/>
        <pt x="370" y="249" on="1"/>
        <pt x="370" y="188" on="0"/>
        <pt x="354" y="103" on="0"/>
        <pt x="333" y="66" on="1"/>
        <pt x="291" y="-10" on="0"/>
        <pt x="166" y="-10" on="1"/>
        <pt x="78" y="-10" on="0"/>
        <pt x="10" y="32" on="1"/>
        <pt x="18" y="78" on="0"/>
      </contour>
    </TTGlyph>
    <TTGlyph name="Jcircumflex" xMin="10" yMin="-10" xMax="475" yMax="897">
      <component glyphName="J" x="0" y="0" flags="0x204"/>
      <component glyphName="circumflex.cap" x="119" y="0" flags="0x4"/>
    </TTGlyph>
    <TTGlyph name="K" xMin="91" yMin="-6" xMax="580" yMax="687">
      <contour>
        <pt x="580" y="28" on="1"/>
        <pt x="558" y="-6" on="0"/>
        <pt x="508" y="-6" on="1"/>
        <pt x="479" y="-6" on="0"/>
        <pt x="450" y="23" on="0"/>
        <pt x="438" y="58" on="1"/>
        <pt x="384" y="205" on="1"/>
        <pt x="363" y="261" on="0"/>
        <pt x="309" y="307" on="0"/>
        <pt x="228" y="307" on="0"/>
        <pt x="197" y="305" on="1"/>
        <pt x="197" y="0" on="1"/>
        <pt x="176" y="-4" on="0"/>
        <pt x="111" y="-4" on="0"/>
        <pt x="91" y="0" on="1"/>
        <pt x="91" y="683" on="1"/>
        <pt x="111" y="687" on="0"/>
        <pt x="176" y="687" on="0"/>
        <pt x="197" y="683" on="1"/>
        <pt x="197" y="396" on="1"/>
        <pt x="253" y="398" on="1"/>
        <pt x="267" y="398" on="0"/>
        <pt x="282" y="410" on="0"/>
        <pt x="291" y="426" on="1"/>
        <pt x="419" y="643" on="1"/>
        <pt x="433" y="667" on="0"/>
        <pt x="458" y="686" on="0"/>
        <pt x="512" y="686" on="0"/>
        <pt x="544" y="683" on="1"/>
        <pt x="551" y="674" on="1"/>
        <pt x="400" y="418" on="1"/>
        <pt x="381" y="386" on="0"/>
        <pt x="360" y="368" on="1"/>
        <pt x="407" y="359" on="0"/>
        <pt x="460" y="301" on="0"/>
        <pt x="481" y="245" on="1"/>
        <pt x="535" y="100" on="1"/>
        <pt x="555" y="48" on="0"/>
      </contour>
    </TTGlyph>
    <TTGlyph name="Kcommaaccent" xMin="91" yMin="-263" xMax="580" yMax="687">
      <component glyphName="K" x="0" y="0" flags="0x204"/>
      <component glyphName="commaaccent.cap" x="114" y="0" flags="0x4"/>
    </TTGlyph>
    <TTGlyph name="L" xMin="90" yMin="-1" xMax="485" yMax="687">
      <contour>
        <pt x="286" y="92" on="1"/>
        <pt x="485" y="92" on="1"/>
        <pt x="485" y="70" on="0"/>
        <pt x="482" y="50" on="1"/>
        <pt x="473" y="-1" on="0"/>
        <pt x="413" y="-1" on="1"/>
        <pt x="152" y="-1" on="1"/>
        <pt x="124" y="-1" on="0"/>
        <pt x="90" y="34" on="0"/>
        <pt x="90" y="65" on="1"/>
        <pt x="90" y="681" on="1"/>
        <pt x="97" y="687" on="1"/>
        <pt x="137" y="687" on="1"/>
        <pt x="170" y="687" on="0"/>
        <pt x="197" y="655" on="0"/>
        <pt x="197" y="619" on="1"/>
        <pt x="197" y="88" on="1"/>
        <pt x="238" y="92" on="0"/>
      </contour>
    </TTGlyph>
    <TTGlyph name="Ldot" xMin="90" yMin="-1" xMax="485" yMax="687">
      <component glyphName="L" x="0" y="0" flags="0x204"/>
      <component glyphName="dotaccent.alt" x="198" y="0" flags="0x4"/>
    </TTGlyph>
    <TTGlyph name="Lslash" xMin="9" yMin="-1" xMax="491" yMax="687">
      <contour>
        <pt x="203" y="619" on="1"/>
        <pt x="203" y="403" on="1"/>
        <pt x="379" y="463" on="1"/>
        <pt x="387" y="459" on="1"/>
        <pt x="398" y="426" on="0"/>
        <pt x="389" y="378" on="1"/>
        <pt x="203" y="317" on="1"/>
        <pt x="203" y="88" on="1"/>
        <pt x="244" y="92" on="0"/>
        <pt x="292" y="92" on="1"/>
        <pt x="491" y="92" on="1"/>
        <pt x="491" y="63" on="0"/>
        <pt x="488" y="50" on="1"/>
        <pt x="480" y="-1" on="0"/>
        <pt x="419" y="-1" on="1"/>
        <pt x="159" y="-1" on="1"/>
        <pt x="131" y="-1" on="0"/>
        <pt x="97" y="33" on="0"/>
        <pt x="97" y="65" on="1"/>
        <pt x="97" y="285" on="1"/>
        <pt x="28" y="261" on="1"/>
        <pt x="21" y="265" on="1"/>
        <pt x="9" y="303" on="0"/>
        <pt x="19" y="346" on="1"/>
        <pt x="97" y="373" on="1"/>
        <pt x="97" y="681" on="1"/>
        <pt x="103" y="687" on="1"/>
        <pt x="144" y="687" on="1"/>
        <pt x="176" y="687" on="0"/>
        <pt x="203" y="655" on="0"/>
      </contour>
    </TTGlyph>
    <TTGlyph name="M" xMin="74" yMin="-5" xMax="734" yMax="687">
      <contour>
        <pt x="74" y="1" on="1"/>
        <pt x="127" y="683" on="1"/>
        <pt x="151" y="687" on="0"/>
        <pt x="243" y="687" on="0"/>
        <pt x="266" y="683" on="1"/>
        <pt x="361" y="370" on="1"/>
        <pt x="387" y="289" on="0"/>
        <pt x="401" y="211" on="1"/>
        <pt x="407" y="211" on="1"/>
        <pt x="414" y="260" on="0"/>
        <pt x="446" y="370" on="1"/>
        <pt x="541" y="683" on="1"/>
        <pt x="567" y="687" on="0"/>
        <pt x="655" y="687" on="0"/>
        <pt x="681" y="683" on="1"/>
        <pt x="734" y="1" on="1"/>
        <pt x="712" y="-5" on="0"/>
        <pt x="653" y="-5" on="0"/>
        <pt x="632" y="-1" on="1"/>
        <pt x="609" y="365" on="1"/>
        <pt x="603" y="445" on="0"/>
        <pt x="601" y="568" on="1"/>
        <pt x="595" y="568" on="1"/>
        <pt x="458" y="104" on="1"/>
        <pt x="426" y="100" on="0"/>
        <pt x="380" y="100" on="0"/>
        <pt x="350" y="104" on="1"/>
        <pt x="213" y="568" on="1"/>
        <pt x="207" y="568" on="1"/>
        <pt x="202" y="417" on="0"/>
        <pt x="199" y="365" on="1"/>
        <pt x="175" y="-1" on="1"/>
        <pt x="155" y="-5" on="0"/>
        <pt x="95" y="-5" on="0"/>
      </contour>
    </TTGlyph>
    <TTGlyph name="N" xMin="91" yMin="-4" xMax="589" yMax="687">
      <contour>
        <pt x="583" y="687" on="1"/>
        <pt x="589" y="682" on="1"/>
        <pt x="589" y="1" on="1"/>
        <pt x="561" y="-4" on="0"/>
        <pt x="489" y="-4" on="0"/>
        <pt x="461" y="0" on="1"/>
        <pt x="248" y="419" on="1"/>
        <pt x="216" y="486" on="0"/>
        <pt x="185" y="558" on="1"/>
        <pt x="181" y="557" on="1"/>
        <pt x="190" y="402" on="0"/>
        <pt x="190" y="312" on="1"/>
        <pt x="190" y="0" on="1"/>
        <pt x="166" y="-4" on="0"/>
        <pt x="114" y="-4" on="0"/>
        <pt x="91" y="0" on="1"/>
        <pt x="91" y="682" on="1"/>
        <pt x="119" y="687" on="0"/>
        <pt x="190" y="687" on="0"/>
        <pt x="218" y="683" on="1"/>
        <pt x="429" y="264" on="1"/>
        <pt x="443" y="234" on="0"/>
        <pt x="489" y="131" on="0"/>
        <pt x="495" y="119" on="1"/>
        <pt x="499" y="120" on="1"/>
        <pt x="491" y="248" on="0"/>
        <pt x="491" y="372" on="1"/>
        <pt x="491" y="621" on="1"/>
        <pt x="491" y="657" on="0"/>
        <pt x="516" y="687" on="0"/>
        <pt x="548" y="687" on="1"/>
      </contour>
    </TTGlyph>
    <TTGlyph name="Nacute" xMin="91" yMin="-4" xMax="589" yMax="902">
      <component glyphName="N" x="0" y="0" flags="0x204"/>
      <component glyphName="acute.cap" x="144" y="0" flags="0x4"/>
    </TTGlyph>
    <TTGlyph name="Ncaron" xMin="91" yMin="-4" xMax="589" yMax="900">
      <component glyphName="N" x="0" y="0" flags="0x204"/>
      <component glyphName="caron.cap" x="144" y="0" flags="0x4"/>
    </TTGlyph>
    <TTGlyph name="Ntilde" xMin="91" yMin="-4" xMax="589" yMax="877">
      <component glyphName="N" x="0" y="0" flags="0x204"/>
      <component glyphName="tilde.cap" x="144" y="0" flags="0x4"/>
    </TTGlyph>
    <TTGlyph name="O" xMin="49" yMin="-13" xMax="608" yMax="696">
      <contour>
        <pt x="192" y="521" on="1"/>
        <pt x="175" y="479" on="0"/>
        <pt x="161" y="393" on="0"/>
        <pt x="161" y="347" on="1"/>
        <pt x="161" y="296" on="0"/>
        <pt x="175" y="197" on="0"/>
        <pt x="213" y="119" on="0"/>
        <pt x="279" y="72" on="0"/>
        <pt x="330" y="72" on="1"/>
        <pt x="385" y="72" on="0"/>
        <pt x="450" y="127" on="0"/>
        <pt x="485" y="209" on="0"/>
        <pt x="496" y="303" on="0"/>
        <pt x="496" y="342" on="1"/>
        <pt x="496" y="382" on="0"/>
        <pt x="485" y="476" on="0"/>
        <pt x="451" y="557" on="0"/>
        <pt x="384" y="611" on="0"/>
        <pt x="329" y="611" on="1"/>
        <pt x="278" y="611" on="0"/>
        <pt x="209" y="563" on="0"/>
      </contour>
      <contour>
        <pt x="156" y="47" on="1"/>
        <pt x="49" y="139" on="0"/>
        <pt x="49" y="341" on="1"/>
        <pt x="49" y="423" on="0"/>
        <pt x="86" y="554" on="0"/>
        <pt x="157" y="646" on="0"/>
        <pt x="261" y="696" on="0"/>
        <pt x="329" y="696" on="1"/>
        <pt x="396" y="696" on="0"/>
        <pt x="501" y="647" on="0"/>
        <pt x="571" y="555" on="0"/>
        <pt x="608" y="423" on="0"/>
        <pt x="608" y="341" on="1"/>
        <pt x="608" y="259" on="0"/>
        <pt x="571" y="128" on="0"/>
        <pt x="501" y="36" on="0"/>
        <pt x="396" y="-13" on="0"/>
        <pt x="329" y="-13" on="1"/>
        <pt x="223" y="-13" on="0"/>
      </contour>
    </TTGlyph>
    <TTGlyph name="OE" xMin="48" yMin="-13" xMax="853" yMax="696">
      <contour>
        <pt x="528" y="138" on="1"/>
        <pt x="527" y="88" on="1"/>
        <pt x="547" y="89" on="0"/>
        <pt x="580" y="90" on="0"/>
        <pt x="594" y="90" on="1"/>
        <pt x="853" y="90" on="1"/>
        <pt x="853" y="42" on="0"/>
        <pt x="823" y="-1" on="0"/>
        <pt x="782" y="-1" on="1"/>
        <pt x="458" y="-1" on="1"/>
        <pt x="366" y="-13" on="0"/>
        <pt x="330" y="-13" on="1"/>
        <pt x="259" y="-13" on="0"/>
        <pt x="153" y="43" on="0"/>
        <pt x="83" y="139" on="0"/>
        <pt x="48" y="268" on="0"/>
        <pt x="48" y="341" on="1"/>
        <pt x="48" y="414" on="0"/>
        <pt x="83" y="544" on="0"/>
        <pt x="153" y="640" on="0"/>
        <pt x="259" y="696" on="0"/>
        <pt x="330" y="696" on="1"/>
        <pt x="345" y="696" on="0"/>
        <pt x="408" y="690" on="0"/>
        <pt x="456" y="683" on="1"/>
        <pt x="833" y="683" on="1"/>
        <pt x="836" y="668" on="0"/>
        <pt x="836" y="646" on="1"/>
        <pt x="836" y="632" on="0"/>
        <pt x="833" y="604" on="0"/>
        <pt x="828" y="593" on="1"/>
        <pt x="527" y="593" on="1"/>
        <pt x="528" y="387" on="1"/>
        <pt x="591" y="389" on="1"/>
        <pt x="779" y="389" on="1"/>
        <pt x="784" y="369" on="0"/>
        <pt x="784" y="344" on="1"/>
        <pt x="784" y="319" on="0"/>
        <pt x="779" y="301" on="1"/>
        <pt x="591" y="301" on="1"/>
        <pt x="571" y="301" on="0"/>
        <pt x="539" y="301" on="0"/>
        <pt x="528" y="302" on="1"/>
      </contour>
      <contour>
        <pt x="425" y="85" on="1"/>
        <pt x="425" y="598" on="1"/>
        <pt x="398" y="604" on="0"/>
        <pt x="351" y="611" on="0"/>
        <pt x="330" y="611" on="1"/>
        <pt x="282" y="611" on="0"/>
        <pt x="216" y="565" on="0"/>
        <pt x="177" y="490" on="0"/>
        <pt x="160" y="393" on="0"/>
        <pt x="160" y="342" on="1"/>
        <pt x="160" y="289" on="0"/>
        <pt x="176" y="191" on="0"/>
        <pt x="217" y="116" on="0"/>
        <pt x="287" y="71" on="0"/>
        <pt x="341" y="71" on="1"/>
        <pt x="380" y="71" on="0"/>
      </contour>
    </TTGlyph>
    <TTGlyph name="Oacute" xMin="49" yMin="-13" xMax="608" yMax="902">
      <component glyphName="O" x="0" y="0" flags="0x204"/>
      <component glyphName="acute.cap" x="129" y="0" flags="0x4"/>
    </TTGlyph>
    <TTGlyph name="Ocircumflex" xMin="49" yMin="-13" xMax="608" yMax="897">
      <component glyphName="O" x="0" y="0" flags="0x204"/>
      <component glyphName="circumflex.cap" x="130" y="0" flags="0x4"/>
    </TTGlyph>
    <TTGlyph name="Odieresis" xMin="49" yMin="-13" xMax="608" yMax="842">
      <component glyphName="O" x="0" y="0" flags="0x204"/>
      <component glyphName="dieresis.cap" x="130" y="0" flags="0x4"/>
    </TTGlyph>
    <TTGlyph name="Ograve" xMin="49" yMin="-13" xMax="608" yMax="902">
      <component glyphName="O" x="0" y="0" flags="0x204"/>
      <component glyphName="grave.cap" x="130" y="0" flags="0x4"/>
    </TTGlyph>
    <TTGlyph name="Oslash" xMin="49" yMin="-53" xMax="610" yMax="737">
      <contour>
        <pt x="49" y="342" on="1"/>
        <pt x="49" y="415" on="0"/>
        <pt x="83" y="544" on="0"/>
        <pt x="153" y="640" on="0"/>
        <pt x="258" y="696" on="0"/>
        <pt x="330" y="696" on="1"/>
        <pt x="406" y="696" on="0"/>
        <pt x="456" y="668" on="1"/>
        <pt x="496" y="737" on="1"/>
        <pt x="514" y="735" on="0"/>
        <pt x="555" y="713" on="0"/>
        <pt x="566" y="699" on="1"/>
        <pt x="520" y="619" on="1"/>
        <pt x="610" y="521" on="0"/>
        <pt x="610" y="342" on="1"/>
        <pt x="610" y="270" on="0"/>
        <pt x="577" y="141" on="0"/>
        <pt x="508" y="44" on="0"/>
        <pt x="402" y="-13" on="0"/>
        <pt x="330" y="-13" on="1"/>
        <pt x="257" y="-13" on="0"/>
        <pt x="202" y="15" on="1"/>
        <pt x="164" y="-53" on="1"/>
        <pt x="146" y="-51" on="0"/>
        <pt x="105" y="-29" on="0"/>
        <pt x="94" y="-15" on="1"/>
        <pt x="138" y="64" on="1"/>
        <pt x="49" y="162" on="0"/>
      </contour>
      <contour>
        <pt x="190" y="161" on="1"/>
        <pt x="413" y="589" on="1"/>
        <pt x="378" y="613" on="0"/>
        <pt x="329" y="613" on="1"/>
        <pt x="280" y="613" on="0"/>
        <pt x="214" y="568" on="0"/>
        <pt x="175" y="492" on="0"/>
        <pt x="158" y="391" on="0"/>
        <pt x="158" y="336" on="1"/>
        <pt x="158" y="230" on="0"/>
      </contour>
      <contour>
        <pt x="468" y="522" on="1"/>
        <pt x="245" y="94" on="1"/>
        <pt x="282" y="70" on="0"/>
        <pt x="331" y="70" on="1"/>
        <pt x="379" y="70" on="0"/>
        <pt x="444" y="115" on="0"/>
        <pt x="483" y="191" on="0"/>
        <pt x="500" y="290" on="0"/>
        <pt x="500" y="345" on="1"/>
        <pt x="500" y="450" on="0"/>
      </contour>
    </TTGlyph>
    <TTGlyph name="Otilde" xMin="49" yMin="-13" xMax="608" yMax="877">
      <component glyphName="O" x="0" y="0" flags="0x204"/>
      <component glyphName="tilde.cap" x="127" y="0" flags="0x4"/>
    </TTGlyph>
    <TTGlyph name="P" xMin="91" yMin="-4" xMax="532" yMax="687">
      <contour>
        <pt x="97" y="684" on="1"/>
        <pt x="303" y="687" on="1"/>
        <pt x="355" y="687" on="0"/>
        <pt x="440" y="658" on="0"/>
        <pt x="500" y="602" on="0"/>
        <pt x="532" y="519" on="0"/>
        <pt x="532" y="465" on="1"/>
        <pt x="532" y="411" on="0"/>
        <pt x="499" y="327" on="0"/>
        <pt x="439" y="270" on="0"/>
        <pt x="354" y="241" on="0"/>
        <pt x="303" y="241" on="1"/>
        <pt x="197" y="241" on="1"/>
        <pt x="197" y="0" on="1"/>
        <pt x="186" y="-2" on="0"/>
        <pt x="158" y="-4" on="0"/>
        <pt x="143" y="-4" on="1"/>
        <pt x="129" y="-4" on="0"/>
        <pt x="101" y="-2" on="0"/>
        <pt x="91" y="0" on="1"/>
        <pt x="91" y="677" on="1"/>
      </contour>
      <contour>
        <pt x="197" y="325" on="1"/>
        <pt x="299" y="326" on="1"/>
        <pt x="333" y="326" on="0"/>
        <pt x="380" y="349" on="0"/>
        <pt x="408" y="387" on="0"/>
        <pt x="421" y="437" on="0"/>
        <pt x="421" y="464" on="1"/>
        <pt x="421" y="492" on="0"/>
        <pt x="408" y="542" on="0"/>
        <pt x="380" y="580" on="0"/>
        <pt x="333" y="602" on="0"/>
        <pt x="300" y="602" on="1"/>
        <pt x="265" y="602" on="0"/>
        <pt x="214" y="602" on="0"/>
        <pt x="197" y="603" on="1"/>
      </contour>
    </TTGlyph>
    <TTGlyph name="Q" xMin="49" yMin="-129" xMax="602" yMax="696">
      <contour>
        <pt x="453" y="-101" on="1"/>
        <pt x="339" y="-13" on="1"/>
        <pt x="329" y="-13" on="1"/>
        <pt x="192" y="-13" on="0"/>
        <pt x="49" y="173" on="0"/>
        <pt x="49" y="342" on="1"/>
        <pt x="49" y="424" on="0"/>
        <pt x="84" y="556" on="0"/>
        <pt x="153" y="647" on="0"/>
        <pt x="257" y="696" on="0"/>
        <pt x="325" y="696" on="1"/>
        <pt x="394" y="696" on="0"/>
        <pt x="497" y="647" on="0"/>
        <pt x="567" y="557" on="0"/>
        <pt x="602" y="428" on="0"/>
        <pt x="602" y="348" on="1"/>
        <pt x="602" y="285" on="0"/>
        <pt x="582" y="177" on="0"/>
        <pt x="544" y="93" on="0"/>
        <pt x="488" y="34" on="0"/>
        <pt x="453" y="21" on="1"/>
        <pt x="475" y="5" on="1"/>
        <pt x="497" y="-12" on="0"/>
        <pt x="532" y="-33" on="0"/>
        <pt x="562" y="-45" on="0"/>
        <pt x="588" y="-50" on="0"/>
        <pt x="602" y="-50" on="1"/>
        <pt x="600" y="-85" on="0"/>
        <pt x="556" y="-129" on="0"/>
        <pt x="524" y="-129" on="1"/>
        <pt x="490" y="-129" on="0"/>
      </contour>
      <contour>
        <pt x="325" y="611" on="1"/>
        <pt x="160" y="611" on="0"/>
        <pt x="160" y="342" on="1"/>
        <pt x="160" y="74" on="0"/>
        <pt x="325" y="74" on="1"/>
        <pt x="491" y="74" on="0"/>
        <pt x="491" y="342" on="1"/>
        <pt x="491" y="611" on="0"/>
      </contour>
    </TTGlyph>
    <TTGlyph name="R" xMin="91" yMin="-7" xMax="571" yMax="687">
      <contour>
        <pt x="97" y="684" on="1"/>
        <pt x="312" y="687" on="1"/>
        <pt x="418" y="687" on="0"/>
        <pt x="539" y="580" on="0"/>
        <pt x="539" y="482" on="1"/>
        <pt x="539" y="415" on="0"/>
        <pt x="468" y="318" on="0"/>
        <pt x="411" y="300" on="1"/>
        <pt x="458" y="283" on="0"/>
        <pt x="482" y="215" on="1"/>
        <pt x="526" y="98" on="1"/>
        <pt x="545" y="46" on="0"/>
        <pt x="571" y="26" on="1"/>
        <pt x="549" y="-7" on="0"/>
        <pt x="499" y="-7" on="1"/>
        <pt x="471" y="-7" on="0"/>
        <pt x="442" y="23" on="0"/>
        <pt x="429" y="58" on="1"/>
        <pt x="379" y="193" on="1"/>
        <pt x="364" y="233" on="0"/>
        <pt x="321" y="275" on="0"/>
        <pt x="278" y="275" on="1"/>
        <pt x="196" y="275" on="1"/>
        <pt x="196" y="0" on="1"/>
        <pt x="175" y="-4" on="0"/>
        <pt x="111" y="-4" on="0"/>
        <pt x="91" y="0" on="1"/>
        <pt x="91" y="677" on="1"/>
      </contour>
      <contour>
        <pt x="196" y="604" on="1"/>
        <pt x="196" y="360" on="1"/>
        <pt x="274" y="362" on="0"/>
        <pt x="307" y="362" on="1"/>
        <pt x="374" y="362" on="0"/>
        <pt x="429" y="430" on="0"/>
        <pt x="429" y="482" on="1"/>
        <pt x="429" y="603" on="0"/>
        <pt x="307" y="603" on="1"/>
        <pt x="230" y="603" on="0"/>
      </contour>
    </TTGlyph>
    <TTGlyph name="Racute" xMin="91" yMin="-7" xMax="571" yMax="902">
      <component glyphName="R" x="0" y="0" flags="0x204"/>
      <component glyphName="acute.cap" x="99" y="0" flags="0x4"/>
    </TTGlyph>
    <TTGlyph name="Rcaron" xMin="91" yMin="-7" xMax="571" yMax="900">
      <component glyphName="R" x="0" y="0" flags="0x204"/>
      <component glyphName="caron.cap" x="100" y="0" flags="0x4"/>
    </TTGlyph>
    <TTGlyph name="Rcommaaccent" xMin="91" yMin="-263" xMax="571" yMax="687">
      <component glyphName="R" x="0" y="0" flags="0x204"/>
      <component glyphName="commaaccent.cap" x="113" y="0" flags="0x4"/>
    </TTGlyph>
    <TTGlyph name="S" xMin="30" yMin="-13" xMax="515" yMax="696">
      <contour>
        <pt x="30" y="62" on="1"/>
        <pt x="34" y="111" on="0"/>
        <pt x="75" y="144" on="1"/>
        <pt x="179" y="76" on="0"/>
        <pt x="276" y="76" on="1"/>
        <pt x="335" y="76" on="0"/>
        <pt x="404" y="128" on="0"/>
        <pt x="404" y="170" on="1"/>
        <pt x="404" y="239" on="0"/>
        <pt x="313" y="278" on="1"/>
        <pt x="195" y="329" on="1"/>
        <pt x="58" y="388" on="0"/>
        <pt x="58" y="502" on="1"/>
        <pt x="58" y="543" on="0"/>
        <pt x="92" y="614" on="0"/>
        <pt x="152" y="668" on="0"/>
        <pt x="237" y="696" on="0"/>
        <pt x="288" y="696" on="1"/>
        <pt x="393" y="696" on="0"/>
        <pt x="496" y="644" on="1"/>
        <pt x="495" y="596" on="0"/>
        <pt x="457" y="561" on="1"/>
        <pt x="361" y="608" on="0"/>
        <pt x="286" y="608" on="1"/>
        <pt x="232" y="608" on="0"/>
        <pt x="166" y="555" on="0"/>
        <pt x="166" y="519" on="1"/>
        <pt x="166" y="482" on="0"/>
        <pt x="207" y="441" on="0"/>
        <pt x="249" y="424" on="1"/>
        <pt x="365" y="374" on="1"/>
        <pt x="440" y="342" on="0"/>
        <pt x="515" y="251" on="0"/>
        <pt x="515" y="188" on="1"/>
        <pt x="515" y="98" on="0"/>
        <pt x="390" y="-13" on="0"/>
        <pt x="263" y="-13" on="1"/>
        <pt x="136" y="-13" on="0"/>
      </contour>
    </TTGlyph>
    <TTGlyph name="Sacute" xMin="30" yMin="-13" xMax="515" yMax="902">
      <component glyphName="S" x="0" y="0" flags="0x204"/>
      <component glyphName="acute.cap" x="89" y="0" flags="0x4"/>
    </TTGlyph>
    <TTGlyph name="Scaron" xMin="30" yMin="-13" xMax="515" yMax="900">
      <component glyphName="S" x="0" y="0" flags="0x204"/>
      <component glyphName="caron.cap" x="88" y="0" flags="0x4"/>
    </TTGlyph>
    <TTGlyph name="T" xMin="13" yMin="-4" xMax="483" yMax="683">
      <contour>
        <pt x="358" y="593" on="1"/>
        <pt x="300" y="594" on="1"/>
        <pt x="300" y="0" on="1"/>
        <pt x="277" y="-4" on="0"/>
        <pt x="216" y="-4" on="0"/>
        <pt x="193" y="0" on="1"/>
        <pt x="193" y="520" on="1"/>
        <pt x="194" y="594" on="1"/>
        <pt x="193" y="594" on="1"/>
        <pt x="136" y="593" on="1"/>
        <pt x="17" y="593" on="1"/>
        <pt x="13" y="614" on="0"/>
        <pt x="13" y="662" on="0"/>
        <pt x="17" y="683" on="1"/>
        <pt x="477" y="683" on="1"/>
        <pt x="483" y="659" on="0"/>
        <pt x="483" y="637" on="1"/>
        <pt x="483" y="593" on="0"/>
        <pt x="423" y="593" on="1"/>
      </contour>
    </TTGlyph>
    <TTGlyph name="Tcaron" xMin="13" yMin="-4" xMax="483" yMax="900">
      <component glyphName="T" x="0" y="0" flags="0x204"/>
      <component glyphName="caron.cap" x="47" y="0" flags="0x4"/>
    </TTGlyph>
    <TTGlyph name="Thorn" xMin="91" yMin="-4" xMax="531" yMax="687">
      <contour>
        <pt x="91" y="0" on="1"/>
        <pt x="91" y="683" on="1"/>
        <pt x="101" y="685" on="0"/>
        <pt x="129" y="687" on="0"/>
        <pt x="143" y="687" on="1"/>
        <pt x="158" y="687" on="0"/>
        <pt x="186" y="685" on="0"/>
        <pt x="197" y="683" on="1"/>
        <pt x="197" y="581" on="1"/>
        <pt x="231" y="582" on="0"/>
        <pt x="283" y="583" on="0"/>
        <pt x="301" y="583" on="1"/>
        <pt x="353" y="583" on="0"/>
        <pt x="438" y="555" on="0"/>
        <pt x="498" y="500" on="0"/>
        <pt x="531" y="419" on="0"/>
        <pt x="531" y="365" on="1"/>
        <pt x="531" y="311" on="0"/>
        <pt x="498" y="229" on="0"/>
        <pt x="438" y="174" on="0"/>
        <pt x="353" y="145" on="0"/>
        <pt x="301" y="145" on="1"/>
        <pt x="197" y="145" on="1"/>
        <pt x="197" y="0" on="1"/>
        <pt x="186" y="-2" on="0"/>
        <pt x="158" y="-4" on="0"/>
        <pt x="143" y="-4" on="1"/>
        <pt x="129" y="-4" on="0"/>
        <pt x="101" y="-2" on="0"/>
      </contour>
      <contour>
        <pt x="197" y="229" on="1"/>
        <pt x="297" y="230" on="1"/>
        <pt x="331" y="230" on="0"/>
        <pt x="378" y="252" on="0"/>
        <pt x="407" y="288" on="0"/>
        <pt x="420" y="336" on="0"/>
        <pt x="420" y="364" on="1"/>
        <pt x="420" y="391" on="0"/>
        <pt x="407" y="440" on="0"/>
        <pt x="379" y="476" on="0"/>
        <pt x="333" y="498" on="0"/>
        <pt x="300" y="498" on="1"/>
        <pt x="268" y="498" on="0"/>
        <pt x="216" y="498" on="0"/>
        <pt x="197" y="499" on="1"/>
      </contour>
    </TTGlyph>
    <TTGlyph name="U" xMin="82" yMin="-13" xMax="587" yMax="687">
      <contour>
        <pt x="587" y="683" on="1"/>
        <pt x="587" y="240" on="1"/>
        <pt x="587" y="118" on="0"/>
        <pt x="451" y="-13" on="0"/>
        <pt x="334" y="-13" on="1"/>
        <pt x="218" y="-13" on="0"/>
        <pt x="82" y="117" on="0"/>
        <pt x="82" y="240" on="1"/>
        <pt x="82" y="681" on="1"/>
        <pt x="88" y="687" on="1"/>
        <pt x="129" y="687" on="1"/>
        <pt x="161" y="687" on="0"/>
        <pt x="188" y="655" on="0"/>
        <pt x="188" y="619" on="1"/>
        <pt x="188" y="240" on="1"/>
        <pt x="188" y="158" on="0"/>
        <pt x="262" y="73" on="0"/>
        <pt x="334" y="73" on="1"/>
        <pt x="480" y="73" on="0"/>
        <pt x="480" y="240" on="1"/>
        <pt x="480" y="683" on="1"/>
        <pt x="491" y="685" on="0"/>
        <pt x="519" y="687" on="0"/>
        <pt x="533" y="687" on="1"/>
        <pt x="548" y="687" on="0"/>
        <pt x="576" y="685" on="0"/>
      </contour>
    </TTGlyph>
    <TTGlyph name="Uacute" xMin="82" yMin="-13" xMax="587" yMax="902">
      <component glyphName="U" x="0" y="0" flags="0x204"/>
      <component glyphName="acute.cap" x="134" y="0" flags="0x4"/>
    </TTGlyph>
    <TTGlyph name="Ucircumflex" xMin="82" yMin="-13" xMax="587" yMax="897">
      <component glyphName="U" x="0" y="0" flags="0x204"/>
      <component glyphName="circumflex.cap" x="133" y="0" flags="0x4"/>
    </TTGlyph>
    <TTGlyph name="Udieresis" xMin="82" yMin="-13" xMax="587" yMax="842">
      <component glyphName="U" x="0" y="0" flags="0x204"/>
      <component glyphName="dieresis.cap" x="135" y="0" flags="0x4"/>
    </TTGlyph>
    <TTGlyph name="Ugrave" xMin="82" yMin="-13" xMax="587" yMax="902">
      <component glyphName="U" x="0" y="0" flags="0x204"/>
      <component glyphName="grave.cap" x="133" y="0" flags="0x4"/>
    </TTGlyph>
    <TTGlyph name="Uring" xMin="82" yMin="-13" xMax="587" yMax="894">
      <component glyphName="U" x="0" y="0" flags="0x204"/>
      <component glyphName="ring.cap" x="134" y="0" flags="0x4"/>
    </TTGlyph>
    <TTGlyph name="V" xMin="20" yMin="-5" xMax="558" yMax="690">
      <contour>
        <pt x="300" y="95" on="1"/>
        <pt x="459" y="683" on="1"/>
        <pt x="478" y="687" on="0"/>
        <pt x="534" y="687" on="0"/>
        <pt x="553" y="681" on="1"/>
        <pt x="558" y="673" on="1"/>
        <pt x="360" y="-1" on="1"/>
        <pt x="308" y="-5" on="0"/>
        <pt x="248" y="-5" on="0"/>
        <pt x="213" y="16" on="0"/>
        <pt x="204" y="47" on="1"/>
        <pt x="20" y="674" on="1"/>
        <pt x="56" y="690" on="0"/>
        <pt x="86" y="690" on="1"/>
        <pt x="129" y="690" on="0"/>
        <pt x="144" y="638" on="1"/>
        <pt x="247" y="277" on="1"/>
        <pt x="271" y="192" on="0"/>
        <pt x="291" y="105" on="1"/>
        <pt x="294" y="95" on="0"/>
      </contour>
    </TTGlyph>
    <TTGlyph name="W" xMin="30" yMin="-5" xMax="822" yMax="690">
      <contour>
        <pt x="156" y="48" on="1"/>
        <pt x="30" y="677" on="1"/>
        <pt x="59" y="690" on="0"/>
        <pt x="115" y="690" on="0"/>
        <pt x="141" y="665" on="0"/>
        <pt x="146" y="633" on="1"/>
        <pt x="209" y="293" on="1"/>
        <pt x="231" y="167" on="0"/>
        <pt x="241" y="100" on="1"/>
        <pt x="242" y="88" on="0"/>
        <pt x="250" y="88" on="1"/>
        <pt x="359" y="669" on="1"/>
        <pt x="392" y="674" on="0"/>
        <pt x="468" y="674" on="0"/>
        <pt x="496" y="669" on="1"/>
        <pt x="596" y="100" on="1"/>
        <pt x="598" y="88" on="0"/>
        <pt x="605" y="88" on="1"/>
        <pt x="615" y="158" on="0"/>
        <pt x="641" y="294" on="1"/>
        <pt x="718" y="683" on="1"/>
        <pt x="738" y="687" on="0"/>
        <pt x="794" y="687" on="0"/>
        <pt x="817" y="681" on="1"/>
        <pt x="822" y="674" on="1"/>
        <pt x="679" y="1" on="1"/>
        <pt x="640" y="-5" on="0"/>
        <pt x="556" y="-5" on="0"/>
        <pt x="524" y="16" on="0"/>
        <pt x="518" y="47" on="1"/>
        <pt x="470" y="315" on="1"/>
        <pt x="445" y="462" on="0"/>
        <pt x="430" y="562" on="1"/>
        <pt x="423" y="562" on="1"/>
        <pt x="403" y="436" on="0"/>
        <pt x="379" y="315" on="1"/>
        <pt x="318" y="0" on="1"/>
        <pt x="275" y="-5" on="0"/>
        <pt x="197" y="-5" on="0"/>
        <pt x="162" y="16" on="0"/>
      </contour>
    </TTGlyph>
    <TTGlyph name="X" xMin="18" yMin="-7" xMax="569" yMax="690">
      <contour>
        <pt x="445" y="683" on="1"/>
        <pt x="462" y="688" on="0"/>
        <pt x="523" y="688" on="0"/>
        <pt x="545" y="678" on="1"/>
        <pt x="548" y="671" on="1"/>
        <pt x="356" y="361" on="1"/>
        <pt x="569" y="16" on="1"/>
        <pt x="535" y="-7" on="0"/>
        <pt x="458" y="-7" on="0"/>
        <pt x="431" y="36" on="1"/>
        <pt x="286" y="270" on="1"/>
        <pt x="123" y="0" on="1"/>
        <pt x="106" y="-5" on="0"/>
        <pt x="43" y="-5" on="0"/>
        <pt x="21" y="5" on="1"/>
        <pt x="18" y="12" on="1"/>
        <pt x="232" y="357" on="1"/>
        <pt x="42" y="667" on="1"/>
        <pt x="76" y="690" on="0"/>
        <pt x="153" y="690" on="0"/>
        <pt x="179" y="648" on="1"/>
        <pt x="302" y="448" on="1"/>
      </contour>
    </TTGlyph>
    <TTGlyph name="Y" xMin="9" yMin="-4" xMax="496" yMax="690">
      <contour>
        <pt x="303" y="454" on="1"/>
        <pt x="394" y="683" on="1"/>
        <pt x="413" y="688" on="0"/>
        <pt x="467" y="688" on="0"/>
        <pt x="491" y="680" on="1"/>
        <pt x="496" y="673" on="1"/>
        <pt x="306" y="219" on="1"/>
        <pt x="306" y="0" on="1"/>
        <pt x="283" y="-4" on="0"/>
        <pt x="219" y="-4" on="0"/>
        <pt x="199" y="0" on="1"/>
        <pt x="199" y="221" on="1"/>
        <pt x="9" y="671" on="1"/>
        <pt x="43" y="690" on="0"/>
        <pt x="97" y="690" on="0"/>
        <pt x="123" y="669" on="0"/>
        <pt x="133" y="644" on="1"/>
        <pt x="212" y="452" on="1"/>
        <pt x="232" y="402" on="0"/>
        <pt x="254" y="327" on="1"/>
        <pt x="259" y="327" on="1"/>
        <pt x="270" y="367" on="0"/>
      </contour>
    </TTGlyph>
    <TTGlyph name="Yacute" xMin="9" yMin="-4" xMax="496" yMax="902">
      <component glyphName="Y" x="0" y="0" flags="0x204"/>
      <component glyphName="acute.cap" x="58" y="0" flags="0x4"/>
    </TTGlyph>
    <TTGlyph name="Ydieresis" xMin="9" yMin="-4" xMax="496" yMax="842">
      <component glyphName="Y" x="0" y="0" flags="0x204"/>
      <component glyphName="dieresis.cap" x="57" y="0" flags="0x4"/>
    </TTGlyph>
    <TTGlyph name="Z" xMin="48" yMin="0" xMax="515" yMax="683">
      <contour>
        <pt x="62" y="113" on="1"/>
        <pt x="314" y="492" on="1"/>
        <pt x="324" y="507" on="0"/>
        <pt x="393" y="598" on="1"/>
        <pt x="390" y="601" on="1"/>
        <pt x="346" y="593" on="0"/>
        <pt x="234" y="593" on="1"/>
        <pt x="73" y="593" on="1"/>
        <pt x="69" y="609" on="0"/>
        <pt x="69" y="654" on="0"/>
        <pt x="77" y="683" on="1"/>
        <pt x="489" y="683" on="1"/>
        <pt x="504" y="632" on="0"/>
        <pt x="504" y="593" on="0"/>
        <pt x="490" y="572" on="1"/>
        <pt x="239" y="196" on="1"/>
        <pt x="216" y="161" on="0"/>
        <pt x="161" y="89" on="1"/>
        <pt x="164" y="86" on="1"/>
        <pt x="227" y="92" on="0"/>
        <pt x="284" y="92" on="1"/>
        <pt x="388" y="92" on="1"/>
        <pt x="468" y="92" on="0"/>
        <pt x="506" y="111" on="1"/>
        <pt x="515" y="84" on="0"/>
        <pt x="515" y="59" on="1"/>
        <pt x="515" y="0" on="0"/>
        <pt x="441" y="0" on="1"/>
        <pt x="61" y="0" on="1"/>
        <pt x="48" y="50" on="0"/>
        <pt x="48" y="92" on="0"/>
      </contour>
    </TTGlyph>
    <TTGlyph name="Zacute" xMin="48" yMin="0" xMax="515" yMax="902">
      <component glyphName="Z" x="0" y="0" flags="0x204"/>
      <component glyphName="acute.cap" x="86" y="0" flags="0x4"/>
    </TTGlyph>
    <TTGlyph name="Zcaron" xMin="48" yMin="0" xMax="515" yMax="900">
      <component glyphName="Z" x="0" y="0" flags="0x204"/>
      <component glyphName="caron.cap" x="85" y="0" flags="0x4"/>
    </TTGlyph>
    <TTGlyph name="Zdotaccent" xMin="48" yMin="0" xMax="515" yMax="857">
      <component glyphName="Z" x="0" y="0" flags="0x204"/>
      <component glyphName="dotaccent.cap" x="85" y="0" flags="0x4"/>
    </TTGlyph>
    <TTGlyph name="a" xMin="43" yMin="-13" xMax="461" yMax="504">
      <contour>
        <pt x="461" y="46" on="1"/>
        <pt x="449" y="10" on="0"/>
        <pt x="422" y="-7" on="1"/>
        <pt x="363" y="4" on="0"/>
        <pt x="342" y="55" on="1"/>
        <pt x="271" y="-13" on="0"/>
        <pt x="196" y="-13" on="1"/>
        <pt x="158" y="-13" on="0"/>
        <pt x="101" y="11" on="0"/>
        <pt x="62" y="52" on="0"/>
        <pt x="43" y="105" on="0"/>
        <pt x="43" y="134" on="1"/>
        <pt x="43" y="216" on="0"/>
        <pt x="148" y="300" on="0"/>
        <pt x="235" y="300" on="1"/>
        <pt x="260" y="300" on="0"/>
        <pt x="308" y="297" on="0"/>
        <pt x="331" y="293" on="1"/>
        <pt x="331" y="332" on="1"/>
        <pt x="331" y="421" on="0"/>
        <pt x="249" y="421" on="1"/>
        <pt x="192" y="421" on="0"/>
        <pt x="92" y="383" on="1"/>
        <pt x="63" y="408" on="0"/>
        <pt x="62" y="458" on="1"/>
        <pt x="164" y="504" on="0"/>
        <pt x="269" y="504" on="1"/>
        <pt x="347" y="504" on="0"/>
        <pt x="433" y="421" on="0"/>
        <pt x="433" y="337" on="1"/>
        <pt x="433" y="132" on="1"/>
        <pt x="433" y="70" on="0"/>
      </contour>
      <contour>
        <pt x="213" y="69" on="1"/>
        <pt x="277" y="69" on="0"/>
        <pt x="331" y="129" on="1"/>
        <pt x="331" y="224" on="1"/>
        <pt x="311" y="226" on="0"/>
        <pt x="267" y="228" on="0"/>
        <pt x="243" y="228" on="1"/>
        <pt x="197" y="228" on="0"/>
        <pt x="146" y="183" on="0"/>
        <pt x="146" y="146" on="1"/>
        <pt x="146" y="110" on="0"/>
        <pt x="182" y="69" on="0"/>
      </contour>
    </TTGlyph>
    <TTGlyph name="a.smcp" xMin="13" yMin="-7" xMax="531" yMax="550">
      <contour>
        <pt x="380" y="122" on="1"/>
        <pt x="331" y="121" on="1"/>
        <pt x="207" y="121" on="1"/>
        <pt x="154" y="122" on="1"/>
        <pt x="111" y="-1" on="1"/>
        <pt x="94" y="-5" on="0"/>
        <pt x="36" y="-5" on="0"/>
        <pt x="17" y="2" on="1"/>
        <pt x="13" y="8" on="1"/>
        <pt x="212" y="546" on="1"/>
        <pt x="236" y="550" on="0"/>
        <pt x="309" y="550" on="0"/>
        <pt x="333" y="546" on="1"/>
        <pt x="531" y="5" on="1"/>
        <pt x="507" y="-7" on="0"/>
        <pt x="448" y="-7" on="0"/>
        <pt x="419" y="12" on="0"/>
        <pt x="409" y="41" on="1"/>
      </contour>
      <contour>
        <pt x="183" y="206" on="1"/>
        <pt x="228" y="207" on="1"/>
        <pt x="312" y="207" on="1"/>
        <pt x="344" y="206" on="0"/>
        <pt x="351" y="206" on="1"/>
        <pt x="318" y="301" on="1"/>
        <pt x="298" y="358" on="0"/>
        <pt x="270" y="459" on="1"/>
        <pt x="265" y="459" on="1"/>
        <pt x="240" y="369" on="0"/>
        <pt x="224" y="321" on="1"/>
      </contour>
    </TTGlyph>
    <TTGlyph name="aacute" xMin="43" yMin="-13" xMax="461" yMax="739">
      <component glyphName="a" x="0" y="0" flags="0x204"/>
      <component glyphName="acute" x="46" y="0" flags="0x4"/>
    </TTGlyph>
    <TTGlyph name="aacute.smcp" xMin="13" yMin="-7" xMax="531" yMax="792">
      <component glyphName="a.smcp" x="0" y="0" flags="0x204"/>
      <component glyphName="acute" x="76" y="53" flags="0x4"/>
    </TTGlyph>
    <TTGlyph name="acircumflex" xMin="43" yMin="-13" xMax="461" yMax="730">
      <component glyphName="a" x="0" y="0" flags="0x204"/>
      <component glyphName="circumflex" x="46" y="0" flags="0x4"/>
    </TTGlyph>
    <TTGlyph name="acircumflex.smcp" xMin="13" yMin="-7" xMax="531" yMax="783">
      <component glyphName="a.smcp" x="0" y="0" flags="0x204"/>
      <component glyphName="circumflex" x="75" y="53" flags="0x4"/>
    </TTGlyph>
    <TTGlyph name="acute" xMin="123" yMin="538" xMax="340" yMax="739">
      <contour>
        <pt x="123" y="580" on="1"/>
        <pt x="267" y="739" on="1"/>
        <pt x="290" y="731" on="0"/>
        <pt x="332" y="693" on="0"/>
        <pt x="340" y="671" on="1"/>
        <pt x="169" y="538" on="1"/>
        <pt x="155" y="542" on="0"/>
        <pt x="129" y="566" on="0"/>
      </contour>
    </TTGlyph>
    <TTGlyph name="acute.cap" xMin="98" yMin="728" xMax="347" yMax="902">
      <contour>
        <pt x="98" y="782" on="1"/>
        <pt x="301" y="902" on="1"/>
        <pt x="316" y="891" on="0"/>
        <pt x="344" y="842" on="0"/>
        <pt x="347" y="818" on="1"/>
        <pt x="129" y="728" on="1"/>
        <pt x="118" y="735" on="0"/>
        <pt x="100" y="767" on="0"/>
      </contour>
    </TTGlyph>
    <TTGlyph name="adieresis" xMin="43" yMin="-13" xMax="461" yMax="664">
      <component glyphName="a" x="0" y="0" flags="0x204"/>
      <component glyphName="dieresis" x="46" y="0" flags="0x4"/>
    </TTGlyph>
    <TTGlyph name="adieresis.smcp" xMin="13" yMin="-7" xMax="531" yMax="717">
      <component glyphName="a.smcp" x="0" y="0" flags="0x204"/>
      <component glyphName="dieresis" x="75" y="53" flags="0x4"/>
    </TTGlyph>
    <TTGlyph name="ae" xMin="43" yMin="-13" xMax="734" yMax="507">
      <contour>
        <pt x="726" y="214" on="1"/>
        <pt x="435" y="214" on="1"/>
        <pt x="438" y="146" on="0"/>
        <pt x="489" y="71" on="0"/>
        <pt x="551" y="71" on="1"/>
        <pt x="613" y="71" on="0"/>
        <pt x="688" y="110" on="1"/>
        <pt x="714" y="85" on="0"/>
        <pt x="720" y="43" on="1"/>
        <pt x="643" y="-13" on="0"/>
        <pt x="531" y="-13" on="1"/>
        <pt x="420" y="-13" on="0"/>
        <pt x="370" y="70" on="1"/>
        <pt x="290" y="-13" on="0"/>
        <pt x="191" y="-13" on="1"/>
        <pt x="156" y="-13" on="0"/>
        <pt x="101" y="10" on="0"/>
        <pt x="63" y="51" on="0"/>
        <pt x="43" y="105" on="0"/>
        <pt x="43" y="135" on="1"/>
        <pt x="43" y="217" on="0"/>
        <pt x="148" y="300" on="0"/>
        <pt x="235" y="300" on="1"/>
        <pt x="261" y="300" on="0"/>
        <pt x="308" y="297" on="0"/>
        <pt x="331" y="293" on="1"/>
        <pt x="331" y="333" on="1"/>
        <pt x="331" y="421" on="0"/>
        <pt x="250" y="421" on="1"/>
        <pt x="188" y="421" on="0"/>
        <pt x="92" y="383" on="1"/>
        <pt x="63" y="408" on="0"/>
        <pt x="62" y="458" on="1"/>
        <pt x="164" y="504" on="0"/>
        <pt x="260" y="504" on="1"/>
        <pt x="356" y="504" on="0"/>
        <pt x="396" y="443" on="1"/>
        <pt x="450" y="507" on="0"/>
        <pt x="540" y="507" on="1"/>
        <pt x="585" y="507" on="0"/>
        <pt x="656" y="475" on="0"/>
        <pt x="707" y="418" on="0"/>
        <pt x="734" y="339" on="0"/>
        <pt x="734" y="293" on="1"/>
        <pt x="734" y="272" on="0"/>
        <pt x="730" y="233" on="0"/>
      </contour>
      <contour>
        <pt x="213" y="69" on="1"/>
        <pt x="288" y="69" on="0"/>
        <pt x="342" y="138" on="1"/>
        <pt x="333" y="175" on="0"/>
        <pt x="330" y="223" on="1"/>
        <pt x="312" y="225" on="0"/>
        <pt x="270" y="228" on="0"/>
        <pt x="245" y="228" on="1"/>
        <pt x="196" y="228" on="0"/>
        <pt x="146" y="183" on="0"/>
        <pt x="146" y="146" on="1"/>
        <pt x="146" y="110" on="0"/>
        <pt x="182" y="69" on="0"/>
      </contour>
      <contour>
        <pt x="536" y="430" on="1"/>
        <pt x="442" y="430" on="0"/>
        <pt x="435" y="289" on="1"/>
        <pt x="634" y="289" on="1"/>
        <pt x="634" y="301" on="1"/>
        <pt x="634" y="358" on="0"/>
        <pt x="587" y="430" on="0"/>
      </contour>
    </TTGlyph>
    <TTGlyph name="ae.smcp" xMin="10" yMin="-5" xMax="739" yMax="546">
      <contour>
        <pt x="458" y="129" on="1"/>
        <pt x="457" y="83" on="1"/>
        <pt x="491" y="85" on="0"/>
        <pt x="517" y="85" on="1"/>
        <pt x="739" y="85" on="1"/>
        <pt x="739" y="61" on="0"/>
        <pt x="737" y="49" on="1"/>
        <pt x="728" y="-1" on="0"/>
        <pt x="672" y="-1" on="1"/>
        <pt x="418" y="-1" on="1"/>
        <pt x="390" y="-1" on="0"/>
        <pt x="358" y="33" on="0"/>
        <pt x="358" y="62" on="1"/>
        <pt x="358" y="125" on="1"/>
        <pt x="343" y="124" on="0"/>
        <pt x="313" y="124" on="1"/>
        <pt x="229" y="124" on="1"/>
        <pt x="176" y="125" on="1"/>
        <pt x="109" y="-1" on="1"/>
        <pt x="88" y="-5" on="0"/>
        <pt x="33" y="-5" on="0"/>
        <pt x="13" y="2" on="1"/>
        <pt x="10" y="9" on="1"/>
        <pt x="300" y="536" on="1"/>
        <pt x="320" y="546" on="0"/>
        <pt x="364" y="546" on="1"/>
        <pt x="723" y="546" on="1"/>
        <pt x="726" y="531" on="0"/>
        <pt x="726" y="480" on="0"/>
        <pt x="718" y="460" on="1"/>
        <pt x="588" y="460" on="0"/>
        <pt x="457" y="460" on="1"/>
        <pt x="458" y="408" on="1"/>
        <pt x="458" y="317" on="1"/>
        <pt x="514" y="318" on="1"/>
        <pt x="673" y="318" on="1"/>
        <pt x="678" y="302" on="0"/>
        <pt x="678" y="251" on="0"/>
        <pt x="673" y="235" on="1"/>
        <pt x="458" y="235" on="1"/>
      </contour>
      <contour>
        <pt x="312" y="206" on="1"/>
        <pt x="358" y="205" on="1"/>
        <pt x="358" y="466" on="1"/>
        <pt x="353" y="466" on="1"/>
        <pt x="323" y="401" on="0"/>
        <pt x="275" y="308" on="1"/>
        <pt x="219" y="205" on="1"/>
        <pt x="258" y="206" on="1"/>
      </contour>
    </TTGlyph>
    <TTGlyph name="agrave" xMin="43" yMin="-13" xMax="461" yMax="739">
      <component glyphName="a" x="0" y="0" flags="0x204"/>
      <component glyphName="grave" x="48" y="0" flags="0x4"/>
    </TTGlyph>
    <TTGlyph name="agrave.smcp" xMin="13" yMin="-7" xMax="531" yMax="792">
      <component glyphName="a.smcp" x="0" y="0" flags="0x204"/>
      <component glyphName="grave" x="78" y="53" flags="0x4"/>
    </TTGlyph>
    <TTGlyph name="ampersand" xMin="50" yMin="-13" xMax="606" yMax="696">
      <contour>
        <pt x="499" y="317" on="1"/>
        <pt x="500" y="151" on="1"/>
        <pt x="500" y="142" on="0"/>
        <pt x="503" y="67" on="0"/>
        <pt x="507" y="0" on="1"/>
        <pt x="487" y="-6" on="0"/>
        <pt x="457" y="-6" on="1"/>
        <pt x="444" y="-6" on="0"/>
        <pt x="420" y="-4" on="0"/>
        <pt x="410" y="-1" on="1"/>
        <pt x="402" y="40" on="1"/>
        <pt x="328" y="-13" on="0"/>
        <pt x="240" y="-13" on="1"/>
        <pt x="196" y="-13" on="0"/>
        <pt x="125" y="16" on="0"/>
        <pt x="76" y="66" on="0"/>
        <pt x="50" y="133" on="0"/>
        <pt x="50" y="171" on="1"/>
        <pt x="50" y="209" on="0"/>
        <pt x="71" y="273" on="0"/>
        <pt x="107" y="323" on="0"/>
        <pt x="155" y="357" on="0"/>
        <pt x="182" y="366" on="1"/>
        <pt x="136" y="381" on="0"/>
        <pt x="79" y="464" on="0"/>
        <pt x="79" y="518" on="1"/>
        <pt x="79" y="557" on="0"/>
        <pt x="109" y="622" on="0"/>
        <pt x="164" y="670" on="0"/>
        <pt x="242" y="696" on="0"/>
        <pt x="290" y="696" on="1"/>
        <pt x="388" y="696" on="0"/>
        <pt x="472" y="667" on="1"/>
        <pt x="472" y="616" on="0"/>
        <pt x="444" y="585" on="1"/>
        <pt x="360" y="611" on="0"/>
        <pt x="305" y="611" on="1"/>
        <pt x="248" y="611" on="0"/>
        <pt x="189" y="557" on="0"/>
        <pt x="189" y="509" on="1"/>
        <pt x="189" y="461" on="0"/>
        <pt x="250" y="407" on="0"/>
        <pt x="313" y="407" on="1"/>
        <pt x="497" y="407" on="1"/>
        <pt x="557" y="407" on="0"/>
        <pt x="592" y="422" on="1"/>
        <pt x="606" y="405" on="0"/>
        <pt x="606" y="372" on="1"/>
        <pt x="606" y="317" on="0"/>
        <pt x="531" y="317" on="1"/>
      </contour>
      <contour>
        <pt x="398" y="254" on="1"/>
        <pt x="398" y="274" on="0"/>
        <pt x="398" y="306" on="0"/>
        <pt x="399" y="317" on="1"/>
        <pt x="303" y="317" on="1"/>
        <pt x="267" y="317" on="0"/>
        <pt x="214" y="296" on="0"/>
        <pt x="178" y="261" on="0"/>
        <pt x="160" y="213" on="0"/>
        <pt x="160" y="186" on="1"/>
        <pt x="160" y="132" on="0"/>
        <pt x="217" y="71" on="0"/>
        <pt x="266" y="71" on="1"/>
        <pt x="340" y="71" on="0"/>
        <pt x="398" y="118" on="1"/>
      </contour>
    </TTGlyph>
    <TTGlyph name="ampersand.smcp" xMin="45" yMin="-13" xMax="546" yMax="559">
      <contour>
        <pt x="454" y="246" on="1"/>
        <pt x="455" y="106" on="1"/>
        <pt x="455" y="94" on="0"/>
        <pt x="458" y="40" on="0"/>
        <pt x="462" y="-2" on="1"/>
        <pt x="453" y="-6" on="0"/>
        <pt x="427" y="-9" on="0"/>
        <pt x="413" y="-9" on="1"/>
        <pt x="401" y="-9" on="0"/>
        <pt x="376" y="-7" on="0"/>
        <pt x="365" y="-5" on="1"/>
        <pt x="359" y="31" on="1"/>
        <pt x="297" y="-13" on="0"/>
        <pt x="215" y="-13" on="1"/>
        <pt x="175" y="-13" on="0"/>
        <pt x="112" y="10" on="0"/>
        <pt x="68" y="51" on="0"/>
        <pt x="45" y="105" on="0"/>
        <pt x="45" y="136" on="1"/>
        <pt x="45" y="197" on="0"/>
        <pt x="113" y="278" on="0"/>
        <pt x="162" y="291" on="1"/>
        <pt x="122" y="304" on="0"/>
        <pt x="72" y="370" on="0"/>
        <pt x="72" y="413" on="1"/>
        <pt x="72" y="478" on="0"/>
        <pt x="174" y="559" on="0"/>
        <pt x="261" y="559" on="1"/>
        <pt x="350" y="559" on="0"/>
        <pt x="429" y="534" on="1"/>
        <pt x="429" y="522" on="1"/>
        <pt x="429" y="482" on="0"/>
        <pt x="402" y="455" on="1"/>
        <pt x="326" y="477" on="0"/>
        <pt x="277" y="477" on="1"/>
        <pt x="228" y="477" on="0"/>
        <pt x="183" y="437" on="0"/>
        <pt x="182" y="405" on="1"/>
        <pt x="182" y="331" on="0"/>
        <pt x="287" y="331" on="1"/>
        <pt x="450" y="331" on="1"/>
        <pt x="499" y="331" on="0"/>
        <pt x="533" y="345" on="1"/>
        <pt x="546" y="326" on="0"/>
        <pt x="546" y="298" on="1"/>
        <pt x="546" y="246" on="0"/>
        <pt x="475" y="246" on="1"/>
      </contour>
      <contour>
        <pt x="354" y="192" on="1"/>
        <pt x="354" y="210" on="0"/>
        <pt x="354" y="237" on="0"/>
        <pt x="355" y="246" on="1"/>
        <pt x="277" y="246" on="1"/>
        <pt x="214" y="246" on="0"/>
        <pt x="154" y="193" on="0"/>
        <pt x="154" y="151" on="1"/>
        <pt x="154" y="109" on="0"/>
        <pt x="201" y="68" on="0"/>
        <pt x="243" y="68" on="1"/>
        <pt x="307" y="68" on="0"/>
        <pt x="354" y="103" on="1"/>
      </contour>
    </TTGlyph>
    <TTGlyph name="aogonek" xMin="43" yMin="-217" xMax="490" yMax="504">
      <contour>
        <pt x="466" y="-132" on="1"/>
        <pt x="488" y="-148" on="0"/>
        <pt x="490" y="-182" on="1"/>
        <pt x="449" y="-217" on="0"/>
        <pt x="393" y="-217" on="1"/>
        <pt x="336" y="-217" on="0"/>
        <pt x="277" y="-167" on="0"/>
        <pt x="277" y="-124" on="1"/>
        <pt x="277" y="-45" on="0"/>
        <pt x="369" y="20" on="1"/>
        <pt x="352" y="37" on="0"/>
        <pt x="343" y="56" on="1"/>
        <pt x="272" y="-13" on="0"/>
        <pt x="196" y="-13" on="1"/>
        <pt x="158" y="-13" on="0"/>
        <pt x="101" y="11" on="0"/>
        <pt x="62" y="52" on="0"/>
        <pt x="43" y="105" on="0"/>
        <pt x="43" y="134" on="1"/>
        <pt x="43" y="216" on="0"/>
        <pt x="148" y="300" on="0"/>
        <pt x="235" y="300" on="1"/>
        <pt x="260" y="300" on="0"/>
        <pt x="308" y="297" on="0"/>
        <pt x="331" y="293" on="1"/>
        <pt x="331" y="332" on="1"/>
        <pt x="331" y="421" on="0"/>
        <pt x="249" y="421" on="1"/>
        <pt x="192" y="421" on="0"/>
        <pt x="92" y="383" on="1"/>
        <pt x="63" y="408" on="0"/>
        <pt x="62" y="458" on="1"/>
        <pt x="164" y="504" on="0"/>
        <pt x="269" y="504" on="1"/>
        <pt x="347" y="504" on="0"/>
        <pt x="433" y="421" on="0"/>
        <pt x="433" y="337" on="1"/>
        <pt x="433" y="132" on="1"/>
        <pt x="433" y="74" on="0"/>
        <pt x="465" y="48" on="1"/>
        <pt x="456" y="19" on="0"/>
        <pt x="420" y="-11" on="1"/>
        <pt x="359" y="-62" on="0"/>
        <pt x="359" y="-103" on="1"/>
        <pt x="359" y="-124" on="0"/>
        <pt x="386" y="-149" on="0"/>
        <pt x="409" y="-149" on="1"/>
        <pt x="435" y="-149" on="0"/>
      </contour>
      <contour>
        <pt x="213" y="69" on="1"/>
        <pt x="277" y="69" on="0"/>
        <pt x="331" y="129" on="1"/>
        <pt x="331" y="224" on="1"/>
        <pt x="311" y="226" on="0"/>
        <pt x="267" y="228" on="0"/>
        <pt x="243" y="228" on="1"/>
        <pt x="197" y="228" on="0"/>
        <pt x="146" y="183" on="0"/>
        <pt x="146" y="146" on="1"/>
        <pt x="146" y="110" on="0"/>
        <pt x="182" y="69" on="0"/>
      </contour>
    </TTGlyph>
    <TTGlyph name="aogonek.smcp" xMin="13" yMin="-217" xMax="573" yMax="550">
      <contour>
        <pt x="207" y="121" on="1"/>
        <pt x="154" y="122" on="1"/>
        <pt x="111" y="-1" on="1"/>
        <pt x="94" y="-5" on="0"/>
        <pt x="36" y="-5" on="0"/>
        <pt x="17" y="2" on="1"/>
        <pt x="13" y="8" on="1"/>
        <pt x="212" y="546" on="1"/>
        <pt x="236" y="550" on="0"/>
        <pt x="309" y="550" on="0"/>
        <pt x="333" y="546" on="1"/>
        <pt x="531" y="5" on="1"/>
        <pt x="443" y="-47" on="0"/>
        <pt x="443" y="-103" on="1"/>
        <pt x="443" y="-125" on="0"/>
        <pt x="469" y="-147" on="0"/>
        <pt x="491" y="-148" on="0"/>
        <pt x="520" y="-147" on="0"/>
        <pt x="550" y="-132" on="1"/>
        <pt x="573" y="-151" on="0"/>
        <pt x="573" y="-182" on="1"/>
        <pt x="533" y="-217" on="0"/>
        <pt x="476" y="-217" on="1"/>
        <pt x="419" y="-217" on="0"/>
        <pt x="360" y="-167" on="0"/>
        <pt x="360" y="-124" on="1"/>
        <pt x="360" y="-56" on="0"/>
        <pt x="433" y="2" on="1"/>
        <pt x="417" y="13" on="0"/>
        <pt x="409" y="41" on="1"/>
        <pt x="380" y="122" on="1"/>
        <pt x="331" y="121" on="1"/>
      </contour>
      <contour>
        <pt x="183" y="206" on="1"/>
        <pt x="228" y="207" on="1"/>
        <pt x="312" y="207" on="1"/>
        <pt x="344" y="206" on="0"/>
        <pt x="351" y="206" on="1"/>
        <pt x="318" y="301" on="1"/>
        <pt x="298" y="358" on="0"/>
        <pt x="270" y="459" on="1"/>
        <pt x="265" y="459" on="1"/>
        <pt x="240" y="369" on="0"/>
        <pt x="224" y="321" on="1"/>
      </contour>
    </TTGlyph>
    <TTGlyph name="aring" xMin="43" yMin="-13" xMax="461" yMax="766">
      <component glyphName="a" x="0" y="0" flags="0x204"/>
      <component glyphName="ring" x="46" y="0" flags="0x4"/>
    </TTGlyph>
    <TTGlyph name="aring.smcp" xMin="13" yMin="-7" xMax="531" yMax="819">
      <component glyphName="a.smcp" x="0" y="0" flags="0x204"/>
      <component glyphName="ring" x="75" y="53" flags="0x4"/>
    </TTGlyph>
    <TTGlyph name="asciicircum" xMin="44" yMin="301" xMax="486" yMax="653">
      <contour>
        <pt x="321" y="648" on="1"/>
        <pt x="486" y="306" on="1"/>
        <pt x="468" y="301" on="0"/>
        <pt x="405" y="301" on="0"/>
        <pt x="384" y="306" on="1"/>
        <pt x="302" y="482" on="1"/>
        <pt x="291" y="508" on="0"/>
        <pt x="268" y="566" on="1"/>
        <pt x="262" y="566" on="1"/>
        <pt x="239" y="508" on="0"/>
        <pt x="228" y="482" on="1"/>
        <pt x="146" y="306" on="1"/>
        <pt x="125" y="301" on="0"/>
        <pt x="62" y="301" on="0"/>
        <pt x="44" y="306" on="1"/>
        <pt x="209" y="648" on="1"/>
        <pt x="229" y="653" on="0"/>
        <pt x="301" y="653" on="0"/>
      </contour>
    </TTGlyph>
    <TTGlyph name="asciitilde" xMin="40" yMin="211" xMax="546" yMax="376">
      <contour>
        <pt x="276" y="356" on="1"/>
        <pt x="354" y="320" on="1"/>
        <pt x="385" y="308" on="0"/>
        <pt x="406" y="308" on="1"/>
        <pt x="423" y="307" on="0"/>
        <pt x="452" y="324" on="0"/>
        <pt x="466" y="340" on="1"/>
        <pt x="485" y="362" on="1"/>
        <pt x="503" y="361" on="0"/>
        <pt x="540" y="338" on="0"/>
        <pt x="546" y="322" on="1"/>
        <pt x="533" y="299" on="1"/>
        <pt x="484" y="211" on="0"/>
        <pt x="395" y="211" on="1"/>
        <pt x="376" y="212" on="0"/>
        <pt x="333" y="220" on="0"/>
        <pt x="310" y="231" on="1"/>
        <pt x="231" y="267" on="1"/>
        <pt x="219" y="272" on="0"/>
        <pt x="195" y="279" on="0"/>
        <pt x="182" y="279" on="1"/>
        <pt x="149" y="280" on="0"/>
        <pt x="120" y="247" on="1"/>
        <pt x="101" y="225" on="1"/>
        <pt x="83" y="227" on="0"/>
        <pt x="46" y="249" on="0"/>
        <pt x="40" y="265" on="1"/>
        <pt x="53" y="288" on="1"/>
        <pt x="102" y="376" on="0"/>
        <pt x="191" y="376" on="1"/>
        <pt x="227" y="376" on="0"/>
      </contour>
    </TTGlyph>
    <TTGlyph name="asterisk" xMin="43" yMin="336" xMax="461" yMax="738">
      <contour>
        <pt x="45" y="547" on="1"/>
        <pt x="43" y="564" on="0"/>
        <pt x="61" y="619" on="0"/>
        <pt x="73" y="633" on="1"/>
        <pt x="125" y="615" on="1"/>
        <pt x="159" y="603" on="0"/>
        <pt x="226" y="562" on="1"/>
        <pt x="208" y="632" on="0"/>
        <pt x="208" y="675" on="1"/>
        <pt x="207" y="731" on="1"/>
        <pt x="223" y="738" on="0"/>
        <pt x="280" y="738" on="0"/>
        <pt x="297" y="731" on="1"/>
        <pt x="296" y="675" on="1"/>
        <pt x="296" y="637" on="0"/>
        <pt x="277" y="563" on="1"/>
        <pt x="345" y="603" on="0"/>
        <pt x="379" y="615" on="1"/>
        <pt x="432" y="632" on="1"/>
        <pt x="443" y="620" on="0"/>
        <pt x="461" y="566" on="0"/>
        <pt x="460" y="547" on="1"/>
        <pt x="406" y="530" on="1"/>
        <pt x="368" y="518" on="0"/>
        <pt x="293" y="514" on="1"/>
        <pt x="350" y="467" on="0"/>
        <pt x="375" y="433" on="1"/>
        <pt x="407" y="389" on="1"/>
        <pt x="399" y="374" on="0"/>
        <pt x="354" y="340" on="0"/>
        <pt x="335" y="336" on="1"/>
        <pt x="303" y="381" on="1"/>
        <pt x="277" y="418" on="0"/>
        <pt x="252" y="483" on="1"/>
        <pt x="227" y="417" on="0"/>
        <pt x="201" y="382" on="1"/>
        <pt x="169" y="336" on="1"/>
        <pt x="151" y="341" on="0"/>
        <pt x="106" y="374" on="0"/>
        <pt x="96" y="389" on="1"/>
        <pt x="129" y="433" on="1"/>
        <pt x="152" y="464" on="0"/>
        <pt x="210" y="514" on="1"/>
        <pt x="136" y="518" on="0"/>
        <pt x="98" y="531" on="1"/>
      </contour>
    </TTGlyph>
    <TTGlyph name="at" xMin="50" yMin="-188" xMax="907" yMax="677">
      <contour>
        <pt x="663" y="412" on="1"/>
        <pt x="662" y="157" on="1"/>
        <pt x="662" y="88" on="0"/>
        <pt x="705" y="88" on="1"/>
        <pt x="748" y="88" on="0"/>
        <pt x="805" y="187" on="0"/>
        <pt x="805" y="293" on="1"/>
        <pt x="805" y="362" on="0"/>
        <pt x="760" y="475" on="0"/>
        <pt x="678" y="556" on="0"/>
        <pt x="560" y="600" on="0"/>
        <pt x="487" y="600" on="1"/>
        <pt x="413" y="600" on="0"/>
        <pt x="291" y="543" on="0"/>
        <pt x="203" y="443" on="0"/>
        <pt x="154" y="306" on="0"/>
        <pt x="154" y="226" on="1"/>
        <pt x="154" y="145" on="0"/>
        <pt x="197" y="20" on="0"/>
        <pt x="275" y="-64" on="0"/>
        <pt x="385" y="-108" on="0"/>
        <pt x="453" y="-108" on="1"/>
        <pt x="567" y="-108" on="0"/>
        <pt x="656" y="-71" on="1"/>
        <pt x="683" y="-100" on="0"/>
        <pt x="683" y="-144" on="1"/>
        <pt x="568" y="-188" on="0"/>
        <pt x="446" y="-188" on="1"/>
        <pt x="358" y="-188" on="0"/>
        <pt x="212" y="-133" on="0"/>
        <pt x="108" y="-28" on="0"/>
        <pt x="50" y="125" on="0"/>
        <pt x="50" y="224" on="1"/>
        <pt x="50" y="322" on="0"/>
        <pt x="116" y="488" on="0"/>
        <pt x="233" y="609" on="0"/>
        <pt x="393" y="677" on="0"/>
        <pt x="487" y="677" on="1"/>
        <pt x="580" y="677" on="0"/>
        <pt x="735" y="622" on="0"/>
        <pt x="846" y="521" on="0"/>
        <pt x="907" y="378" on="0"/>
        <pt x="907" y="290" on="1"/>
        <pt x="907" y="225" on="0"/>
        <pt x="874" y="121" on="0"/>
        <pt x="819" y="48" on="0"/>
        <pt x="745" y="9" on="0"/>
        <pt x="703" y="9" on="1"/>
        <pt x="620" y="9" on="0"/>
        <pt x="582" y="71" on="1"/>
        <pt x="520" y="5" on="0"/>
        <pt x="444" y="5" on="1"/>
        <pt x="369" y="5" on="0"/>
        <pt x="284" y="125" on="0"/>
        <pt x="284" y="231" on="1"/>
        <pt x="284" y="283" on="0"/>
        <pt x="311" y="374" on="0"/>
        <pt x="364" y="442" on="0"/>
        <pt x="441" y="481" on="0"/>
        <pt x="491" y="481" on="1"/>
        <pt x="589" y="481" on="0"/>
      </contour>
      <contour>
        <pt x="465" y="86" on="1"/>
        <pt x="490" y="86" on="0"/>
        <pt x="545" y="120" on="0"/>
        <pt x="564" y="145" on="1"/>
        <pt x="564" y="376" on="1"/>
        <pt x="534" y="406" on="0"/>
        <pt x="485" y="406" on="1"/>
        <pt x="461" y="406" on="0"/>
        <pt x="423" y="380" on="0"/>
        <pt x="398" y="333" on="0"/>
        <pt x="384" y="268" on="0"/>
        <pt x="384" y="229" on="1"/>
        <pt x="384" y="86" on="0"/>
      </contour>
    </TTGlyph>
    <TTGlyph name="atilde" xMin="43" yMin="-13" xMax="461" yMax="693">
      <component glyphName="a" x="0" y="0" flags="0x204"/>
      <component glyphName="tilde" x="46" y="0" flags="0x4"/>
    </TTGlyph>
    <TTGlyph name="atilde.smcp" xMin="13" yMin="-7" xMax="531" yMax="746">
      <component glyphName="a.smcp" x="0" y="0" flags="0x204"/>
      <component glyphName="tilde" x="76" y="53" flags="0x4"/>
    </TTGlyph>
    <TTGlyph name="b" xMin="78" yMin="-8" xMax="484" yMax="735">
      <contour>
        <pt x="78" y="25" on="1"/>
        <pt x="78" y="729" on="1"/>
        <pt x="84" y="735" on="1"/>
        <pt x="123" y="735" on="1"/>
        <pt x="154" y="735" on="0"/>
        <pt x="179" y="704" on="0"/>
        <pt x="179" y="669" on="1"/>
        <pt x="179" y="451" on="1"/>
        <pt x="239" y="502" on="0"/>
        <pt x="317" y="502" on="1"/>
        <pt x="397" y="502" on="0"/>
        <pt x="484" y="364" on="0"/>
        <pt x="484" y="241" on="1"/>
        <pt x="484" y="183" on="0"/>
        <pt x="450" y="91" on="0"/>
        <pt x="390" y="26" on="0"/>
        <pt x="309" y="-8" on="0"/>
        <pt x="262" y="-8" on="1"/>
        <pt x="166" y="-8" on="0"/>
      </contour>
      <contour>
        <pt x="288" y="416" on="1"/>
        <pt x="228" y="416" on="0"/>
        <pt x="179" y="359" on="1"/>
        <pt x="179" y="81" on="1"/>
        <pt x="216" y="69" on="0"/>
        <pt x="265" y="69" on="1"/>
        <pt x="315" y="69" on="0"/>
        <pt x="379" y="163" on="0"/>
        <pt x="379" y="249" on="1"/>
        <pt x="379" y="336" on="0"/>
        <pt x="330" y="416" on="0"/>
      </contour>
    </TTGlyph>
    <TTGlyph name="b.smcp" xMin="84" yMin="-3" xMax="504" yMax="549">
      <contour>
        <pt x="89" y="546" on="1"/>
        <pt x="266" y="549" on="0"/>
        <pt x="275" y="549" on="1"/>
        <pt x="475" y="549" on="0"/>
        <pt x="475" y="406" on="1"/>
        <pt x="475" y="369" on="0"/>
        <pt x="431" y="307" on="0"/>
        <pt x="394" y="294" on="1"/>
        <pt x="417" y="288" on="0"/>
        <pt x="457" y="261" on="0"/>
        <pt x="487" y="224" on="0"/>
        <pt x="504" y="179" on="0"/>
        <pt x="504" y="155" on="1"/>
        <pt x="504" y="79" on="0"/>
        <pt x="395" y="-3" on="0"/>
        <pt x="295" y="-3" on="1"/>
        <pt x="195" y="-3" on="0"/>
        <pt x="89" y="0" on="1"/>
        <pt x="84" y="5" on="1"/>
        <pt x="84" y="541" on="1"/>
      </contour>
      <contour>
        <pt x="280" y="248" on="1"/>
        <pt x="187" y="248" on="1"/>
        <pt x="187" y="73" on="1"/>
        <pt x="217" y="73" on="0"/>
        <pt x="290" y="72" on="0"/>
        <pt x="354" y="81" on="0"/>
        <pt x="397" y="123" on="0"/>
        <pt x="397" y="160" on="1"/>
        <pt x="397" y="177" on="0"/>
        <pt x="383" y="209" on="0"/>
        <pt x="355" y="233" on="0"/>
        <pt x="311" y="248" on="0"/>
      </contour>
      <contour>
        <pt x="187" y="473" on="1"/>
        <pt x="187" y="326" on="1"/>
        <pt x="271" y="326" on="1"/>
        <pt x="370" y="326" on="0"/>
        <pt x="370" y="399" on="1"/>
        <pt x="370" y="430" on="0"/>
        <pt x="340" y="461" on="0"/>
        <pt x="290" y="473" on="0"/>
        <pt x="223" y="472" on="0"/>
      </contour>
    </TTGlyph>
    <TTGlyph name="backslash" xMin="10" yMin="-111" xMax="415" yMax="761">
      <contour>
        <pt x="326" y="-111" on="1"/>
        <pt x="10" y="728" on="1"/>
        <pt x="49" y="758" on="0"/>
        <pt x="99" y="761" on="1"/>
        <pt x="415" y="-77" on="1"/>
        <pt x="377" y="-106" on="0"/>
      </contour>
    </TTGlyph>
    <TTGlyph name="bar" xMin="79" yMin="-145" xMax="176" yMax="779">
      <contour>
        <pt x="79" y="-141" on="1"/>
        <pt x="79" y="774" on="1"/>
        <pt x="98" y="779" on="0"/>
        <pt x="157" y="779" on="0"/>
        <pt x="176" y="774" on="1"/>
        <pt x="176" y="-141" on="1"/>
        <pt x="156" y="-145" on="0"/>
        <pt x="99" y="-145" on="0"/>
      </contour>
    </TTGlyph>
    <TTGlyph name="braceleft" xMin="38" yMin="-169" xMax="340" yMax="819">
      <contour>
        <pt x="42" y="360" on="1"/>
        <pt x="78" y="371" on="0"/>
        <pt x="124" y="434" on="0"/>
        <pt x="124" y="477" on="1"/>
        <pt x="124" y="647" on="1"/>
        <pt x="124" y="716" on="0"/>
        <pt x="202" y="800" on="0"/>
        <pt x="266" y="810" on="1"/>
        <pt x="318" y="819" on="1"/>
        <pt x="329" y="807" on="0"/>
        <pt x="340" y="763" on="0"/>
        <pt x="336" y="748" on="1"/>
        <pt x="287" y="732" on="1"/>
        <pt x="229" y="714" on="0"/>
        <pt x="229" y="646" on="1"/>
        <pt x="229" y="479" on="1"/>
        <pt x="229" y="431" on="0"/>
        <pt x="184" y="347" on="0"/>
        <pt x="146" y="329" on="1"/>
        <pt x="146" y="321" on="1"/>
        <pt x="184" y="304" on="0"/>
        <pt x="229" y="220" on="0"/>
        <pt x="229" y="172" on="1"/>
        <pt x="229" y="4" on="1"/>
        <pt x="229" y="-63" on="0"/>
        <pt x="287" y="-82" on="1"/>
        <pt x="336" y="-97" on="1"/>
        <pt x="340" y="-113" on="0"/>
        <pt x="329" y="-157" on="0"/>
        <pt x="318" y="-169" on="1"/>
        <pt x="266" y="-160" on="1"/>
        <pt x="201" y="-149" on="0"/>
        <pt x="124" y="-66" on="0"/>
        <pt x="124" y="3" on="1"/>
        <pt x="124" y="174" on="1"/>
        <pt x="124" y="217" on="0"/>
        <pt x="78" y="280" on="0"/>
        <pt x="42" y="291" on="1"/>
        <pt x="38" y="304" on="0"/>
        <pt x="38" y="347" on="0"/>
      </contour>
    </TTGlyph>
    <TTGlyph name="braceright" xMin="6" yMin="-169" xMax="309" yMax="819">
      <contour>
        <pt x="304" y="360" on="1"/>
        <pt x="309" y="347" on="0"/>
        <pt x="309" y="304" on="0"/>
        <pt x="304" y="291" on="1"/>
        <pt x="268" y="280" on="0"/>
        <pt x="222" y="216" on="0"/>
        <pt x="222" y="174" on="1"/>
        <pt x="222" y="3" on="1"/>
        <pt x="222" y="-66" on="0"/>
        <pt x="145" y="-149" on="0"/>
        <pt x="80" y="-160" on="1"/>
        <pt x="29" y="-169" on="1"/>
        <pt x="18" y="-157" on="0"/>
        <pt x="6" y="-112" on="0"/>
        <pt x="10" y="-97" on="1"/>
        <pt x="60" y="-82" on="1"/>
        <pt x="117" y="-63" on="0"/>
        <pt x="117" y="4" on="1"/>
        <pt x="117" y="172" on="1"/>
        <pt x="117" y="220" on="0"/>
        <pt x="163" y="304" on="0"/>
        <pt x="200" y="321" on="1"/>
        <pt x="200" y="329" on="1"/>
        <pt x="163" y="347" on="0"/>
        <pt x="117" y="431" on="0"/>
        <pt x="117" y="479" on="1"/>
        <pt x="117" y="646" on="1"/>
        <pt x="117" y="715" on="0"/>
        <pt x="60" y="732" on="1"/>
        <pt x="10" y="748" on="1"/>
        <pt x="6" y="763" on="0"/>
        <pt x="18" y="807" on="0"/>
        <pt x="29" y="819" on="1"/>
        <pt x="80" y="810" on="1"/>
        <pt x="144" y="800" on="0"/>
        <pt x="222" y="716" on="0"/>
        <pt x="222" y="647" on="1"/>
        <pt x="222" y="477" on="1"/>
        <pt x="222" y="434" on="0"/>
        <pt x="268" y="371" on="0"/>
      </contour>
    </TTGlyph>
    <TTGlyph name="bracketleft" xMin="99" yMin="-149" xMax="313" yMax="815">
      <contour>
        <pt x="309" y="-142" on="1"/>
        <pt x="106" y="-149" on="1"/>
        <pt x="99" y="-143" on="1"/>
        <pt x="99" y="809" on="1"/>
        <pt x="106" y="815" on="1"/>
        <pt x="309" y="808" on="1"/>
        <pt x="313" y="796" on="0"/>
        <pt x="313" y="760" on="0"/>
        <pt x="305" y="733" on="1"/>
        <pt x="203" y="730" on="1"/>
        <pt x="203" y="-64" on="1"/>
        <pt x="305" y="-67" on="1"/>
        <pt x="313" y="-94" on="0"/>
        <pt x="313" y="-130" on="0"/>
      </contour>
    </TTGlyph>
    <TTGlyph name="bracketright" xMin="31" yMin="-149" xMax="244" yMax="815">
      <contour>
        <pt x="237" y="-149" on="1"/>
        <pt x="35" y="-142" on="1"/>
        <pt x="31" y="-130" on="0"/>
        <pt x="31" y="-94" on="0"/>
        <pt x="39" y="-67" on="1"/>
        <pt x="141" y="-64" on="1"/>
        <pt x="141" y="730" on="1"/>
        <pt x="39" y="733" on="1"/>
        <pt x="31" y="760" on="0"/>
        <pt x="31" y="796" on="0"/>
        <pt x="35" y="808" on="1"/>
        <pt x="237" y="815" on="1"/>
        <pt x="244" y="809" on="1"/>
        <pt x="244" y="-143" on="1"/>
      </contour>
    </TTGlyph>
    <TTGlyph name="brokenbar" xMin="77" yMin="-145" xMax="173" yMax="779">
      <contour>
        <pt x="77" y="-141" on="1"/>
        <pt x="77" y="246" on="1"/>
        <pt x="94" y="251" on="0"/>
        <pt x="153" y="251" on="0"/>
        <pt x="173" y="246" on="1"/>
        <pt x="173" y="-141" on="1"/>
        <pt x="152" y="-145" on="0"/>
        <pt x="96" y="-145" on="0"/>
      </contour>
      <contour>
        <pt x="77" y="387" on="1"/>
        <pt x="77" y="774" on="1"/>
        <pt x="94" y="779" on="0"/>
        <pt x="153" y="779" on="0"/>
        <pt x="173" y="774" on="1"/>
        <pt x="173" y="387" on="1"/>
        <pt x="152" y="383" on="0"/>
        <pt x="96" y="383" on="0"/>
      </contour>
    </TTGlyph>
    <TTGlyph name="bullet" xMin="110" yMin="163" xMax="340" yMax="381">
      <contour>
        <pt x="125" y="357" on="1"/>
        <pt x="164" y="381" on="0"/>
        <pt x="226" y="381" on="1"/>
        <pt x="289" y="381" on="0"/>
        <pt x="325" y="357" on="1"/>
        <pt x="340" y="328" on="0"/>
        <pt x="340" y="272" on="1"/>
        <pt x="340" y="216" on="0"/>
        <pt x="325" y="186" on="1"/>
        <pt x="293" y="163" on="0"/>
        <pt x="228" y="163" on="1"/>
        <pt x="163" y="163" on="0"/>
        <pt x="125" y="186" on="1"/>
        <pt x="110" y="216" on="0"/>
        <pt x="110" y="272" on="1"/>
        <pt x="110" y="328" on="0"/>
      </contour>
    </TTGlyph>
    <TTGlyph name="c" xMin="44" yMin="-13" xMax="434" yMax="507">
      <contour>
        <pt x="339" y="303" on="1"/>
        <pt x="339" y="314" on="1"/>
        <pt x="339" y="427" on="0"/>
        <pt x="251" y="427" on="1"/>
        <pt x="203" y="427" on="0"/>
        <pt x="151" y="335" on="0"/>
        <pt x="151" y="244" on="1"/>
        <pt x="151" y="72" on="0"/>
        <pt x="264" y="72" on="1"/>
        <pt x="320" y="72" on="0"/>
        <pt x="385" y="122" on="1"/>
        <pt x="399" y="114" on="0"/>
        <pt x="425" y="78" on="0"/>
        <pt x="429" y="61" on="1"/>
        <pt x="355" y="-13" on="0"/>
        <pt x="250" y="-13" on="1"/>
        <pt x="197" y="-13" on="0"/>
        <pt x="120" y="26" on="0"/>
        <pt x="69" y="96" on="0"/>
        <pt x="44" y="194" on="0"/>
        <pt x="44" y="253" on="1"/>
        <pt x="44" y="314" on="0"/>
        <pt x="78" y="409" on="0"/>
        <pt x="135" y="473" on="0"/>
        <pt x="210" y="507" on="0"/>
        <pt x="252" y="507" on="1"/>
        <pt x="295" y="507" on="0"/>
        <pt x="362" y="481" on="0"/>
        <pt x="409" y="439" on="0"/>
        <pt x="434" y="384" on="0"/>
        <pt x="434" y="356" on="1"/>
        <pt x="434" y="299" on="0"/>
        <pt x="382" y="299" on="1"/>
        <pt x="356" y="299" on="0"/>
      </contour>
    </TTGlyph>
    <TTGlyph name="c.smcp" xMin="40" yMin="-13" xMax="504" yMax="559">
      <contour>
        <pt x="404" y="332" on="1"/>
        <pt x="404" y="474" on="0"/>
        <pt x="286" y="474" on="1"/>
        <pt x="214" y="474" on="0"/>
        <pt x="149" y="368" on="0"/>
        <pt x="149" y="261" on="1"/>
        <pt x="149" y="171" on="0"/>
        <pt x="228" y="76" on="0"/>
        <pt x="292" y="76" on="1"/>
        <pt x="327" y="76" on="0"/>
        <pt x="405" y="105" on="0"/>
        <pt x="447" y="136" on="1"/>
        <pt x="463" y="126" on="0"/>
        <pt x="493" y="86" on="0"/>
        <pt x="498" y="68" on="1"/>
        <pt x="406" y="-13" on="0"/>
        <pt x="276" y="-13" on="1"/>
        <pt x="222" y="-13" on="0"/>
        <pt x="135" y="25" on="0"/>
        <pt x="74" y="97" on="0"/>
        <pt x="40" y="203" on="0"/>
        <pt x="40" y="271" on="1"/>
        <pt x="40" y="343" on="0"/>
        <pt x="78" y="451" on="0"/>
        <pt x="145" y="523" on="0"/>
        <pt x="235" y="559" on="0"/>
        <pt x="287" y="559" on="1"/>
        <pt x="340" y="559" on="0"/>
        <pt x="421" y="529" on="0"/>
        <pt x="476" y="481" on="0"/>
        <pt x="504" y="421" on="0"/>
        <pt x="504" y="390" on="1"/>
        <pt x="504" y="327" on="0"/>
        <pt x="444" y="327" on="1"/>
        <pt x="429" y="327" on="0"/>
      </contour>
    </TTGlyph>
    <TTGlyph name="cacute" xMin="44" yMin="-13" xMax="434" yMax="739">
      <component glyphName="c" x="0" y="0" flags="0x204"/>
      <component glyphName="acute" x="53" y="0" flags="0x4"/>
    </TTGlyph>
    <TTGlyph name="cacute.smcp" xMin="40" yMin="-13" xMax="504" yMax="792">
      <component glyphName="c.smcp" x="0" y="0" flags="0x204"/>
      <component glyphName="acute" x="91" y="53" flags="0x4"/>
    </TTGlyph>
    <TTGlyph name="caron" xMin="55" yMin="542" xMax="347" yMax="733">
      <contour>
        <pt x="105" y="727" on="1"/>
        <pt x="198" y="636" on="1"/>
        <pt x="299" y="733" on="1"/>
        <pt x="329" y="723" on="0"/>
        <pt x="347" y="690" on="1"/>
        <pt x="240" y="556" on="1"/>
        <pt x="205" y="542" on="0"/>
        <pt x="153" y="555" on="1"/>
        <pt x="55" y="681" on="1"/>
        <pt x="72" y="715" on="0"/>
      </contour>
    </TTGlyph>
    <TTGlyph name="caron.alt" xMin="201" yMin="556" xMax="308" yMax="785">
      <contour>
        <pt x="201" y="566" on="1"/>
        <pt x="213" y="780" on="1"/>
        <pt x="233" y="785" on="0"/>
        <pt x="291" y="777" on="0"/>
        <pt x="308" y="765" on="1"/>
        <pt x="261" y="561" on="1"/>
        <pt x="247" y="556" on="0"/>
        <pt x="211" y="559" on="0"/>
      </contour>
    </TTGlyph>
    <TTGlyph name="caron.cap" xMin="39" yMin="732" xMax="358" yMax="900">
      <contour>
        <pt x="85" y="892" on="1"/>
        <pt x="197" y="818" on="1"/>
        <pt x="312" y="900" on="1"/>
        <pt x="326" y="895" on="0"/>
        <pt x="354" y="869" on="0"/>
        <pt x="358" y="855" on="1"/>
        <pt x="243" y="742" on="1"/>
        <pt x="195" y="732" on="0"/>
        <pt x="151" y="741" on="1"/>
        <pt x="39" y="847" on="1"/>
        <pt x="51" y="881" on="0"/>
      </contour>
    </TTGlyph>
    <TTGlyph name="ccaron" xMin="44" yMin="-13" xMax="434" yMax="733">
      <component glyphName="c" x="0" y="0" flags="0x204"/>
      <component glyphName="caron" x="51" y="0" flags="0x4"/>
    </TTGlyph>
    <TTGlyph name="ccaron.smcp" xMin="40" yMin="-13" xMax="504" yMax="786">
      <component glyphName="c.smcp" x="0" y="0" flags="0x204"/>
      <component glyphName="caron" x="90" y="53" flags="0x4"/>
    </TTGlyph>
    <TTGlyph name="ccedilla" xMin="44" yMin="-223" xMax="434" yMax="507">
      <contour>
        <pt x="195" y="-74" on="1"/>
        <pt x="201" y="-46" on="0"/>
        <pt x="216" y="-11" on="1"/>
        <pt x="174" y="-6" on="0"/>
        <pt x="110" y="36" on="0"/>
        <pt x="66" y="102" on="0"/>
        <pt x="44" y="189" on="0"/>
        <pt x="44" y="239" on="1"/>
        <pt x="44" y="307" on="0"/>
        <pt x="78" y="408" on="0"/>
        <pt x="135" y="474" on="0"/>
        <pt x="210" y="507" on="0"/>
        <pt x="252" y="507" on="1"/>
        <pt x="295" y="507" on="0"/>
        <pt x="362" y="481" on="0"/>
        <pt x="409" y="439" on="0"/>
        <pt x="434" y="384" on="0"/>
        <pt x="434" y="356" on="1"/>
        <pt x="434" y="299" on="0"/>
        <pt x="382" y="299" on="1"/>
        <pt x="356" y="299" on="0"/>
        <pt x="339" y="303" on="1"/>
        <pt x="339" y="314" on="1"/>
        <pt x="339" y="427" on="0"/>
        <pt x="251" y="427" on="1"/>
        <pt x="203" y="427" on="0"/>
        <pt x="151" y="335" on="0"/>
        <pt x="151" y="244" on="1"/>
        <pt x="151" y="72" on="0"/>
        <pt x="264" y="72" on="1"/>
        <pt x="320" y="72" on="0"/>
        <pt x="385" y="122" on="1"/>
        <pt x="399" y="114" on="0"/>
        <pt x="425" y="78" on="0"/>
        <pt x="429" y="61" on="1"/>
        <pt x="368" y="0" on="0"/>
        <pt x="280" y="-11" on="1"/>
        <pt x="270" y="-30" on="0"/>
        <pt x="269" y="-37" on="1"/>
        <pt x="311" y="-39" on="0"/>
        <pt x="362" y="-87" on="0"/>
        <pt x="362" y="-127" on="1"/>
        <pt x="362" y="-148" on="0"/>
        <pt x="343" y="-183" on="0"/>
        <pt x="311" y="-208" on="0"/>
        <pt x="268" y="-223" on="0"/>
        <pt x="244" y="-223" on="1"/>
        <pt x="195" y="-223" on="0"/>
        <pt x="163" y="-203" on="1"/>
        <pt x="165" y="-173" on="0"/>
        <pt x="184" y="-151" on="1"/>
        <pt x="206" y="-165" on="0"/>
        <pt x="230" y="-165" on="1"/>
        <pt x="256" y="-165" on="0"/>
        <pt x="278" y="-143" on="0"/>
        <pt x="278" y="-126" on="1"/>
        <pt x="278" y="-106" on="0"/>
        <pt x="251" y="-87" on="0"/>
        <pt x="235" y="-87" on="1"/>
        <pt x="224" y="-87" on="0"/>
        <pt x="212" y="-92" on="1"/>
        <pt x="198" y="-86" on="0"/>
      </contour>
    </TTGlyph>
    <TTGlyph name="ccedilla.smcp" xMin="40" yMin="-223" xMax="504" yMax="559">
      <contour>
        <pt x="231" y="-74" on="1"/>
        <pt x="237" y="-54" on="0"/>
        <pt x="247" y="-23" on="0"/>
        <pt x="252" y="-12" on="1"/>
        <pt x="195" y="-8" on="0"/>
        <pt x="115" y="41" on="0"/>
        <pt x="64" y="118" on="0"/>
        <pt x="40" y="217" on="0"/>
        <pt x="40" y="271" on="1"/>
        <pt x="40" y="343" on="0"/>
        <pt x="78" y="451" on="0"/>
        <pt x="145" y="523" on="0"/>
        <pt x="235" y="559" on="0"/>
        <pt x="287" y="559" on="1"/>
        <pt x="340" y="559" on="0"/>
        <pt x="421" y="529" on="0"/>
        <pt x="476" y="481" on="0"/>
        <pt x="504" y="421" on="0"/>
        <pt x="504" y="390" on="1"/>
        <pt x="504" y="327" on="0"/>
        <pt x="444" y="327" on="1"/>
        <pt x="429" y="327" on="0"/>
        <pt x="404" y="332" on="1"/>
        <pt x="404" y="474" on="0"/>
        <pt x="286" y="474" on="1"/>
        <pt x="214" y="474" on="0"/>
        <pt x="149" y="368" on="0"/>
        <pt x="149" y="261" on="1"/>
        <pt x="149" y="171" on="0"/>
        <pt x="228" y="76" on="0"/>
        <pt x="292" y="76" on="1"/>
        <pt x="327" y="76" on="0"/>
        <pt x="405" y="105" on="0"/>
        <pt x="447" y="136" on="1"/>
        <pt x="463" y="126" on="0"/>
        <pt x="493" y="86" on="0"/>
        <pt x="498" y="68" on="1"/>
        <pt x="424" y="3" on="0"/>
        <pt x="316" y="-11" on="1"/>
        <pt x="306" y="-30" on="0"/>
        <pt x="305" y="-37" on="1"/>
        <pt x="347" y="-39" on="0"/>
        <pt x="398" y="-87" on="0"/>
        <pt x="398" y="-127" on="1"/>
        <pt x="398" y="-148" on="0"/>
        <pt x="379" y="-183" on="0"/>
        <pt x="347" y="-208" on="0"/>
        <pt x="304" y="-223" on="0"/>
        <pt x="280" y="-223" on="1"/>
        <pt x="231" y="-223" on="0"/>
        <pt x="199" y="-203" on="1"/>
        <pt x="200" y="-177" on="0"/>
        <pt x="220" y="-151" on="1"/>
        <pt x="242" y="-165" on="0"/>
        <pt x="266" y="-165" on="1"/>
        <pt x="292" y="-165" on="0"/>
        <pt x="315" y="-143" on="0"/>
        <pt x="315" y="-126" on="1"/>
        <pt x="315" y="-106" on="0"/>
        <pt x="287" y="-87" on="0"/>
        <pt x="271" y="-87" on="1"/>
        <pt x="259" y="-87" on="0"/>
        <pt x="249" y="-92" on="1"/>
        <pt x="237" y="-88" on="0"/>
      </contour>
    </TTGlyph>
    <TTGlyph name="cedilla" xMin="113" yMin="-223" xMax="312" yMax="0">
      <contour>
        <pt x="145" y="-74" on="1"/>
        <pt x="152" y="-52" on="0"/>
        <pt x="164" y="-15" on="0"/>
        <pt x="171" y="0" on="1"/>
        <pt x="236" y="0" on="1"/>
        <pt x="229" y="-14" on="0"/>
        <pt x="221" y="-32" on="0"/>
        <pt x="219" y="-37" on="1"/>
        <pt x="261" y="-39" on="0"/>
        <pt x="312" y="-87" on="0"/>
        <pt x="312" y="-127" on="1"/>
        <pt x="312" y="-148" on="0"/>
        <pt x="293" y="-183" on="0"/>
        <pt x="261" y="-208" on="0"/>
        <pt x="218" y="-223" on="0"/>
        <pt x="194" y="-223" on="1"/>
        <pt x="145" y="-223" on="0"/>
        <pt x="113" y="-203" on="1"/>
        <pt x="114" y="-177" on="0"/>
        <pt x="134" y="-151" on="1"/>
        <pt x="146" y="-159" on="0"/>
        <pt x="171" y="-165" on="0"/>
        <pt x="182" y="-165" on="1"/>
        <pt x="202" y="-165" on="0"/>
        <pt x="229" y="-146" on="0"/>
        <pt x="229" y="-131" on="1"/>
        <pt x="229" y="-107" on="0"/>
        <pt x="204" y="-88" on="0"/>
        <pt x="186" y="-88" on="1"/>
        <pt x="172" y="-88" on="0"/>
        <pt x="163" y="-92" on="1"/>
        <pt x="151" y="-88" on="0"/>
      </contour>
    </TTGlyph>
    <TTGlyph name="cent" xMin="42" yMin="-34" xMax="430" yMax="684">
      <contour>
        <pt x="205" y="-31" on="1"/>
        <pt x="205" y="68" on="1"/>
        <pt x="162" y="75" on="0"/>
        <pt x="100" y="121" on="0"/>
        <pt x="61" y="191" on="0"/>
        <pt x="42" y="280" on="0"/>
        <pt x="42" y="331" on="1"/>
        <pt x="42" y="437" on="0"/>
        <pt x="135" y="565" on="0"/>
        <pt x="208" y="581" on="1"/>
        <pt x="208" y="681" on="1"/>
        <pt x="223" y="684" on="0"/>
        <pt x="248" y="684" on="1"/>
        <pt x="273" y="684" on="0"/>
        <pt x="291" y="681" on="1"/>
        <pt x="291" y="583" on="1"/>
        <pt x="324" y="578" on="0"/>
        <pt x="376" y="548" on="0"/>
        <pt x="411" y="508" on="0"/>
        <pt x="430" y="461" on="0"/>
        <pt x="430" y="439" on="1"/>
        <pt x="430" y="378" on="0"/>
        <pt x="375" y="378" on="1"/>
        <pt x="366" y="378" on="0"/>
        <pt x="346" y="381" on="0"/>
        <pt x="335" y="383" on="1"/>
        <pt x="335" y="397" on="1"/>
        <pt x="335" y="443" on="0"/>
        <pt x="294" y="506" on="0"/>
        <pt x="247" y="506" on="1"/>
        <pt x="150" y="506" on="0"/>
        <pt x="150" y="328" on="1"/>
        <pt x="150" y="151" on="0"/>
        <pt x="262" y="151" on="1"/>
        <pt x="321" y="151" on="0"/>
        <pt x="381" y="202" on="1"/>
        <pt x="415" y="181" on="0"/>
        <pt x="427" y="144" on="1"/>
        <pt x="373" y="83" on="0"/>
        <pt x="288" y="68" on="1"/>
        <pt x="288" y="-31" on="1"/>
        <pt x="271" y="-34" on="0"/>
        <pt x="246" y="-34" on="1"/>
        <pt x="220" y="-34" on="0"/>
      </contour>
    </TTGlyph>
    <TTGlyph name="cent.smcp" xMin="38" yMin="-33" xMax="387" yMax="581">
      <contour>
        <pt x="181" y="-29" on="1"/>
        <pt x="181" y="50" on="1"/>
        <pt x="106" y="65" on="0"/>
        <pt x="38" y="189" on="0"/>
        <pt x="38" y="279" on="1"/>
        <pt x="38" y="370" on="0"/>
        <pt x="120" y="482" on="0"/>
        <pt x="184" y="496" on="1"/>
        <pt x="184" y="577" on="1"/>
        <pt x="190" y="579" on="0"/>
        <pt x="212" y="581" on="0"/>
        <pt x="223" y="581" on="1"/>
        <pt x="234" y="581" on="0"/>
        <pt x="255" y="579" on="0"/>
        <pt x="262" y="577" on="1"/>
        <pt x="262" y="498" on="1"/>
        <pt x="322" y="489" on="0"/>
        <pt x="387" y="417" on="0"/>
        <pt x="387" y="371" on="1"/>
        <pt x="387" y="312" on="0"/>
        <pt x="333" y="312" on="1"/>
        <pt x="329" y="312" on="0"/>
        <pt x="316" y="313" on="0"/>
        <pt x="304" y="314" on="0"/>
        <pt x="295" y="318" on="0"/>
        <pt x="295" y="321" on="1"/>
        <pt x="295" y="422" on="0"/>
        <pt x="222" y="422" on="1"/>
        <pt x="178" y="422" on="0"/>
        <pt x="139" y="342" on="0"/>
        <pt x="139" y="261" on="1"/>
        <pt x="139" y="195" on="0"/>
        <pt x="193" y="128" on="0"/>
        <pt x="238" y="128" on="1"/>
        <pt x="261" y="128" on="0"/>
        <pt x="313" y="146" on="0"/>
        <pt x="342" y="166" on="1"/>
        <pt x="373" y="147" on="0"/>
        <pt x="385" y="109" on="1"/>
        <pt x="335" y="59" on="0"/>
        <pt x="260" y="49" on="1"/>
        <pt x="260" y="-29" on="1"/>
        <pt x="253" y="-31" on="0"/>
        <pt x="232" y="-33" on="0"/>
        <pt x="220" y="-33" on="1"/>
        <pt x="209" y="-33" on="0"/>
        <pt x="187" y="-31" on="0"/>
      </contour>
    </TTGlyph>
    <TTGlyph name="circumflex" xMin="53" yMin="541" xMax="344" yMax="730">
      <contour>
        <pt x="294" y="546" on="1"/>
        <pt x="201" y="637" on="1"/>
        <pt x="101" y="541" on="1"/>
        <pt x="70" y="553" on="0"/>
        <pt x="53" y="584" on="1"/>
        <pt x="159" y="717" on="1"/>
        <pt x="197" y="730" on="0"/>
        <pt x="246" y="718" on="1"/>
        <pt x="344" y="592" on="1"/>
        <pt x="329" y="559" on="0"/>
      </contour>
    </TTGlyph>
    <TTGlyph name="circumflex.cap" xMin="38" yMin="729" xMax="356" yMax="897">
      <contour>
        <pt x="311" y="737" on="1"/>
        <pt x="198" y="812" on="1"/>
        <pt x="83" y="729" on="1"/>
        <pt x="70" y="734" on="0"/>
        <pt x="42" y="761" on="0"/>
        <pt x="38" y="775" on="1"/>
        <pt x="152" y="888" on="1"/>
        <pt x="199" y="897" on="0"/>
        <pt x="244" y="888" on="1"/>
        <pt x="356" y="782" on="1"/>
        <pt x="351" y="766" on="0"/>
        <pt x="324" y="741" on="0"/>
      </contour>
    </TTGlyph>
    <TTGlyph name="colon" xMin="64" yMin="-8" xMax="205" yMax="447">
      <contour>
        <pt x="73" y="104" on="1"/>
        <pt x="99" y="118" on="0"/>
        <pt x="135" y="118" on="1"/>
        <pt x="152" y="118" on="0"/>
        <pt x="178" y="113" on="0"/>
        <pt x="198" y="104" on="0"/>
        <pt x="205" y="77" on="0"/>
        <pt x="205" y="55" on="1"/>
        <pt x="205" y="34" on="0"/>
        <pt x="198" y="5" on="0"/>
        <pt x="182" y="-3" on="0"/>
        <pt x="156" y="-8" on="0"/>
        <pt x="136" y="-8" on="1"/>
        <pt x="117" y="-8" on="0"/>
        <pt x="90" y="-3" on="0"/>
        <pt x="71" y="4" on="0"/>
        <pt x="64" y="33" on="0"/>
        <pt x="64" y="55" on="1"/>
        <pt x="64" y="87" on="0"/>
      </contour>
      <contour>
        <pt x="73" y="433" on="1"/>
        <pt x="99" y="447" on="0"/>
        <pt x="135" y="447" on="1"/>
        <pt x="152" y="447" on="0"/>
        <pt x="178" y="442" on="0"/>
        <pt x="198" y="433" on="0"/>
        <pt x="205" y="406" on="0"/>
        <pt x="205" y="384" on="1"/>
        <pt x="205" y="363" on="0"/>
        <pt x="199" y="335" on="0"/>
        <pt x="182" y="325" on="0"/>
        <pt x="156" y="321" on="0"/>
        <pt x="136" y="321" on="1"/>
        <pt x="117" y="321" on="0"/>
        <pt x="90" y="326" on="0"/>
        <pt x="71" y="333" on="0"/>
        <pt x="64" y="362" on="0"/>
        <pt x="64" y="384" on="1"/>
        <pt x="64" y="416" on="0"/>
      </contour>
    </TTGlyph>
    <TTGlyph name="comma" xMin="33" yMin="-161" xMax="208" yMax="117">
      <contour>
        <pt x="197" y="104" on="1"/>
        <pt x="208" y="74" on="0"/>
        <pt x="208" y="38" on="1"/>
        <pt x="208" y="-28" on="0"/>
        <pt x="132" y="-136" on="0"/>
        <pt x="60" y="-161" on="1"/>
        <pt x="46" y="-154" on="0"/>
        <pt x="33" y="-126" on="0"/>
        <pt x="33" y="-109" on="1"/>
        <pt x="68" y="-94" on="0"/>
        <pt x="114" y="-40" on="0"/>
        <pt x="116" y="-9" on="1"/>
        <pt x="97" y="-4" on="0"/>
        <pt x="75" y="3" on="0"/>
        <pt x="70" y="20" on="0"/>
        <pt x="67" y="41" on="0"/>
        <pt x="67" y="56" on="1"/>
        <pt x="67" y="79" on="0"/>
        <pt x="74" y="105" on="0"/>
        <pt x="94" y="112" on="0"/>
        <pt x="120" y="117" on="0"/>
        <pt x="137" y="117" on="1"/>
        <pt x="178" y="117" on="0"/>
      </contour>
    </TTGlyph>
    <TTGlyph name="commaaccent" xMin="106" yMin="-263" xMax="264" yMax="-50">
      <contour>
        <pt x="254" y="-58" on="1"/>
        <pt x="264" y="-82" on="0"/>
        <pt x="264" y="-110" on="1"/>
        <pt x="264" y="-160" on="0"/>
        <pt x="198" y="-241" on="0"/>
        <pt x="140" y="-263" on="1"/>
        <pt x="113" y="-255" on="0"/>
        <pt x="106" y="-219" on="1"/>
        <pt x="166" y="-180" on="0"/>
        <pt x="166" y="-123" on="1"/>
        <pt x="166" y="-95" on="0"/>
        <pt x="153" y="-71" on="1"/>
        <pt x="173" y="-58" on="0"/>
        <pt x="231" y="-50" on="0"/>
      </contour>
    </TTGlyph>
    <TTGlyph name="commaaccent.cap" xMin="106" yMin="-263" xMax="264" yMax="-50">
      <contour>
        <pt x="254" y="-58" on="1"/>
        <pt x="264" y="-82" on="0"/>
        <pt x="264" y="-110" on="1"/>
        <pt x="264" y="-160" on="0"/>
        <pt x="198" y="-241" on="0"/>
        <pt x="140" y="-263" on="1"/>
        <pt x="113" y="-255" on="0"/>
        <pt x="106" y="-219" on="1"/>
        <pt x="166" y="-180" on="0"/>
        <pt x="166" y="-123" on="1"/>
        <pt x="166" y="-95" on="0"/>
        <pt x="153" y="-71" on="1"/>
        <pt x="173" y="-58" on="0"/>
        <pt x="231" y="-50" on="0"/>
      </contour>
    </TTGlyph>
    <TTGlyph name="copyright" xMin="40" yMin="-19" xMax="762" yMax="702">
      <contour>
        <pt x="144" y="84" on="1"/>
        <pt x="40" y="188" on="0"/>
        <pt x="40" y="341" on="1"/>
        <pt x="40" y="417" on="0"/>
        <pt x="96" y="549" on="0"/>
        <pt x="193" y="646" on="0"/>
        <pt x="325" y="702" on="0"/>
        <pt x="400" y="702" on="1"/>
        <pt x="476" y="702" on="0"/>
        <pt x="608" y="646" on="0"/>
        <pt x="706" y="548" on="0"/>
        <pt x="762" y="417" on="0"/>
        <pt x="762" y="341" on="1"/>
        <pt x="762" y="264" on="0"/>
        <pt x="706" y="133" on="0"/>
        <pt x="609" y="36" on="0"/>
        <pt x="477" y="-19" on="0"/>
        <pt x="401" y="-19" on="1"/>
        <pt x="247" y="-19" on="0"/>
      </contour>
      <contour>
        <pt x="205" y="545" on="1"/>
        <pt x="127" y="461" on="0"/>
        <pt x="127" y="341" on="1"/>
        <pt x="127" y="282" on="0"/>
        <pt x="168" y="178" on="0"/>
        <pt x="241" y="100" on="0"/>
        <pt x="341" y="54" on="0"/>
        <pt x="401" y="54" on="1"/>
        <pt x="461" y="54" on="0"/>
        <pt x="561" y="100" on="0"/>
        <pt x="635" y="178" on="0"/>
        <pt x="676" y="282" on="0"/>
        <pt x="676" y="341" on="1"/>
        <pt x="676" y="400" on="0"/>
        <pt x="634" y="505" on="0"/>
        <pt x="561" y="583" on="0"/>
        <pt x="460" y="629" on="0"/>
        <pt x="401" y="629" on="1"/>
        <pt x="283" y="629" on="0"/>
      </contour>
      <contour>
        <pt x="472" y="380" on="1"/>
        <pt x="472" y="390" on="1"/>
        <pt x="472" y="423" on="0"/>
        <pt x="438" y="474" on="0"/>
        <pt x="400" y="474" on="1"/>
        <pt x="361" y="474" on="0"/>
        <pt x="317" y="406" on="0"/>
        <pt x="317" y="342" on="1"/>
        <pt x="317" y="279" on="0"/>
        <pt x="366" y="212" on="0"/>
        <pt x="411" y="212" on="1"/>
        <pt x="434" y="212" on="0"/>
        <pt x="485" y="232" on="0"/>
        <pt x="511" y="253" on="1"/>
        <pt x="537" y="240" on="0"/>
        <pt x="548" y="203" on="1"/>
        <pt x="522" y="177" on="0"/>
        <pt x="440" y="143" on="0"/>
        <pt x="400" y="143" on="1"/>
        <pt x="357" y="143" on="0"/>
        <pt x="293" y="172" on="0"/>
        <pt x="250" y="226" on="0"/>
        <pt x="228" y="301" on="0"/>
        <pt x="228" y="346" on="1"/>
        <pt x="228" y="392" on="0"/>
        <pt x="256" y="465" on="0"/>
        <pt x="304" y="515" on="0"/>
        <pt x="367" y="541" on="0"/>
        <pt x="402" y="541" on="1"/>
        <pt x="437" y="541" on="0"/>
        <pt x="492" y="520" on="0"/>
        <pt x="531" y="485" on="0"/>
        <pt x="552" y="443" on="0"/>
        <pt x="552" y="422" on="1"/>
        <pt x="552" y="375" on="0"/>
        <pt x="506" y="375" on="1"/>
        <pt x="489" y="375" on="0"/>
      </contour>
    </TTGlyph>
    <TTGlyph name="currency" xMin="32" yMin="79" xMax="543" yMax="590">
      <contour>
        <pt x="103" y="213" on="1"/>
        <pt x="68" y="266" on="0"/>
        <pt x="68" y="333" on="1"/>
        <pt x="68" y="403" on="0"/>
        <pt x="102" y="455" on="1"/>
        <pt x="32" y="532" on="1"/>
        <pt x="50" y="565" on="0"/>
        <pt x="88" y="589" on="1"/>
        <pt x="166" y="517" on="1"/>
        <pt x="218" y="550" on="0"/>
        <pt x="286" y="550" on="1"/>
        <pt x="354" y="550" on="0"/>
        <pt x="407" y="517" on="1"/>
        <pt x="486" y="590" on="1"/>
        <pt x="521" y="570" on="0"/>
        <pt x="543" y="534" on="1"/>
        <pt x="471" y="456" on="1"/>
        <pt x="506" y="401" on="0"/>
        <pt x="506" y="334" on="1"/>
        <pt x="506" y="302" on="0"/>
        <pt x="488" y="240" on="0"/>
        <pt x="471" y="213" on="1"/>
        <pt x="542" y="136" on="1"/>
        <pt x="524" y="103" on="0"/>
        <pt x="486" y="79" on="1"/>
        <pt x="406" y="152" on="1"/>
        <pt x="356" y="120" on="0"/>
        <pt x="287" y="120" on="1"/>
        <pt x="220" y="120" on="0"/>
        <pt x="167" y="152" on="1"/>
        <pt x="88" y="80" on="1"/>
        <pt x="52" y="101" on="0"/>
        <pt x="32" y="136" on="1"/>
      </contour>
      <contour>
        <pt x="287" y="471" on="1"/>
        <pt x="233" y="471" on="0"/>
        <pt x="173" y="392" on="0"/>
        <pt x="173" y="334" on="1"/>
        <pt x="173" y="305" on="0"/>
        <pt x="189" y="256" on="0"/>
        <pt x="218" y="219" on="0"/>
        <pt x="260" y="198" on="0"/>
        <pt x="287" y="198" on="1"/>
        <pt x="314" y="198" on="0"/>
        <pt x="356" y="219" on="0"/>
        <pt x="386" y="256" on="0"/>
        <pt x="402" y="305" on="0"/>
        <pt x="402" y="334" on="1"/>
        <pt x="402" y="392" on="0"/>
        <pt x="341" y="471" on="0"/>
      </contour>
    </TTGlyph>
    <TTGlyph name="currency.smcp" xMin="18" yMin="50" xMax="449" yMax="484">
      <contour>
        <pt x="76" y="170" on="1"/>
        <pt x="49" y="213" on="0"/>
        <pt x="49" y="266" on="1"/>
        <pt x="49" y="292" on="0"/>
        <pt x="61" y="341" on="0"/>
        <pt x="75" y="363" on="1"/>
        <pt x="18" y="427" on="1"/>
        <pt x="34" y="458" on="0"/>
        <pt x="73" y="482" on="1"/>
        <pt x="138" y="423" on="1"/>
        <pt x="158" y="434" on="0"/>
        <pt x="207" y="446" on="0"/>
        <pt x="232" y="446" on="1"/>
        <pt x="284" y="446" on="0"/>
        <pt x="327" y="423" on="1"/>
        <pt x="393" y="484" on="1"/>
        <pt x="426" y="465" on="0"/>
        <pt x="449" y="429" on="1"/>
        <pt x="390" y="362" on="1"/>
        <pt x="416" y="318" on="0"/>
        <pt x="416" y="266" on="1"/>
        <pt x="416" y="214" on="0"/>
        <pt x="389" y="169" on="1"/>
        <pt x="447" y="106" on="1"/>
        <pt x="439" y="90" on="0"/>
        <pt x="411" y="63" on="0"/>
        <pt x="392" y="50" on="1"/>
        <pt x="326" y="111" on="1"/>
        <pt x="305" y="100" on="0"/>
        <pt x="257" y="89" on="0"/>
        <pt x="232" y="89" on="1"/>
        <pt x="208" y="89" on="0"/>
        <pt x="160" y="100" on="0"/>
        <pt x="139" y="111" on="1"/>
        <pt x="73" y="52" on="1"/>
        <pt x="40" y="69" on="0"/>
        <pt x="18" y="106" on="1"/>
      </contour>
      <contour>
        <pt x="170" y="342" on="1"/>
        <pt x="148" y="313" on="0"/>
        <pt x="148" y="267" on="1"/>
        <pt x="148" y="223" on="0"/>
        <pt x="190" y="163" on="0"/>
        <pt x="232" y="163" on="1"/>
        <pt x="274" y="163" on="0"/>
        <pt x="318" y="223" on="0"/>
        <pt x="318" y="267" on="1"/>
        <pt x="318" y="312" on="0"/>
        <pt x="272" y="373" on="0"/>
        <pt x="232" y="373" on="1"/>
        <pt x="192" y="373" on="0"/>
      </contour>
    </TTGlyph>
    <TTGlyph name="d" xMin="44" yMin="-13" xMax="478" yMax="735">
      <contour>
        <pt x="236" y="502" on="1"/>
        <pt x="290" y="502" on="0"/>
        <pt x="349" y="469" on="1"/>
        <pt x="349" y="729" on="1"/>
        <pt x="356" y="735" on="1"/>
        <pt x="395" y="735" on="1"/>
        <pt x="426" y="735" on="0"/>
        <pt x="450" y="705" on="0"/>
        <pt x="450" y="669" on="1"/>
        <pt x="450" y="141" on="1"/>
        <pt x="450" y="71" on="0"/>
        <pt x="478" y="46" on="1"/>
        <pt x="474" y="32" on="0"/>
        <pt x="452" y="0" on="0"/>
        <pt x="440" y="-7" on="1"/>
        <pt x="383" y="4" on="0"/>
        <pt x="361" y="55" on="1"/>
        <pt x="302" y="-13" on="0"/>
        <pt x="217" y="-13" on="1"/>
        <pt x="132" y="-13" on="0"/>
        <pt x="44" y="124" on="0"/>
        <pt x="44" y="246" on="1"/>
        <pt x="44" y="307" on="0"/>
        <pt x="75" y="402" on="0"/>
        <pt x="127" y="468" on="0"/>
        <pt x="197" y="502" on="0"/>
      </contour>
      <contour>
        <pt x="240" y="73" on="1"/>
        <pt x="305" y="73" on="0"/>
        <pt x="349" y="136" on="1"/>
        <pt x="349" y="384" on="1"/>
        <pt x="293" y="420" on="0"/>
        <pt x="252" y="420" on="1"/>
        <pt x="207" y="420" on="0"/>
        <pt x="149" y="330" on="0"/>
        <pt x="149" y="242" on="1"/>
        <pt x="149" y="155" on="0"/>
        <pt x="201" y="73" on="0"/>
      </contour>
    </TTGlyph>
    <TTGlyph name="d.smcp" xMin="84" yMin="-3" xMax="541" yMax="549">
      <contour>
        <pt x="89" y="0" on="1"/>
        <pt x="84" y="5" on="1"/>
        <pt x="84" y="541" on="1"/>
        <pt x="89" y="546" on="1"/>
        <pt x="206" y="549" on="0"/>
        <pt x="297" y="549" on="1"/>
        <pt x="368" y="549" on="0"/>
        <pt x="462" y="504" on="0"/>
        <pt x="518" y="428" on="0"/>
        <pt x="541" y="327" on="0"/>
        <pt x="541" y="272" on="1"/>
        <pt x="541" y="216" on="0"/>
        <pt x="518" y="116" on="0"/>
        <pt x="463" y="41" on="0"/>
        <pt x="368" y="-3" on="0"/>
        <pt x="296" y="-3" on="1"/>
        <pt x="204" y="-3" on="0"/>
      </contour>
      <contour>
        <pt x="189" y="78" on="1"/>
        <pt x="283" y="79" on="1"/>
        <pt x="358" y="80" on="0"/>
        <pt x="433" y="174" on="0"/>
        <pt x="433" y="272" on="1"/>
        <pt x="433" y="370" on="0"/>
        <pt x="358" y="465" on="0"/>
        <pt x="283" y="466" on="1"/>
        <pt x="189" y="467" on="1"/>
      </contour>
    </TTGlyph>
    <TTGlyph name="dcaron" xMin="44" yMin="-13" xMax="619" yMax="785">
      <component glyphName="d" x="0" y="0" flags="0x4"/>
      <component glyphName="caron.alt" x="311" y="0" flags="0x4"/>
    </TTGlyph>
    <TTGlyph name="dcaron.smcp" xMin="84" yMin="-3" xMax="541" yMax="786">
      <component glyphName="d.smcp" x="0" y="0" flags="0x204"/>
      <component glyphName="caron" x="79" y="53" flags="0x4"/>
    </TTGlyph>
    <TTGlyph name="degree" xMin="18" yMin="378" xMax="309" yMax="672">
      <contour>
        <pt x="163" y="378" on="1"/>
        <pt x="132" y="378" on="0"/>
        <pt x="79" y="400" on="0"/>
        <pt x="40" y="439" on="0"/>
        <pt x="18" y="492" on="0"/>
        <pt x="18" y="524" on="1"/>
        <pt x="18" y="556" on="0"/>
        <pt x="41" y="611" on="0"/>
        <pt x="80" y="650" on="0"/>
        <pt x="133" y="672" on="0"/>
        <pt x="163" y="672" on="1"/>
        <pt x="194" y="672" on="0"/>
        <pt x="248" y="649" on="0"/>
        <pt x="287" y="610" on="0"/>
        <pt x="309" y="555" on="0"/>
        <pt x="309" y="524" on="1"/>
        <pt x="309" y="493" on="0"/>
        <pt x="287" y="440" on="0"/>
        <pt x="248" y="401" on="0"/>
        <pt x="195" y="378" on="0"/>
      </contour>
      <contour>
        <pt x="115" y="580" on="1"/>
        <pt x="106" y="569" on="0"/>
        <pt x="97" y="540" on="0"/>
        <pt x="97" y="525" on="1"/>
        <pt x="97" y="492" on="0"/>
        <pt x="132" y="448" on="0"/>
        <pt x="163" y="448" on="1"/>
        <pt x="195" y="448" on="0"/>
        <pt x="230" y="492" on="0"/>
        <pt x="230" y="524" on="1"/>
        <pt x="230" y="557" on="0"/>
        <pt x="193" y="601" on="0"/>
        <pt x="163" y="601" on="1"/>
        <pt x="149" y="601" on="0"/>
        <pt x="124" y="591" on="0"/>
      </contour>
    </TTGlyph>
    <TTGlyph name="dieresis" xMin="50" yMin="561" xMax="348" yMax="664">
      <contour>
        <pt x="244" y="573" on="1"/>
        <pt x="239" y="582" on="0"/>
        <pt x="236" y="602" on="0"/>
        <pt x="236" y="612" on="1"/>
        <pt x="236" y="644" on="0"/>
        <pt x="260" y="664" on="0"/>
        <pt x="292" y="664" on="1"/>
        <pt x="321" y="664" on="0"/>
        <pt x="348" y="648" on="0"/>
        <pt x="348" y="612" on="1"/>
        <pt x="348" y="579" on="0"/>
        <pt x="325" y="561" on="0"/>
        <pt x="293" y="561" on="1"/>
        <pt x="263" y="561" on="0"/>
      </contour>
      <contour>
        <pt x="58" y="573" on="1"/>
        <pt x="53" y="581" on="0"/>
        <pt x="50" y="601" on="0"/>
        <pt x="50" y="612" on="1"/>
        <pt x="50" y="645" on="0"/>
        <pt x="80" y="664" on="0"/>
        <pt x="106" y="664" on="1"/>
        <pt x="137" y="664" on="0"/>
        <pt x="162" y="644" on="0"/>
        <pt x="162" y="612" on="1"/>
        <pt x="162" y="580" on="0"/>
        <pt x="137" y="561" on="0"/>
        <pt x="105" y="561" on="1"/>
        <pt x="74" y="561" on="0"/>
      </contour>
    </TTGlyph>
    <TTGlyph name="dieresis.cap" xMin="36" yMin="736" xMax="362" yMax="842">
      <contour>
        <pt x="256" y="830" on="1"/>
        <pt x="274" y="842" on="0"/>
        <pt x="303" y="842" on="1"/>
        <pt x="331" y="842" on="0"/>
        <pt x="362" y="826" on="0"/>
        <pt x="362" y="789" on="1"/>
        <pt x="362" y="756" on="0"/>
        <pt x="340" y="736" on="0"/>
        <pt x="303" y="736" on="1"/>
        <pt x="268" y="736" on="0"/>
        <pt x="246" y="759" on="0"/>
        <pt x="246" y="789" on="1"/>
        <pt x="246" y="800" on="0"/>
        <pt x="251" y="822" on="0"/>
      </contour>
      <contour>
        <pt x="45" y="830" on="1"/>
        <pt x="54" y="836" on="0"/>
        <pt x="79" y="842" on="0"/>
        <pt x="93" y="842" on="1"/>
        <pt x="120" y="842" on="0"/>
        <pt x="152" y="825" on="0"/>
        <pt x="152" y="789" on="1"/>
        <pt x="152" y="756" on="0"/>
        <pt x="128" y="736" on="0"/>
        <pt x="93" y="736" on="1"/>
        <pt x="55" y="736" on="0"/>
        <pt x="36" y="763" on="0"/>
        <pt x="36" y="789" on="1"/>
        <pt x="36" y="812" on="0"/>
      </contour>
    </TTGlyph>
    <TTGlyph name="divide" xMin="52" yMin="60" xMax="478" yMax="526">
      <contour>
        <pt x="213" y="429" on="1"/>
        <pt x="204" y="447" on="0"/>
        <pt x="204" y="470" on="1"/>
        <pt x="204" y="493" on="0"/>
        <pt x="213" y="514" on="1"/>
        <pt x="234" y="526" on="0"/>
        <pt x="266" y="526" on="1"/>
        <pt x="284" y="526" on="0"/>
        <pt x="308" y="520" on="0"/>
        <pt x="321" y="510" on="0"/>
        <pt x="326" y="488" on="0"/>
        <pt x="326" y="470" on="1"/>
        <pt x="323" y="432" on="0"/>
        <pt x="303" y="419" on="0"/>
        <pt x="265" y="417" on="1"/>
        <pt x="229" y="417" on="0"/>
      </contour>
      <contour>
        <pt x="213" y="72" on="1"/>
        <pt x="204" y="91" on="0"/>
        <pt x="204" y="115" on="1"/>
        <pt x="204" y="133" on="0"/>
        <pt x="213" y="157" on="0"/>
        <pt x="228" y="165" on="0"/>
        <pt x="251" y="169" on="0"/>
        <pt x="266" y="169" on="1"/>
        <pt x="298" y="167" on="0"/>
        <pt x="324" y="156" on="0"/>
        <pt x="326" y="115" on="1"/>
        <pt x="326" y="103" on="0"/>
        <pt x="322" y="82" on="0"/>
        <pt x="317" y="68" on="0"/>
        <pt x="287" y="60" on="0"/>
        <pt x="266" y="60" on="1"/>
        <pt x="232" y="60" on="0"/>
      </contour>
      <contour>
        <pt x="474" y="250" on="1"/>
        <pt x="56" y="250" on="1"/>
        <pt x="54" y="258" on="0"/>
        <pt x="52" y="281" on="0"/>
        <pt x="52" y="293" on="1"/>
        <pt x="52" y="319" on="0"/>
        <pt x="56" y="339" on="1"/>
        <pt x="474" y="339" on="1"/>
        <pt x="478" y="319" on="0"/>
        <pt x="478" y="293" on="1"/>
        <pt x="478" y="281" on="0"/>
        <pt x="476" y="258" on="0"/>
      </contour>
    </TTGlyph>
    <TTGlyph name="dollar" xMin="33" yMin="-42" xMax="460" yMax="692">
      <contour>
        <pt x="33" y="98" on="1"/>
        <pt x="34" y="119" on="0"/>
        <pt x="58" y="168" on="0"/>
        <pt x="74" y="178" on="1"/>
        <pt x="175" y="122" on="0"/>
        <pt x="255" y="122" on="1"/>
        <pt x="297" y="122" on="0"/>
        <pt x="352" y="157" on="0"/>
        <pt x="352" y="189" on="1"/>
        <pt x="352" y="241" on="0"/>
        <pt x="279" y="268" on="1"/>
        <pt x="179" y="304" on="1"/>
        <pt x="117" y="326" on="0"/>
        <pt x="56" y="400" on="0"/>
        <pt x="56" y="450" on="1"/>
        <pt x="56" y="510" on="0"/>
        <pt x="135" y="595" on="0"/>
        <pt x="204" y="606" on="1"/>
        <pt x="204" y="688" on="1"/>
        <pt x="216" y="692" on="0"/>
        <pt x="244" y="692" on="1"/>
        <pt x="274" y="692" on="0"/>
        <pt x="287" y="688" on="1"/>
        <pt x="287" y="608" on="1"/>
        <pt x="327" y="604" on="0"/>
        <pt x="405" y="582" on="0"/>
        <pt x="443" y="565" on="1"/>
        <pt x="443" y="515" on="0"/>
        <pt x="405" y="483" on="1"/>
        <pt x="319" y="522" on="0"/>
        <pt x="250" y="522" on="1"/>
        <pt x="210" y="522" on="0"/>
        <pt x="162" y="487" on="0"/>
        <pt x="162" y="460" on="1"/>
        <pt x="162" y="434" on="0"/>
        <pt x="195" y="406" on="0"/>
        <pt x="231" y="394" on="1"/>
        <pt x="328" y="358" on="1"/>
        <pt x="388" y="335" on="0"/>
        <pt x="460" y="256" on="0"/>
        <pt x="460" y="193" on="1"/>
        <pt x="460" y="130" on="0"/>
        <pt x="365" y="44" on="0"/>
        <pt x="283" y="37" on="1"/>
        <pt x="283" y="-39" on="1"/>
        <pt x="265" y="-42" on="0"/>
        <pt x="240" y="-42" on="1"/>
        <pt x="215" y="-42" on="0"/>
        <pt x="200" y="-39" on="1"/>
        <pt x="200" y="39" on="1"/>
        <pt x="100" y="52" on="0"/>
      </contour>
    </TTGlyph>
    <TTGlyph name="dollar.smcp" xMin="29" yMin="-35" xMax="409" yMax="583">
      <contour>
        <pt x="29" y="79" on="1"/>
        <pt x="30" y="99" on="0"/>
        <pt x="53" y="145" on="0"/>
        <pt x="68" y="155" on="1"/>
        <pt x="151" y="111" on="0"/>
        <pt x="226" y="111" on="1"/>
        <pt x="303" y="111" on="0"/>
        <pt x="303" y="159" on="1"/>
        <pt x="303" y="197" on="0"/>
        <pt x="245" y="218" on="1"/>
        <pt x="158" y="249" on="1"/>
        <pt x="48" y="291" on="0"/>
        <pt x="48" y="377" on="1"/>
        <pt x="48" y="431" on="0"/>
        <pt x="118" y="502" on="0"/>
        <pt x="179" y="513" on="1"/>
        <pt x="179" y="580" on="1"/>
        <pt x="194" y="583" on="0"/>
        <pt x="218" y="583" on="1"/>
        <pt x="241" y="583" on="0"/>
        <pt x="256" y="580" on="1"/>
        <pt x="256" y="516" on="1"/>
        <pt x="328" y="508" on="0"/>
        <pt x="394" y="479" on="1"/>
        <pt x="393" y="427" on="0"/>
        <pt x="357" y="401" on="1"/>
        <pt x="282" y="436" on="0"/>
        <pt x="222" y="436" on="1"/>
        <pt x="189" y="436" on="0"/>
        <pt x="151" y="409" on="0"/>
        <pt x="151" y="388" on="1"/>
        <pt x="151" y="368" on="0"/>
        <pt x="178" y="346" on="0"/>
        <pt x="208" y="335" on="1"/>
        <pt x="285" y="308" on="1"/>
        <pt x="348" y="286" on="0"/>
        <pt x="409" y="214" on="0"/>
        <pt x="409" y="166" on="1"/>
        <pt x="409" y="108" on="0"/>
        <pt x="326" y="36" on="0"/>
        <pt x="254" y="28" on="1"/>
        <pt x="254" y="-32" on="1"/>
        <pt x="246" y="-34" on="0"/>
        <pt x="226" y="-35" on="0"/>
        <pt x="215" y="-35" on="1"/>
        <pt x="191" y="-35" on="0"/>
        <pt x="176" y="-32" on="1"/>
        <pt x="176" y="29" on="1"/>
        <pt x="91" y="39" on="0"/>
      </contour>
    </TTGlyph>
    <TTGlyph name="dotaccent" xMin="135" yMin="574" xMax="263" yMax="688">
      <contour>
        <pt x="144" y="587" on="1"/>
        <pt x="135" y="605" on="0"/>
        <pt x="135" y="631" on="1"/>
        <pt x="135" y="672" on="0"/>
        <pt x="165" y="687" on="0"/>
        <pt x="200" y="688" on="1"/>
        <pt x="240" y="687" on="0"/>
        <pt x="262" y="669" on="0"/>
        <pt x="263" y="631" on="1"/>
        <pt x="262" y="595" on="0"/>
        <pt x="240" y="575" on="0"/>
        <pt x="200" y="574" on="1"/>
        <pt x="161" y="574" on="0"/>
      </contour>
    </TTGlyph>
    <TTGlyph name="dotaccent.alt" xMin="139" yMin="294" xMax="258" yMax="413">
      <contour>
        <pt x="146" y="400" on="1"/>
        <pt x="165" y="413" on="0"/>
        <pt x="199" y="413" on="1"/>
        <pt x="214" y="413" on="0"/>
        <pt x="236" y="409" on="0"/>
        <pt x="253" y="400" on="0"/>
        <pt x="258" y="375" on="0"/>
        <pt x="258" y="354" on="1"/>
        <pt x="258" y="333" on="0"/>
        <pt x="253" y="307" on="0"/>
        <pt x="239" y="300" on="0"/>
        <pt x="215" y="294" on="0"/>
        <pt x="199" y="294" on="1"/>
        <pt x="181" y="294" on="0"/>
        <pt x="154" y="302" on="0"/>
        <pt x="144" y="308" on="0"/>
        <pt x="139" y="334" on="0"/>
        <pt x="139" y="354" on="1"/>
        <pt x="139" y="387" on="0"/>
      </contour>
    </TTGlyph>
    <TTGlyph name="dotaccent.cap" xMin="135" yMin="743" xMax="263" yMax="857">
      <contour>
        <pt x="144" y="845" on="1"/>
        <pt x="165" y="857" on="0"/>
        <pt x="200" y="857" on="1"/>
        <pt x="238" y="857" on="0"/>
        <pt x="263" y="838" on="0"/>
        <pt x="263" y="800" on="1"/>
        <pt x="263" y="767" on="0"/>
        <pt x="245" y="743" on="0"/>
        <pt x="200" y="743" on="1"/>
        <pt x="161" y="743" on="0"/>
        <pt x="135" y="762" on="0"/>
        <pt x="135" y="800" on="1"/>
        <pt x="135" y="812" on="0"/>
        <pt x="139" y="836" on="0"/>
      </contour>
    </TTGlyph>
    <TTGlyph name="dotlessi" xMin="32" yMin="-4" xMax="195" yMax="497">
      <contour>
        <pt x="195" y="408" on="1"/>
        <pt x="195" y="0" on="1"/>
        <pt x="176" y="-4" on="0"/>
        <pt x="111" y="-4" on="0"/>
        <pt x="92" y="0" on="1"/>
        <pt x="92" y="366" on="1"/>
        <pt x="92" y="394" on="0"/>
        <pt x="72" y="418" on="0"/>
        <pt x="48" y="418" on="1"/>
        <pt x="37" y="418" on="1"/>
        <pt x="32" y="440" on="0"/>
        <pt x="32" y="470" on="0"/>
        <pt x="37" y="493" on="1"/>
        <pt x="70" y="497" on="0"/>
        <pt x="100" y="497" on="1"/>
        <pt x="114" y="497" on="1"/>
        <pt x="152" y="497" on="0"/>
        <pt x="195" y="449" on="0"/>
      </contour>
    </TTGlyph>
    <TTGlyph name="e" xMin="44" yMin="-13" xMax="451" yMax="507">
      <contour>
        <pt x="444" y="214" on="1"/>
        <pt x="150" y="214" on="1"/>
        <pt x="153" y="145" on="0"/>
        <pt x="206" y="71" on="0"/>
        <pt x="269" y="71" on="1"/>
        <pt x="299" y="71" on="0"/>
        <pt x="368" y="89" on="0"/>
        <pt x="405" y="109" on="1"/>
        <pt x="430" y="86" on="0"/>
        <pt x="438" y="43" on="1"/>
        <pt x="358" y="-13" on="0"/>
        <pt x="250" y="-13" on="1"/>
        <pt x="193" y="-13" on="0"/>
        <pt x="115" y="27" on="0"/>
        <pt x="66" y="97" on="0"/>
        <pt x="44" y="194" on="0"/>
        <pt x="44" y="250" on="1"/>
        <pt x="44" y="305" on="0"/>
        <pt x="72" y="400" on="0"/>
        <pt x="124" y="468" on="0"/>
        <pt x="201" y="507" on="0"/>
        <pt x="249" y="507" on="1"/>
        <pt x="297" y="507" on="0"/>
        <pt x="372" y="475" on="0"/>
        <pt x="424" y="418" on="0"/>
        <pt x="451" y="339" on="0"/>
        <pt x="451" y="293" on="1"/>
        <pt x="451" y="273" on="0"/>
        <pt x="448" y="234" on="0"/>
      </contour>
      <contour>
        <pt x="252" y="430" on="1"/>
        <pt x="157" y="430" on="0"/>
        <pt x="150" y="289" on="1"/>
        <pt x="352" y="289" on="1"/>
        <pt x="352" y="302" on="1"/>
        <pt x="352" y="359" on="0"/>
        <pt x="303" y="430" on="0"/>
      </contour>
    </TTGlyph>
    <TTGlyph name="e.smcp" xMin="84" yMin="-1" xMax="468" yMax="546">
      <contour>
        <pt x="188" y="129" on="1"/>
        <pt x="187" y="84" on="1"/>
        <pt x="223" y="86" on="0"/>
        <pt x="247" y="86" on="1"/>
        <pt x="468" y="86" on="1"/>
        <pt x="468" y="61" on="0"/>
        <pt x="466" y="49" on="1"/>
        <pt x="457" y="-1" on="0"/>
        <pt x="401" y="-1" on="1"/>
        <pt x="145" y="-1" on="1"/>
        <pt x="117" y="-1" on="0"/>
        <pt x="84" y="33" on="0"/>
        <pt x="84" y="62" on="1"/>
        <pt x="84" y="540" on="1"/>
        <pt x="89" y="546" on="1"/>
        <pt x="452" y="546" on="1"/>
        <pt x="455" y="531" on="0"/>
        <pt x="455" y="480" on="0"/>
        <pt x="447" y="459" on="1"/>
        <pt x="187" y="459" on="1"/>
        <pt x="188" y="408" on="1"/>
        <pt x="188" y="318" on="1"/>
        <pt x="245" y="319" on="1"/>
        <pt x="402" y="319" on="1"/>
        <pt x="407" y="303" on="0"/>
        <pt x="407" y="251" on="0"/>
        <pt x="402" y="234" on="1"/>
        <pt x="188" y="234" on="1"/>
      </contour>
    </TTGlyph>
    <TTGlyph name="eacute" xMin="44" yMin="-13" xMax="451" yMax="739">
      <component glyphName="e" x="0" y="0" flags="0x204"/>
      <component glyphName="acute" x="57" y="0" flags="0x4"/>
    </TTGlyph>
    <TTGlyph name="eacute.smcp" xMin="84" yMin="-1" xMax="468" yMax="792">
      <component glyphName="e.smcp" x="0" y="0" flags="0x204"/>
      <component glyphName="acute" x="75" y="53" flags="0x4"/>
    </TTGlyph>
    <TTGlyph name="ecaron" xMin="44" yMin="-13" xMax="451" yMax="733">
      <component glyphName="e" x="0" y="0" flags="0x204"/>
      <component glyphName="caron" x="56" y="0" flags="0x4"/>
    </TTGlyph>
    <TTGlyph name="ecaron.smcp" xMin="84" yMin="-1" xMax="468" yMax="786">
      <component glyphName="e.smcp" x="0" y="0" flags="0x204"/>
      <component glyphName="caron" x="74" y="53" flags="0x4"/>
    </TTGlyph>
    <TTGlyph name="ecircumflex" xMin="44" yMin="-13" xMax="451" yMax="730">
      <component glyphName="e" x="0" y="0" flags="0x204"/>
      <component glyphName="circumflex" x="56" y="0" flags="0x4"/>
    </TTGlyph>
    <TTGlyph name="ecircumflex.smcp" xMin="84" yMin="-1" xMax="468" yMax="783">
      <component glyphName="e.smcp" x="0" y="0" flags="0x204"/>
      <component glyphName="circumflex" x="74" y="53" flags="0x4"/>
    </TTGlyph>
    <TTGlyph name="edieresis" xMin="44" yMin="-13" xMax="451" yMax="664">
      <component glyphName="e" x="0" y="0" flags="0x204"/>
      <component glyphName="dieresis" x="56" y="0" flags="0x4"/>
    </TTGlyph>
    <TTGlyph name="edieresis.smcp" xMin="84" yMin="-1" xMax="468" yMax="717">
      <component glyphName="e.smcp" x="0" y="0" flags="0x204"/>
      <component glyphName="dieresis" x="74" y="53" flags="0x4"/>
    </TTGlyph>
    <TTGlyph name="egrave" xMin="44" yMin="-13" xMax="451" yMax="739">
      <component glyphName="e" x="0" y="0" flags="0x204"/>
      <component glyphName="grave" x="59" y="0" flags="0x4"/>
    </TTGlyph>
    <TTGlyph name="egrave.smcp" xMin="84" yMin="-1" xMax="468" yMax="792">
      <component glyphName="e.smcp" x="0" y="0" flags="0x204"/>
      <component glyphName="grave" x="76" y="53" flags="0x4"/>
    </TTGlyph>
    <TTGlyph name="eight" xMin="44" yMin="-13" xMax="485" yMax="661">
      <contour>
        <pt x="44" y="163" on="1"/>
        <pt x="44" y="220" on="0"/>
        <pt x="110" y="310" on="0"/>
        <pt x="161" y="337" on="1"/>
        <pt x="61" y="391" on="0"/>
        <pt x="61" y="490" on="1"/>
        <pt x="61" y="527" on="0"/>
        <pt x="92" y="590" on="0"/>
        <pt x="148" y="635" on="0"/>
        <pt x="222" y="661" on="0"/>
        <pt x="266" y="661" on="1"/>
        <pt x="310" y="661" on="0"/>
        <pt x="384" y="636" on="0"/>
        <pt x="437" y="591" on="0"/>
        <pt x="467" y="530" on="0"/>
        <pt x="467" y="494" on="1"/>
        <pt x="467" y="446" on="0"/>
        <pt x="413" y="371" on="0"/>
        <pt x="370" y="348" on="1"/>
        <pt x="485" y="286" on="0"/>
        <pt x="485" y="171" on="1"/>
        <pt x="485" y="129" on="0"/>
        <pt x="450" y="61" on="0"/>
        <pt x="388" y="13" on="0"/>
        <pt x="306" y="-13" on="0"/>
        <pt x="258" y="-13" on="1"/>
        <pt x="210" y="-13" on="0"/>
        <pt x="131" y="11" on="0"/>
        <pt x="75" y="56" on="0"/>
        <pt x="44" y="121" on="0"/>
      </contour>
      <contour>
        <pt x="237" y="305" on="1"/>
        <pt x="235" y="305" on="1"/>
        <pt x="150" y="257" on="0"/>
        <pt x="150" y="171" on="1"/>
        <pt x="150" y="120" on="0"/>
        <pt x="214" y="62" on="0"/>
        <pt x="263" y="62" on="1"/>
        <pt x="314" y="62" on="0"/>
        <pt x="378" y="123" on="0"/>
        <pt x="378" y="172" on="1"/>
        <pt x="378" y="262" on="0"/>
        <pt x="254" y="299" on="1"/>
      </contour>
      <contour>
        <pt x="165" y="491" on="1"/>
        <pt x="165" y="415" on="0"/>
        <pt x="281" y="383" on="1"/>
        <pt x="293" y="378" on="1"/>
        <pt x="364" y="419" on="0"/>
        <pt x="364" y="490" on="1"/>
        <pt x="364" y="533" on="0"/>
        <pt x="307" y="584" on="0"/>
        <pt x="264" y="584" on="1"/>
        <pt x="222" y="584" on="0"/>
        <pt x="165" y="533" on="0"/>
      </contour>
    </TTGlyph>
    <TTGlyph name="eight.smcp" xMin="41" yMin="-13" xMax="441" yMax="559">
      <contour>
        <pt x="41" y="131" on="1"/>
        <pt x="41" y="179" on="0"/>
        <pt x="103" y="257" on="0"/>
        <pt x="149" y="278" on="1"/>
        <pt x="57" y="329" on="0"/>
        <pt x="57" y="408" on="1"/>
        <pt x="57" y="440" on="0"/>
        <pt x="85" y="495" on="0"/>
        <pt x="134" y="536" on="0"/>
        <pt x="202" y="559" on="0"/>
        <pt x="241" y="559" on="1"/>
        <pt x="281" y="559" on="0"/>
        <pt x="349" y="538" on="0"/>
        <pt x="397" y="501" on="0"/>
        <pt x="424" y="448" on="0"/>
        <pt x="424" y="417" on="1"/>
        <pt x="424" y="334" on="0"/>
        <pt x="341" y="293" on="1"/>
        <pt x="441" y="238" on="0"/>
        <pt x="441" y="148" on="1"/>
        <pt x="441" y="109" on="0"/>
        <pt x="410" y="49" on="0"/>
        <pt x="354" y="8" on="0"/>
        <pt x="279" y="-13" on="0"/>
        <pt x="236" y="-13" on="1"/>
        <pt x="192" y="-13" on="0"/>
        <pt x="120" y="7" on="0"/>
        <pt x="69" y="45" on="0"/>
        <pt x="41" y="98" on="0"/>
      </contour>
      <contour>
        <pt x="232" y="244" on="1"/>
        <pt x="228" y="245" on="1"/>
        <pt x="143" y="208" on="0"/>
        <pt x="143" y="139" on="1"/>
        <pt x="143" y="102" on="0"/>
        <pt x="196" y="59" on="0"/>
        <pt x="239" y="59" on="1"/>
        <pt x="284" y="59" on="0"/>
        <pt x="336" y="103" on="0"/>
        <pt x="336" y="141" on="1"/>
        <pt x="336" y="208" on="0"/>
      </contour>
      <contour>
        <pt x="255" y="331" on="1"/>
        <pt x="265" y="327" on="1"/>
        <pt x="324" y="359" on="0"/>
        <pt x="324" y="414" on="1"/>
        <pt x="324" y="446" on="0"/>
        <pt x="278" y="486" on="0"/>
        <pt x="241" y="486" on="1"/>
        <pt x="205" y="486" on="0"/>
        <pt x="157" y="447" on="0"/>
        <pt x="157" y="416" on="1"/>
        <pt x="157" y="387" on="0"/>
        <pt x="204" y="349" on="0"/>
      </contour>
    </TTGlyph>
    <TTGlyph name="emdash" xMin="75" yMin="223" xMax="724" yMax="307">
      <contour>
        <pt x="719" y="223" on="1"/>
        <pt x="79" y="223" on="1"/>
        <pt x="75" y="240" on="0"/>
        <pt x="75" y="288" on="0"/>
        <pt x="79" y="307" on="1"/>
        <pt x="719" y="307" on="1"/>
        <pt x="724" y="289" on="0"/>
        <pt x="724" y="239" on="0"/>
      </contour>
    </TTGlyph>
    <TTGlyph name="endash" xMin="61" yMin="223" xMax="470" yMax="307">
      <contour>
        <pt x="466" y="223" on="1"/>
        <pt x="65" y="223" on="1"/>
        <pt x="61" y="240" on="0"/>
        <pt x="61" y="288" on="0"/>
        <pt x="65" y="307" on="1"/>
        <pt x="466" y="307" on="1"/>
        <pt x="470" y="288" on="0"/>
        <pt x="470" y="240" on="0"/>
      </contour>
    </TTGlyph>
    <TTGlyph name="eogonek" xMin="44" yMin="-217" xMax="451" yMax="507">
      <contour>
        <pt x="274" y="-12" on="1"/>
        <pt x="250" y="-13" on="1"/>
        <pt x="193" y="-13" on="0"/>
        <pt x="115" y="27" on="0"/>
        <pt x="66" y="97" on="0"/>
        <pt x="44" y="194" on="0"/>
        <pt x="44" y="250" on="1"/>
        <pt x="44" y="305" on="0"/>
        <pt x="72" y="400" on="0"/>
        <pt x="124" y="468" on="0"/>
        <pt x="201" y="507" on="0"/>
        <pt x="249" y="507" on="1"/>
        <pt x="297" y="507" on="0"/>
        <pt x="372" y="475" on="0"/>
        <pt x="424" y="418" on="0"/>
        <pt x="451" y="339" on="0"/>
        <pt x="451" y="293" on="1"/>
        <pt x="451" y="273" on="0"/>
        <pt x="448" y="234" on="0"/>
        <pt x="444" y="214" on="1"/>
        <pt x="150" y="214" on="1"/>
        <pt x="153" y="145" on="0"/>
        <pt x="206" y="71" on="0"/>
        <pt x="269" y="71" on="1"/>
        <pt x="299" y="71" on="0"/>
        <pt x="368" y="89" on="0"/>
        <pt x="405" y="109" on="1"/>
        <pt x="430" y="86" on="0"/>
        <pt x="438" y="43" on="1"/>
        <pt x="407" y="21" on="0"/>
        <pt x="369" y="8" on="1"/>
        <pt x="299" y="-44" on="0"/>
        <pt x="299" y="-103" on="1"/>
        <pt x="299" y="-123" on="0"/>
        <pt x="326" y="-149" on="0"/>
        <pt x="349" y="-149" on="1"/>
        <pt x="375" y="-149" on="0"/>
        <pt x="406" y="-132" on="1"/>
        <pt x="429" y="-152" on="0"/>
        <pt x="429" y="-182" on="1"/>
        <pt x="388" y="-217" on="0"/>
        <pt x="332" y="-217" on="1"/>
        <pt x="275" y="-217" on="0"/>
        <pt x="216" y="-169" on="0"/>
        <pt x="216" y="-116" on="1"/>
        <pt x="216" y="-64" on="0"/>
      </contour>
      <contour>
        <pt x="252" y="430" on="1"/>
        <pt x="157" y="430" on="0"/>
        <pt x="150" y="289" on="1"/>
        <pt x="352" y="289" on="1"/>
        <pt x="352" y="302" on="1"/>
        <pt x="352" y="359" on="0"/>
        <pt x="303" y="430" on="0"/>
      </contour>
    </TTGlyph>
    <TTGlyph name="eogonek.smcp" xMin="84" yMin="-217" xMax="468" yMax="546">
      <contour>
        <pt x="188" y="129" on="1"/>
        <pt x="187" y="84" on="1"/>
        <pt x="214" y="87" on="0"/>
        <pt x="247" y="87" on="1"/>
        <pt x="468" y="87" on="1"/>
        <pt x="468" y="71" on="0"/>
        <pt x="465" y="41" on="0"/>
        <pt x="456" y="17" on="0"/>
        <pt x="429" y="3" on="1"/>
        <pt x="386" y="-14" on="0"/>
        <pt x="337" y="-73" on="0"/>
        <pt x="337" y="-99" on="1"/>
        <pt x="337" y="-123" on="0"/>
        <pt x="362" y="-149" on="0"/>
        <pt x="385" y="-149" on="1"/>
        <pt x="410" y="-149" on="0"/>
        <pt x="444" y="-132" on="1"/>
        <pt x="467" y="-152" on="0"/>
        <pt x="468" y="-182" on="1"/>
        <pt x="425" y="-217" on="0"/>
        <pt x="370" y="-217" on="1"/>
        <pt x="313" y="-217" on="0"/>
        <pt x="254" y="-168" on="0"/>
        <pt x="254" y="-123" on="1"/>
        <pt x="254" y="-54" on="0"/>
        <pt x="325" y="-1" on="1"/>
        <pt x="145" y="-1" on="1"/>
        <pt x="117" y="-1" on="0"/>
        <pt x="84" y="33" on="0"/>
        <pt x="84" y="62" on="1"/>
        <pt x="84" y="540" on="1"/>
        <pt x="89" y="546" on="1"/>
        <pt x="452" y="546" on="1"/>
        <pt x="455" y="532" on="0"/>
        <pt x="455" y="510" on="1"/>
        <pt x="455" y="497" on="0"/>
        <pt x="452" y="470" on="0"/>
        <pt x="447" y="459" on="1"/>
        <pt x="187" y="459" on="1"/>
        <pt x="187" y="318" on="1"/>
        <pt x="237" y="319" on="1"/>
        <pt x="402" y="319" on="1"/>
        <pt x="407" y="301" on="0"/>
        <pt x="407" y="276" on="1"/>
        <pt x="407" y="251" on="0"/>
        <pt x="402" y="234" on="1"/>
        <pt x="188" y="234" on="1"/>
      </contour>
    </TTGlyph>
    <TTGlyph name="equal" xMin="52" yMin="154" xMax="478" yMax="436">
      <contour>
        <pt x="474" y="154" on="1"/>
        <pt x="56" y="154" on="1"/>
        <pt x="52" y="173" on="0"/>
        <pt x="52" y="224" on="0"/>
        <pt x="56" y="243" on="1"/>
        <pt x="474" y="243" on="1"/>
        <pt x="478" y="224" on="0"/>
        <pt x="478" y="173" on="0"/>
      </contour>
      <contour>
        <pt x="474" y="347" on="1"/>
        <pt x="56" y="347" on="1"/>
        <pt x="52" y="364" on="0"/>
        <pt x="52" y="416" on="0"/>
        <pt x="56" y="436" on="1"/>
        <pt x="474" y="436" on="1"/>
        <pt x="478" y="416" on="0"/>
        <pt x="478" y="364" on="0"/>
      </contour>
    </TTGlyph>
    <TTGlyph name="eth" xMin="42" yMin="-13" xMax="474" yMax="748">
      <contour>
        <pt x="111" y="572" on="1"/>
        <pt x="197" y="631" on="1"/>
        <pt x="180" y="645" on="0"/>
        <pt x="140" y="670" on="0"/>
        <pt x="117" y="682" on="1"/>
        <pt x="120" y="701" on="0"/>
        <pt x="144" y="740" on="0"/>
        <pt x="158" y="748" on="1"/>
        <pt x="221" y="721" on="0"/>
        <pt x="272" y="682" on="1"/>
        <pt x="359" y="742" on="1"/>
        <pt x="392" y="717" on="0"/>
        <pt x="396" y="688" on="1"/>
        <pt x="323" y="638" on="1"/>
        <pt x="474" y="487" on="0"/>
        <pt x="474" y="245" on="1"/>
        <pt x="474" y="187" on="0"/>
        <pt x="445" y="92" on="0"/>
        <pt x="390" y="24" on="0"/>
        <pt x="309" y="-13" on="0"/>
        <pt x="258" y="-13" on="1"/>
        <pt x="206" y="-13" on="0"/>
        <pt x="126" y="25" on="0"/>
        <pt x="71" y="92" on="0"/>
        <pt x="42" y="184" on="0"/>
        <pt x="42" y="238" on="1"/>
        <pt x="42" y="292" on="0"/>
        <pt x="71" y="383" on="0"/>
        <pt x="125" y="450" on="0"/>
        <pt x="203" y="487" on="0"/>
        <pt x="253" y="487" on="1"/>
        <pt x="286" y="487" on="0"/>
        <pt x="325" y="470" on="1"/>
        <pt x="302" y="531" on="0"/>
        <pt x="248" y="586" on="1"/>
        <pt x="149" y="517" on="1"/>
        <pt x="119" y="539" on="0"/>
      </contour>
      <contour>
        <pt x="368" y="245" on="1"/>
        <pt x="368" y="326" on="0"/>
        <pt x="352" y="380" on="1"/>
        <pt x="308" y="410" on="0"/>
        <pt x="259" y="410" on="1"/>
        <pt x="149" y="410" on="0"/>
        <pt x="149" y="237" on="1"/>
        <pt x="149" y="65" on="0"/>
        <pt x="258" y="65" on="1"/>
        <pt x="368" y="65" on="0"/>
      </contour>
    </TTGlyph>
    <TTGlyph name="eth.smcp" xMin="22" yMin="-3" xMax="548" yMax="549">
      <contour>
        <pt x="96" y="0" on="1"/>
        <pt x="91" y="5" on="1"/>
        <pt x="91" y="231" on="1"/>
        <pt x="26" y="231" on="1"/>
        <pt x="24" y="239" on="0"/>
        <pt x="22" y="261" on="0"/>
        <pt x="22" y="272" on="1"/>
        <pt x="22" y="283" on="0"/>
        <pt x="24" y="305" on="0"/>
        <pt x="26" y="315" on="1"/>
        <pt x="91" y="315" on="1"/>
        <pt x="91" y="541" on="1"/>
        <pt x="96" y="546" on="1"/>
        <pt x="211" y="549" on="0"/>
        <pt x="303" y="549" on="1"/>
        <pt x="374" y="549" on="0"/>
        <pt x="469" y="504" on="0"/>
        <pt x="525" y="427" on="0"/>
        <pt x="548" y="327" on="0"/>
        <pt x="548" y="272" on="1"/>
        <pt x="548" y="216" on="0"/>
        <pt x="525" y="116" on="0"/>
        <pt x="470" y="41" on="0"/>
        <pt x="375" y="-3" on="0"/>
        <pt x="303" y="-3" on="1"/>
        <pt x="211" y="-3" on="0"/>
      </contour>
      <contour>
        <pt x="194" y="76" on="1"/>
        <pt x="290" y="77" on="1"/>
        <pt x="440" y="78" on="0"/>
        <pt x="440" y="272" on="1"/>
        <pt x="440" y="468" on="0"/>
        <pt x="290" y="468" on="1"/>
        <pt x="194" y="469" on="1"/>
        <pt x="194" y="315" on="1"/>
        <pt x="320" y="315" on="1"/>
        <pt x="322" y="305" on="0"/>
        <pt x="324" y="283" on="0"/>
        <pt x="324" y="272" on="1"/>
        <pt x="324" y="261" on="0"/>
        <pt x="322" y="239" on="0"/>
        <pt x="320" y="231" on="1"/>
        <pt x="194" y="231" on="1"/>
      </contour>
    </TTGlyph>
    <TTGlyph name="exclam" xMin="77" yMin="-9" xMax="208" yMax="690">
      <contour>
        <pt x="102" y="194" on="1"/>
        <pt x="90" y="660" on="1"/>
        <pt x="130" y="690" on="0"/>
        <pt x="200" y="690" on="1"/>
        <pt x="207" y="683" on="1"/>
        <pt x="182" y="194" on="1"/>
        <pt x="174" y="191" on="0"/>
        <pt x="152" y="189" on="0"/>
        <pt x="141" y="189" on="1"/>
        <pt x="130" y="189" on="0"/>
        <pt x="110" y="191" on="0"/>
      </contour>
      <contour>
        <pt x="86" y="97" on="1"/>
        <pt x="106" y="110" on="0"/>
        <pt x="142" y="110" on="1"/>
        <pt x="158" y="110" on="0"/>
        <pt x="183" y="105" on="0"/>
        <pt x="200" y="98" on="0"/>
        <pt x="208" y="71" on="0"/>
        <pt x="208" y="50" on="1"/>
        <pt x="208" y="30" on="0"/>
        <pt x="200" y="4" on="0"/>
        <pt x="183" y="-4" on="0"/>
        <pt x="158" y="-9" on="0"/>
        <pt x="142" y="-9" on="1"/>
        <pt x="127" y="-9" on="0"/>
        <pt x="103" y="-5" on="0"/>
        <pt x="84" y="3" on="0"/>
        <pt x="77" y="29" on="0"/>
        <pt x="77" y="50" on="1"/>
        <pt x="77" y="83" on="0"/>
      </contour>
    </TTGlyph>
    <TTGlyph name="exclamdown" xMin="80" yMin="-197" xMax="211" yMax="502">
      <contour>
        <pt x="186" y="299" on="1"/>
        <pt x="198" y="-167" on="1"/>
        <pt x="157" y="-197" on="0"/>
        <pt x="88" y="-197" on="1"/>
        <pt x="81" y="-189" on="1"/>
        <pt x="106" y="299" on="1"/>
        <pt x="123" y="304" on="0"/>
        <pt x="146" y="304" on="1"/>
        <pt x="168" y="304" on="0"/>
      </contour>
      <contour>
        <pt x="202" y="396" on="1"/>
        <pt x="182" y="384" on="0"/>
        <pt x="145" y="384" on="1"/>
        <pt x="127" y="384" on="0"/>
        <pt x="102" y="388" on="0"/>
        <pt x="86" y="400" on="0"/>
        <pt x="80" y="423" on="0"/>
        <pt x="80" y="442" on="1"/>
        <pt x="80" y="455" on="0"/>
        <pt x="84" y="481" on="0"/>
        <pt x="89" y="490" on="1"/>
        <pt x="100" y="496" on="0"/>
        <pt x="129" y="502" on="0"/>
        <pt x="145" y="502" on="1"/>
        <pt x="160" y="502" on="0"/>
        <pt x="183" y="500" on="0"/>
        <pt x="203" y="489" on="0"/>
        <pt x="211" y="464" on="0"/>
        <pt x="211" y="442" on="1"/>
        <pt x="211" y="409" on="0"/>
      </contour>
    </TTGlyph>
    <TTGlyph name="f" xMin="11" yMin="-4" xMax="372" yMax="739">
      <contour>
        <pt x="101" y="0" on="1"/>
        <pt x="101" y="420" on="1"/>
        <pt x="15" y="418" on="1"/>
        <pt x="13" y="426" on="0"/>
        <pt x="11" y="446" on="0"/>
        <pt x="11" y="456" on="1"/>
        <pt x="11" y="479" on="0"/>
        <pt x="15" y="495" on="1"/>
        <pt x="96" y="494" on="1"/>
        <pt x="90" y="555" on="0"/>
        <pt x="90" y="583" on="1"/>
        <pt x="90" y="617" on="0"/>
        <pt x="111" y="674" on="0"/>
        <pt x="151" y="716" on="0"/>
        <pt x="207" y="739" on="0"/>
        <pt x="242" y="739" on="1"/>
        <pt x="312" y="739" on="0"/>
        <pt x="372" y="716" on="1"/>
        <pt x="372" y="671" on="0"/>
        <pt x="348" y="646" on="1"/>
        <pt x="325" y="653" on="0"/>
        <pt x="284" y="661" on="0"/>
        <pt x="267" y="661" on="1"/>
        <pt x="225" y="661" on="0"/>
        <pt x="188" y="616" on="0"/>
        <pt x="188" y="571" on="1"/>
        <pt x="188" y="554" on="0"/>
        <pt x="192" y="516" on="0"/>
        <pt x="195" y="493" on="1"/>
        <pt x="336" y="495" on="1"/>
        <pt x="338" y="486" on="0"/>
        <pt x="340" y="467" on="0"/>
        <pt x="340" y="456" on="1"/>
        <pt x="340" y="446" on="0"/>
        <pt x="338" y="426" on="0"/>
        <pt x="336" y="418" on="1"/>
        <pt x="202" y="420" on="1"/>
        <pt x="202" y="0" on="1"/>
        <pt x="191" y="-2" on="0"/>
        <pt x="165" y="-4" on="0"/>
        <pt x="151" y="-4" on="1"/>
        <pt x="137" y="-4" on="0"/>
        <pt x="111" y="-2" on="0"/>
      </contour>
    </TTGlyph>
    <TTGlyph name="f.smcp" xMin="84" yMin="-4" xMax="450" yMax="546">
      <contour>
        <pt x="189" y="311" on="1"/>
        <pt x="224" y="312" on="1"/>
        <pt x="395" y="312" on="1"/>
        <pt x="400" y="296" on="0"/>
        <pt x="400" y="244" on="0"/>
        <pt x="395" y="228" on="1"/>
        <pt x="189" y="228" on="1"/>
        <pt x="189" y="0" on="1"/>
        <pt x="166" y="-4" on="0"/>
        <pt x="105" y="-4" on="0"/>
        <pt x="84" y="0" on="1"/>
        <pt x="84" y="541" on="1"/>
        <pt x="89" y="546" on="1"/>
        <pt x="444" y="546" on="1"/>
        <pt x="450" y="528" on="0"/>
        <pt x="450" y="505" on="1"/>
        <pt x="450" y="458" on="0"/>
        <pt x="395" y="458" on="1"/>
        <pt x="188" y="458" on="1"/>
        <pt x="189" y="379" on="1"/>
      </contour>
    </TTGlyph>
    <TTGlyph name="five" xMin="56" yMin="-13" xMax="473" yMax="648">
      <contour>
        <pt x="439" y="648" on="1"/>
        <pt x="446" y="628" on="0"/>
        <pt x="446" y="605" on="1"/>
        <pt x="446" y="559" on="0"/>
        <pt x="400" y="559" on="1"/>
        <pt x="189" y="559" on="1"/>
        <pt x="189" y="509" on="1"/>
        <pt x="182" y="413" on="1"/>
        <pt x="225" y="431" on="0"/>
        <pt x="270" y="431" on="1"/>
        <pt x="363" y="431" on="0"/>
        <pt x="473" y="320" on="0"/>
        <pt x="473" y="214" on="1"/>
        <pt x="473" y="162" on="0"/>
        <pt x="436" y="78" on="0"/>
        <pt x="374" y="19" on="0"/>
        <pt x="290" y="-13" on="0"/>
        <pt x="244" y="-13" on="1"/>
        <pt x="129" y="-13" on="0"/>
        <pt x="56" y="51" on="1"/>
        <pt x="59" y="68" on="0"/>
        <pt x="85" y="109" on="0"/>
        <pt x="100" y="120" on="1"/>
        <pt x="136" y="95" on="0"/>
        <pt x="204" y="72" on="0"/>
        <pt x="234" y="72" on="1"/>
        <pt x="292" y="72" on="0"/>
        <pt x="365" y="149" on="0"/>
        <pt x="365" y="216" on="1"/>
        <pt x="365" y="251" on="0"/>
        <pt x="346" y="301" on="0"/>
        <pt x="309" y="333" on="0"/>
        <pt x="267" y="348" on="0"/>
        <pt x="241" y="348" on="1"/>
        <pt x="214" y="348" on="0"/>
        <pt x="156" y="328" on="0"/>
        <pt x="129" y="305" on="1"/>
        <pt x="115" y="307" on="0"/>
        <pt x="86" y="328" on="0"/>
        <pt x="79" y="340" on="1"/>
        <pt x="93" y="641" on="1"/>
        <pt x="100" y="648" on="1"/>
      </contour>
    </TTGlyph>
    <TTGlyph name="five.smcp" xMin="51" yMin="-13" xMax="430" yMax="546">
      <contour>
        <pt x="51" y="42" on="1"/>
        <pt x="54" y="58" on="0"/>
        <pt x="79" y="98" on="0"/>
        <pt x="94" y="109" on="1"/>
        <pt x="149" y="70" on="0"/>
        <pt x="206" y="70" on="1"/>
        <pt x="263" y="70" on="0"/>
        <pt x="325" y="127" on="0"/>
        <pt x="325" y="178" on="1"/>
        <pt x="325" y="227" on="0"/>
        <pt x="268" y="283" on="0"/>
        <pt x="226" y="283" on="1"/>
        <pt x="203" y="283" on="0"/>
        <pt x="151" y="266" on="0"/>
        <pt x="123" y="246" on="1"/>
        <pt x="96" y="252" on="0"/>
        <pt x="73" y="281" on="1"/>
        <pt x="87" y="540" on="1"/>
        <pt x="93" y="546" on="1"/>
        <pt x="402" y="546" on="1"/>
        <pt x="409" y="528" on="0"/>
        <pt x="409" y="504" on="1"/>
        <pt x="409" y="460" on="0"/>
        <pt x="362" y="460" on="1"/>
        <pt x="180" y="460" on="1"/>
        <pt x="173" y="346" on="1"/>
        <pt x="212" y="360" on="0"/>
        <pt x="252" y="360" on="1"/>
        <pt x="290" y="360" on="0"/>
        <pt x="355" y="335" on="0"/>
        <pt x="403" y="287" on="0"/>
        <pt x="430" y="219" on="0"/>
        <pt x="430" y="176" on="1"/>
        <pt x="430" y="134" on="0"/>
        <pt x="398" y="64" on="0"/>
        <pt x="341" y="14" on="0"/>
        <pt x="262" y="-13" on="0"/>
        <pt x="214" y="-13" on="1"/>
        <pt x="118" y="-13" on="0"/>
      </contour>
    </TTGlyph>
    <TTGlyph name="four" xMin="38" yMin="-4" xMax="494" yMax="659">
      <contour>
        <pt x="392" y="139" on="1"/>
        <pt x="393" y="85" on="1"/>
        <pt x="393" y="0" on="1"/>
        <pt x="370" y="-4" on="0"/>
        <pt x="313" y="-4" on="0"/>
        <pt x="292" y="0" on="1"/>
        <pt x="292" y="85" on="1"/>
        <pt x="293" y="139" on="1"/>
        <pt x="239" y="137" on="1"/>
        <pt x="62" y="137" on="1"/>
        <pt x="38" y="176" on="0"/>
        <pt x="38" y="213" on="0"/>
        <pt x="58" y="263" on="1"/>
        <pt x="227" y="654" on="1"/>
        <pt x="249" y="659" on="0"/>
        <pt x="310" y="648" on="0"/>
        <pt x="324" y="635" on="1"/>
        <pt x="209" y="369" on="1"/>
        <pt x="165" y="267" on="0"/>
        <pt x="139" y="224" on="1"/>
        <pt x="142" y="220" on="1"/>
        <pt x="205" y="225" on="0"/>
        <pt x="256" y="225" on="1"/>
        <pt x="293" y="225" on="1"/>
        <pt x="292" y="236" on="0"/>
        <pt x="292" y="257" on="1"/>
        <pt x="292" y="335" on="1"/>
        <pt x="292" y="372" on="0"/>
        <pt x="328" y="415" on="0"/>
        <pt x="360" y="415" on="1"/>
        <pt x="388" y="415" on="1"/>
        <pt x="393" y="410" on="1"/>
        <pt x="393" y="278" on="1"/>
        <pt x="392" y="225" on="1"/>
        <pt x="438" y="226" on="1"/>
        <pt x="491" y="226" on="1"/>
        <pt x="494" y="205" on="0"/>
        <pt x="494" y="160" on="0"/>
        <pt x="487" y="138" on="1"/>
        <pt x="438" y="138" on="1"/>
      </contour>
    </TTGlyph>
    <TTGlyph name="four.smcp" xMin="37" yMin="-4" xMax="449" yMax="555">
      <contour>
        <pt x="361" y="111" on="1"/>
        <pt x="362" y="60" on="1"/>
        <pt x="362" y="0" on="1"/>
        <pt x="339" y="-4" on="0"/>
        <pt x="287" y="-4" on="0"/>
        <pt x="266" y="0" on="1"/>
        <pt x="266" y="60" on="1"/>
        <pt x="267" y="111" on="1"/>
        <pt x="214" y="109" on="1"/>
        <pt x="60" y="109" on="1"/>
        <pt x="37" y="146" on="0"/>
        <pt x="37" y="186" on="0"/>
        <pt x="54" y="224" on="1"/>
        <pt x="209" y="551" on="1"/>
        <pt x="232" y="555" on="0"/>
        <pt x="288" y="543" on="0"/>
        <pt x="304" y="530" on="1"/>
        <pt x="202" y="319" on="1"/>
        <pt x="163" y="238" on="0"/>
        <pt x="136" y="192" on="1"/>
        <pt x="138" y="189" on="1"/>
        <pt x="196" y="194" on="0"/>
        <pt x="243" y="194" on="1"/>
        <pt x="267" y="194" on="1"/>
        <pt x="266" y="204" on="0"/>
        <pt x="266" y="224" on="1"/>
        <pt x="266" y="277" on="1"/>
        <pt x="266" y="311" on="0"/>
        <pt x="303" y="353" on="0"/>
        <pt x="332" y="353" on="1"/>
        <pt x="358" y="353" on="1"/>
        <pt x="362" y="349" on="1"/>
        <pt x="362" y="255" on="1"/>
        <pt x="361" y="194" on="1"/>
        <pt x="400" y="195" on="1"/>
        <pt x="446" y="195" on="1"/>
        <pt x="449" y="182" on="0"/>
        <pt x="449" y="133" on="0"/>
        <pt x="441" y="110" on="1"/>
        <pt x="398" y="110" on="1"/>
      </contour>
    </TTGlyph>
    <TTGlyph name="fraction" xMin="-126" yMin="-6" xMax="352" yMax="689">
      <contour>
        <pt x="-126" y="0" on="1"/>
        <pt x="250" y="683" on="1"/>
        <pt x="270" y="689" on="0"/>
        <pt x="337" y="688" on="0"/>
        <pt x="352" y="683" on="1"/>
        <pt x="-25" y="0" on="1"/>
        <pt x="-45" y="-6" on="0"/>
        <pt x="-112" y="-5" on="0"/>
      </contour>
    </TTGlyph>
    <TTGlyph name="g" xMin="44" yMin="-220" xMax="479" yMax="507">
      <contour>
        <pt x="372" y="455" on="1"/>
        <pt x="394" y="490" on="0"/>
        <pt x="441" y="501" on="1"/>
        <pt x="453" y="493" on="0"/>
        <pt x="476" y="461" on="0"/>
        <pt x="479" y="448" on="1"/>
        <pt x="451" y="421" on="0"/>
        <pt x="451" y="353" on="1"/>
        <pt x="451" y="57" on="1"/>
        <pt x="451" y="-20" on="0"/>
        <pt x="426" y="-126" on="0"/>
        <pt x="374" y="-191" on="0"/>
        <pt x="294" y="-220" on="0"/>
        <pt x="238" y="-220" on="1"/>
        <pt x="149" y="-220" on="0"/>
        <pt x="65" y="-187" on="1"/>
        <pt x="66" y="-139" on="0"/>
        <pt x="92" y="-109" on="1"/>
        <pt x="155" y="-140" on="0"/>
        <pt x="228" y="-140" on="1"/>
        <pt x="299" y="-140" on="0"/>
        <pt x="351" y="-67" on="0"/>
        <pt x="351" y="-1" on="1"/>
        <pt x="351" y="45" on="1"/>
        <pt x="292" y="-9" on="0"/>
        <pt x="212" y="-9" on="1"/>
        <pt x="133" y="-9" on="0"/>
        <pt x="44" y="129" on="0"/>
        <pt x="44" y="250" on="1"/>
        <pt x="44" y="311" on="0"/>
        <pt x="74" y="406" on="0"/>
        <pt x="128" y="472" on="0"/>
        <pt x="197" y="507" on="0"/>
        <pt x="236" y="507" on="1"/>
        <pt x="316" y="507" on="0"/>
      </contour>
      <contour>
        <pt x="351" y="136" on="1"/>
        <pt x="351" y="379" on="1"/>
        <pt x="301" y="424" on="0"/>
        <pt x="253" y="424" on="1"/>
        <pt x="205" y="424" on="0"/>
        <pt x="149" y="334" on="0"/>
        <pt x="149" y="246" on="1"/>
        <pt x="149" y="159" on="0"/>
        <pt x="199" y="77" on="0"/>
        <pt x="239" y="77" on="1"/>
        <pt x="301" y="77" on="0"/>
      </contour>
    </TTGlyph>
    <TTGlyph name="g.smcp" xMin="42" yMin="-13" xMax="509" yMax="559">
      <contour>
        <pt x="296" y="294" on="1"/>
        <pt x="319" y="295" on="0"/>
        <pt x="385" y="296" on="0"/>
        <pt x="430" y="296" on="1"/>
        <pt x="475" y="296" on="0"/>
        <pt x="509" y="266" on="0"/>
        <pt x="509" y="235" on="1"/>
        <pt x="509" y="21" on="1"/>
        <pt x="408" y="-13" on="0"/>
        <pt x="291" y="-13" on="1"/>
        <pt x="225" y="-13" on="0"/>
        <pt x="130" y="28" on="0"/>
        <pt x="71" y="107" on="0"/>
        <pt x="42" y="210" on="0"/>
        <pt x="42" y="270" on="1"/>
        <pt x="42" y="344" on="0"/>
        <pt x="83" y="453" on="0"/>
        <pt x="154" y="524" on="0"/>
        <pt x="250" y="559" on="0"/>
        <pt x="305" y="559" on="1"/>
        <pt x="419" y="559" on="0"/>
        <pt x="505" y="504" on="1"/>
        <pt x="501" y="482" on="0"/>
        <pt x="474" y="437" on="0"/>
        <pt x="458" y="426" on="1"/>
        <pt x="387" y="471" on="0"/>
        <pt x="311" y="471" on="1"/>
        <pt x="233" y="471" on="0"/>
        <pt x="150" y="372" on="0"/>
        <pt x="150" y="269" on="1"/>
        <pt x="150" y="69" on="0"/>
        <pt x="310" y="69" on="1"/>
        <pt x="362" y="69" on="0"/>
        <pt x="409" y="81" on="1"/>
        <pt x="409" y="159" on="1"/>
        <pt x="409" y="182" on="0"/>
        <pt x="412" y="208" on="1"/>
        <pt x="338" y="208" on="1"/>
        <pt x="290" y="208" on="0"/>
        <pt x="290" y="253" on="1"/>
        <pt x="290" y="277" on="0"/>
      </contour>
    </TTGlyph>
    <TTGlyph name="germandbls" xMin="15" yMin="-13" xMax="594" yMax="699">
      <contour>
        <pt x="105" y="0" on="1"/>
        <pt x="105" y="391" on="1"/>
        <pt x="19" y="390" on="1"/>
        <pt x="17" y="398" on="0"/>
        <pt x="15" y="419" on="0"/>
        <pt x="15" y="431" on="1"/>
        <pt x="15" y="442" on="0"/>
        <pt x="17" y="464" on="0"/>
        <pt x="19" y="473" on="1"/>
        <pt x="105" y="471" on="1"/>
        <pt x="105" y="506" on="1"/>
        <pt x="105" y="599" on="0"/>
        <pt x="224" y="699" on="0"/>
        <pt x="324" y="699" on="1"/>
        <pt x="374" y="699" on="0"/>
        <pt x="455" y="671" on="0"/>
        <pt x="512" y="619" on="0"/>
        <pt x="543" y="545" on="0"/>
        <pt x="543" y="500" on="1"/>
        <pt x="543" y="462" on="0"/>
        <pt x="528" y="422" on="1"/>
        <pt x="526" y="422" on="1"/>
        <pt x="528" y="421" on="1"/>
        <pt x="490" y="411" on="0"/>
        <pt x="446" y="372" on="0"/>
        <pt x="446" y="350" on="1"/>
        <pt x="446" y="337" on="0"/>
        <pt x="463" y="308" on="0"/>
        <pt x="483" y="291" on="1"/>
        <pt x="520" y="258" on="1"/>
        <pt x="594" y="192" on="0"/>
        <pt x="594" y="128" on="1"/>
        <pt x="594" y="97" on="0"/>
        <pt x="567" y="45" on="0"/>
        <pt x="520" y="8" on="0"/>
        <pt x="455" y="-13" on="0"/>
        <pt x="417" y="-13" on="1"/>
        <pt x="344" y="-13" on="0"/>
        <pt x="284" y="16" on="1"/>
        <pt x="285" y="34" on="0"/>
        <pt x="304" y="78" on="0"/>
        <pt x="318" y="90" on="1"/>
        <pt x="339" y="78" on="0"/>
        <pt x="381" y="67" on="0"/>
        <pt x="401" y="67" on="1"/>
        <pt x="436" y="67" on="0"/>
        <pt x="484" y="100" on="0"/>
        <pt x="484" y="126" on="1"/>
        <pt x="483" y="140" on="0"/>
        <pt x="466" y="176" on="0"/>
        <pt x="444" y="195" on="1"/>
        <pt x="403" y="230" on="1"/>
        <pt x="369" y="259" on="0"/>
        <pt x="337" y="315" on="0"/>
        <pt x="337" y="341" on="1"/>
        <pt x="337" y="377" on="0"/>
        <pt x="390" y="442" on="0"/>
        <pt x="435" y="460" on="1"/>
        <pt x="439" y="480" on="0"/>
        <pt x="439" y="495" on="1"/>
        <pt x="439" y="549" on="0"/>
        <pt x="380" y="619" on="0"/>
        <pt x="323" y="619" on="1"/>
        <pt x="210" y="619" on="0"/>
        <pt x="210" y="495" on="1"/>
        <pt x="210" y="0" on="1"/>
        <pt x="199" y="-2" on="0"/>
        <pt x="171" y="-4" on="0"/>
        <pt x="157" y="-4" on="1"/>
        <pt x="142" y="-4" on="0"/>
        <pt x="115" y="-2" on="0"/>
      </contour>
    </TTGlyph>
    <TTGlyph name="germandbls.cap" xMin="15" yMin="-13" xMax="594" yMax="699">
      <contour>
        <pt x="105" y="0" on="1"/>
        <pt x="105" y="391" on="1"/>
        <pt x="19" y="390" on="1"/>
        <pt x="17" y="398" on="0"/>
        <pt x="15" y="419" on="0"/>
        <pt x="15" y="431" on="1"/>
        <pt x="15" y="442" on="0"/>
        <pt x="17" y="464" on="0"/>
        <pt x="19" y="473" on="1"/>
        <pt x="105" y="471" on="1"/>
        <pt x="105" y="506" on="1"/>
        <pt x="105" y="599" on="0"/>
        <pt x="224" y="699" on="0"/>
        <pt x="324" y="699" on="1"/>
        <pt x="374" y="699" on="0"/>
        <pt x="455" y="671" on="0"/>
        <pt x="512" y="619" on="0"/>
        <pt x="543" y="545" on="0"/>
        <pt x="543" y="500" on="1"/>
        <pt x="543" y="462" on="0"/>
        <pt x="528" y="422" on="1"/>
        <pt x="526" y="422" on="1"/>
        <pt x="528" y="421" on="1"/>
        <pt x="490" y="411" on="0"/>
        <pt x="446" y="372" on="0"/>
        <pt x="446" y="350" on="1"/>
        <pt x="446" y="337" on="0"/>
        <pt x="463" y="308" on="0"/>
        <pt x="483" y="291" on="1"/>
        <pt x="520" y="258" on="1"/>
        <pt x="594" y="192" on="0"/>
        <pt x="594" y="128" on="1"/>
        <pt x="594" y="97" on="0"/>
        <pt x="567" y="45" on="0"/>
        <pt x="520" y="8" on="0"/>
        <pt x="455" y="-13" on="0"/>
        <pt x="417" y="-13" on="1"/>
        <pt x="344" y="-13" on="0"/>
        <pt x="284" y="16" on="1"/>
        <pt x="285" y="34" on="0"/>
        <pt x="304" y="78" on="0"/>
        <pt x="318" y="90" on="1"/>
        <pt x="339" y="78" on="0"/>
        <pt x="381" y="67" on="0"/>
        <pt x="401" y="67" on="1"/>
        <pt x="436" y="67" on="0"/>
        <pt x="484" y="100" on="0"/>
        <pt x="484" y="126" on="1"/>
        <pt x="483" y="140" on="0"/>
        <pt x="466" y="176" on="0"/>
        <pt x="444" y="195" on="1"/>
        <pt x="403" y="230" on="1"/>
        <pt x="369" y="259" on="0"/>
        <pt x="337" y="315" on="0"/>
        <pt x="337" y="341" on="1"/>
        <pt x="337" y="377" on="0"/>
        <pt x="390" y="442" on="0"/>
        <pt x="435" y="460" on="1"/>
        <pt x="439" y="480" on="0"/>
        <pt x="439" y="495" on="1"/>
        <pt x="439" y="549" on="0"/>
        <pt x="380" y="619" on="0"/>
        <pt x="323" y="619" on="1"/>
        <pt x="210" y="619" on="0"/>
        <pt x="210" y="495" on="1"/>
        <pt x="210" y="0" on="1"/>
        <pt x="199" y="-2" on="0"/>
        <pt x="171" y="-4" on="0"/>
        <pt x="157" y="-4" on="1"/>
        <pt x="142" y="-4" on="0"/>
        <pt x="115" y="-2" on="0"/>
      </contour>
    </TTGlyph>
    <TTGlyph name="germandbls.cap_smcp" xMin="10" yMin="-11" xMax="543" yMax="559">
      <contour>
        <pt x="395" y="371" on="1"/>
        <pt x="396" y="387" on="1"/>
        <pt x="396" y="429" on="0"/>
        <pt x="345" y="482" on="0"/>
        <pt x="297" y="482" on="1"/>
        <pt x="197" y="482" on="0"/>
        <pt x="197" y="381" on="1"/>
        <pt x="197" y="0" on="1"/>
        <pt x="185" y="-2" on="0"/>
        <pt x="157" y="-4" on="0"/>
        <pt x="143" y="-4" on="1"/>
        <pt x="129" y="-4" on="0"/>
        <pt x="102" y="-2" on="0"/>
        <pt x="92" y="0" on="1"/>
        <pt x="92" y="264" on="1"/>
        <pt x="15" y="263" on="1"/>
        <pt x="12" y="273" on="0"/>
        <pt x="10" y="293" on="0"/>
        <pt x="10" y="304" on="1"/>
        <pt x="10" y="315" on="0"/>
        <pt x="12" y="334" on="0"/>
        <pt x="15" y="345" on="1"/>
        <pt x="92" y="344" on="1"/>
        <pt x="92" y="393" on="1"/>
        <pt x="92" y="475" on="0"/>
        <pt x="203" y="559" on="0"/>
        <pt x="296" y="559" on="1"/>
        <pt x="341" y="559" on="0"/>
        <pt x="416" y="534" on="0"/>
        <pt x="470" y="490" on="0"/>
        <pt x="500" y="429" on="0"/>
        <pt x="500" y="392" on="1"/>
        <pt x="500" y="362" on="0"/>
        <pt x="492" y="333" on="1"/>
        <pt x="461" y="325" on="0"/>
        <pt x="423" y="296" on="0"/>
        <pt x="423" y="278" on="1"/>
        <pt x="423" y="256" on="0"/>
        <pt x="452" y="233" on="1"/>
        <pt x="483" y="209" on="1"/>
        <pt x="513" y="186" on="0"/>
        <pt x="543" y="132" on="0"/>
        <pt x="543" y="106" on="1"/>
        <pt x="543" y="79" on="0"/>
        <pt x="519" y="36" on="0"/>
        <pt x="477" y="6" on="0"/>
        <pt x="420" y="-11" on="0"/>
        <pt x="387" y="-11" on="1"/>
        <pt x="318" y="-11" on="0"/>
        <pt x="270" y="11" on="1"/>
        <pt x="271" y="28" on="0"/>
        <pt x="289" y="72" on="0"/>
        <pt x="301" y="84" on="1"/>
        <pt x="320" y="75" on="0"/>
        <pt x="355" y="67" on="0"/>
        <pt x="371" y="67" on="1"/>
        <pt x="399" y="67" on="0"/>
        <pt x="434" y="89" on="0"/>
        <pt x="434" y="106" on="1"/>
        <pt x="434" y="122" on="0"/>
        <pt x="419" y="142" on="0"/>
        <pt x="402" y="156" on="1"/>
        <pt x="368" y="183" on="1"/>
        <pt x="340" y="205" on="0"/>
        <pt x="312" y="246" on="0"/>
        <pt x="312" y="269" on="1"/>
        <pt x="312" y="302" on="0"/>
        <pt x="358" y="357" on="0"/>
      </contour>
    </TTGlyph>
    <TTGlyph name="germandbls.smcp" xMin="28" yMin="-13" xMax="959" yMax="558">
      <component glyphName="s.smcp" x="0" y="0" flags="0x4"/>
      <component glyphName="s.smcp" x="495" y="0" flags="0x4"/>
    </TTGlyph>
    <TTGlyph name="grave" xMin="64" yMin="538" xMax="280" yMax="739">
      <contour>
        <pt x="136" y="739" on="1"/>
        <pt x="280" y="580" on="1"/>
        <pt x="266" y="547" on="0"/>
        <pt x="235" y="538" on="1"/>
        <pt x="64" y="671" on="1"/>
        <pt x="72" y="693" on="0"/>
        <pt x="113" y="731" on="0"/>
      </contour>
    </TTGlyph>
    <TTGlyph name="grave.cap" xMin="64" yMin="728" xMax="313" yMax="902">
      <contour>
        <pt x="110" y="902" on="1"/>
        <pt x="313" y="782" on="1"/>
        <pt x="305" y="743" on="0"/>
        <pt x="282" y="728" on="1"/>
        <pt x="64" y="818" on="1"/>
        <pt x="67" y="842" on="0"/>
        <pt x="95" y="891" on="0"/>
      </contour>
    </TTGlyph>
    <TTGlyph name="greater" xMin="59" yMin="50" xMax="489" yMax="538">
      <contour>
        <pt x="476" y="252" on="1"/>
        <pt x="107" y="50" on="1"/>
        <pt x="64" y="76" on="0"/>
        <pt x="59" y="132" on="1"/>
        <pt x="296" y="256" on="1"/>
        <pt x="314" y="266" on="0"/>
        <pt x="370" y="290" on="1"/>
        <pt x="370" y="297" on="1"/>
        <pt x="314" y="321" on="0"/>
        <pt x="296" y="331" on="1"/>
        <pt x="59" y="456" on="1"/>
        <pt x="61" y="481" on="0"/>
        <pt x="89" y="526" on="0"/>
        <pt x="107" y="538" on="1"/>
        <pt x="476" y="335" on="1"/>
        <pt x="489" y="289" on="0"/>
      </contour>
    </TTGlyph>
    <TTGlyph name="guillemotleft" xMin="33" yMin="37" xMax="522" yMax="472">
      <contour>
        <pt x="517" y="418" on="1"/>
        <pt x="378" y="257" on="1"/>
        <pt x="522" y="91" on="1"/>
        <pt x="516" y="74" on="0"/>
        <pt x="481" y="42" on="0"/>
        <pt x="463" y="37" on="1"/>
        <pt x="266" y="222" on="1"/>
        <pt x="260" y="235" on="0"/>
        <pt x="260" y="274" on="0"/>
        <pt x="266" y="288" on="1"/>
        <pt x="459" y="472" on="1"/>
        <pt x="477" y="467" on="0"/>
        <pt x="511" y="435" on="0"/>
      </contour>
      <contour>
        <pt x="290" y="418" on="1"/>
        <pt x="151" y="257" on="1"/>
        <pt x="295" y="91" on="1"/>
        <pt x="289" y="74" on="0"/>
        <pt x="254" y="42" on="0"/>
        <pt x="236" y="37" on="1"/>
        <pt x="39" y="222" on="1"/>
        <pt x="33" y="236" on="0"/>
        <pt x="33" y="274" on="0"/>
        <pt x="39" y="288" on="1"/>
        <pt x="232" y="472" on="1"/>
        <pt x="250" y="467" on="0"/>
        <pt x="284" y="435" on="0"/>
      </contour>
    </TTGlyph>
    <TTGlyph name="guillemotright" xMin="36" yMin="37" xMax="533" yMax="472">
      <contour>
        <pt x="42" y="92" on="1"/>
        <pt x="180" y="253" on="1"/>
        <pt x="36" y="418" on="1"/>
        <pt x="42" y="434" on="0"/>
        <pt x="78" y="467" on="0"/>
        <pt x="95" y="472" on="1"/>
        <pt x="293" y="287" on="1"/>
        <pt x="306" y="254" on="0"/>
        <pt x="293" y="222" on="1"/>
        <pt x="99" y="37" on="1"/>
        <pt x="82" y="42" on="0"/>
        <pt x="48" y="75" on="0"/>
      </contour>
      <contour>
        <pt x="269" y="92" on="1"/>
        <pt x="407" y="253" on="1"/>
        <pt x="263" y="418" on="1"/>
        <pt x="269" y="434" on="0"/>
        <pt x="305" y="467" on="0"/>
        <pt x="322" y="472" on="1"/>
        <pt x="520" y="287" on="1"/>
        <pt x="533" y="254" on="0"/>
        <pt x="520" y="222" on="1"/>
        <pt x="326" y="37" on="1"/>
        <pt x="309" y="42" on="0"/>
        <pt x="275" y="75" on="0"/>
      </contour>
    </TTGlyph>
    <TTGlyph name="guilsinglleft" xMin="33" yMin="37" xMax="295" yMax="472">
      <contour>
        <pt x="290" y="418" on="1"/>
        <pt x="151" y="257" on="1"/>
        <pt x="295" y="91" on="1"/>
        <pt x="289" y="74" on="0"/>
        <pt x="254" y="42" on="0"/>
        <pt x="236" y="37" on="1"/>
        <pt x="39" y="222" on="1"/>
        <pt x="33" y="236" on="0"/>
        <pt x="33" y="274" on="0"/>
        <pt x="39" y="288" on="1"/>
        <pt x="232" y="472" on="1"/>
        <pt x="250" y="467" on="0"/>
        <pt x="284" y="435" on="0"/>
      </contour>
    </TTGlyph>
    <TTGlyph name="guilsinglright" xMin="36" yMin="37" xMax="306" yMax="472">
      <contour>
        <pt x="42" y="92" on="1"/>
        <pt x="180" y="253" on="1"/>
        <pt x="36" y="418" on="1"/>
        <pt x="42" y="434" on="0"/>
        <pt x="78" y="467" on="0"/>
        <pt x="95" y="472" on="1"/>
        <pt x="293" y="287" on="1"/>
        <pt x="306" y="254" on="0"/>
        <pt x="293" y="222" on="1"/>
        <pt x="99" y="37" on="1"/>
        <pt x="82" y="42" on="0"/>
        <pt x="48" y="75" on="0"/>
      </contour>
    </TTGlyph>
    <TTGlyph name="h" xMin="78" yMin="-7" xMax="486" yMax="735">
      <contour>
        <pt x="470" y="338" on="1"/>
        <pt x="470" y="106" on="1"/>
        <pt x="470" y="46" on="0"/>
        <pt x="486" y="15" on="1"/>
        <pt x="458" y="-7" on="0"/>
        <pt x="425" y="-7" on="1"/>
        <pt x="392" y="-7" on="0"/>
        <pt x="367" y="26" on="0"/>
        <pt x="367" y="59" on="1"/>
        <pt x="367" y="313" on="1"/>
        <pt x="367" y="365" on="0"/>
        <pt x="340" y="409" on="0"/>
        <pt x="307" y="409" on="1"/>
        <pt x="274" y="409" on="0"/>
        <pt x="205" y="375" on="0"/>
        <pt x="179" y="347" on="1"/>
        <pt x="179" y="0" on="1"/>
        <pt x="169" y="-2" on="0"/>
        <pt x="143" y="-4" on="0"/>
        <pt x="129" y="-4" on="1"/>
        <pt x="115" y="-4" on="0"/>
        <pt x="88" y="-2" on="0"/>
        <pt x="78" y="0" on="1"/>
        <pt x="78" y="729" on="1"/>
        <pt x="84" y="735" on="1"/>
        <pt x="124" y="735" on="1"/>
        <pt x="155" y="735" on="0"/>
        <pt x="179" y="705" on="0"/>
        <pt x="179" y="669" on="1"/>
        <pt x="179" y="436" on="1"/>
        <pt x="252" y="502" on="0"/>
        <pt x="337" y="502" on="1"/>
        <pt x="404" y="502" on="0"/>
        <pt x="470" y="413" on="0"/>
      </contour>
    </TTGlyph>
    <TTGlyph name="h.smcp" xMin="84" yMin="-4" xMax="531" yMax="550">
      <contour>
        <pt x="427" y="326" on="1"/>
        <pt x="426" y="385" on="1"/>
        <pt x="426" y="546" on="1"/>
        <pt x="447" y="550" on="0"/>
        <pt x="510" y="550" on="0"/>
        <pt x="531" y="546" on="1"/>
        <pt x="531" y="0" on="1"/>
        <pt x="508" y="-4" on="0"/>
        <pt x="447" y="-4" on="0"/>
        <pt x="426" y="0" on="1"/>
        <pt x="426" y="181" on="1"/>
        <pt x="427" y="241" on="1"/>
        <pt x="377" y="240" on="1"/>
        <pt x="238" y="240" on="1"/>
        <pt x="188" y="241" on="1"/>
        <pt x="189" y="181" on="1"/>
        <pt x="189" y="0" on="1"/>
        <pt x="168" y="-4" on="0"/>
        <pt x="105" y="-4" on="0"/>
        <pt x="84" y="0" on="1"/>
        <pt x="84" y="546" on="1"/>
        <pt x="105" y="550" on="0"/>
        <pt x="168" y="550" on="0"/>
        <pt x="189" y="546" on="1"/>
        <pt x="189" y="385" on="1"/>
        <pt x="188" y="326" on="1"/>
        <pt x="238" y="327" on="1"/>
        <pt x="377" y="327" on="1"/>
      </contour>
    </TTGlyph>
    <TTGlyph name="hbar" xMin="6" yMin="-7" xMax="489" yMax="735">
      <contour>
        <pt x="182" y="669" on="1"/>
        <pt x="182" y="637" on="1"/>
        <pt x="342" y="639" on="1"/>
        <pt x="344" y="630" on="0"/>
        <pt x="346" y="612" on="0"/>
        <pt x="346" y="603" on="1"/>
        <pt x="346" y="594" on="0"/>
        <pt x="344" y="576" on="0"/>
        <pt x="342" y="568" on="1"/>
        <pt x="182" y="570" on="1"/>
        <pt x="182" y="436" on="1"/>
        <pt x="255" y="502" on="0"/>
        <pt x="340" y="502" on="1"/>
        <pt x="407" y="502" on="0"/>
        <pt x="473" y="413" on="0"/>
        <pt x="473" y="338" on="1"/>
        <pt x="473" y="106" on="1"/>
        <pt x="473" y="46" on="0"/>
        <pt x="489" y="15" on="1"/>
        <pt x="463" y="-7" on="0"/>
        <pt x="428" y="-7" on="1"/>
        <pt x="395" y="-7" on="0"/>
        <pt x="370" y="26" on="0"/>
        <pt x="370" y="59" on="1"/>
        <pt x="370" y="313" on="1"/>
        <pt x="370" y="365" on="0"/>
        <pt x="343" y="409" on="0"/>
        <pt x="310" y="409" on="1"/>
        <pt x="277" y="409" on="0"/>
        <pt x="208" y="375" on="0"/>
        <pt x="182" y="347" on="1"/>
        <pt x="182" y="0" on="1"/>
        <pt x="172" y="-2" on="0"/>
        <pt x="146" y="-4" on="0"/>
        <pt x="132" y="-4" on="1"/>
        <pt x="118" y="-4" on="0"/>
        <pt x="91" y="-2" on="0"/>
        <pt x="81" y="0" on="1"/>
        <pt x="81" y="569" on="1"/>
        <pt x="11" y="568" on="1"/>
        <pt x="8" y="579" on="0"/>
        <pt x="6" y="595" on="0"/>
        <pt x="6" y="603" on="1"/>
        <pt x="6" y="611" on="0"/>
        <pt x="8" y="628" on="0"/>
        <pt x="11" y="639" on="1"/>
        <pt x="81" y="638" on="1"/>
        <pt x="81" y="729" on="1"/>
        <pt x="87" y="735" on="1"/>
        <pt x="127" y="735" on="1"/>
        <pt x="158" y="735" on="0"/>
        <pt x="182" y="705" on="0"/>
      </contour>
    </TTGlyph>
    <TTGlyph name="hbar.smcp" xMin="22" yMin="-4" xMax="601" yMax="550">
      <contour>
        <pt x="192" y="239" on="1"/>
        <pt x="193" y="180" on="1"/>
        <pt x="193" y="0" on="1"/>
        <pt x="172" y="-4" on="0"/>
        <pt x="109" y="-4" on="0"/>
        <pt x="88" y="0" on="1"/>
        <pt x="88" y="395" on="1"/>
        <pt x="26" y="395" on="1"/>
        <pt x="22" y="411" on="0"/>
        <pt x="22" y="451" on="0"/>
        <pt x="26" y="467" on="1"/>
        <pt x="88" y="467" on="1"/>
        <pt x="88" y="546" on="1"/>
        <pt x="109" y="550" on="0"/>
        <pt x="172" y="550" on="0"/>
        <pt x="193" y="546" on="1"/>
        <pt x="193" y="467" on="1"/>
        <pt x="430" y="467" on="1"/>
        <pt x="430" y="546" on="1"/>
        <pt x="451" y="550" on="0"/>
        <pt x="514" y="550" on="0"/>
        <pt x="535" y="546" on="1"/>
        <pt x="535" y="467" on="1"/>
        <pt x="597" y="467" on="1"/>
        <pt x="601" y="451" on="0"/>
        <pt x="601" y="411" on="0"/>
        <pt x="597" y="395" on="1"/>
        <pt x="535" y="395" on="1"/>
        <pt x="535" y="0" on="1"/>
        <pt x="512" y="-4" on="0"/>
        <pt x="451" y="-4" on="0"/>
        <pt x="430" y="0" on="1"/>
        <pt x="430" y="180" on="1"/>
        <pt x="431" y="239" on="1"/>
        <pt x="381" y="238" on="1"/>
        <pt x="242" y="238" on="1"/>
      </contour>
      <contour>
        <pt x="192" y="324" on="1"/>
        <pt x="242" y="325" on="1"/>
        <pt x="381" y="325" on="1"/>
        <pt x="431" y="324" on="1"/>
        <pt x="430" y="384" on="1"/>
        <pt x="430" y="395" on="1"/>
        <pt x="193" y="395" on="1"/>
        <pt x="193" y="384" on="1"/>
      </contour>
    </TTGlyph>
    <TTGlyph name="hyphen" xMin="46" yMin="222" xMax="304" yMax="311">
      <contour>
        <pt x="299" y="222" on="1"/>
        <pt x="51" y="222" on="1"/>
        <pt x="46" y="239" on="0"/>
        <pt x="46" y="294" on="0"/>
        <pt x="51" y="311" on="1"/>
        <pt x="299" y="311" on="1"/>
        <pt x="304" y="293" on="0"/>
        <pt x="304" y="239" on="0"/>
      </contour>
    </TTGlyph>
    <TTGlyph name="i" xMin="32" yMin="-4" xMax="195" yMax="688">
      <contour>
        <pt x="195" y="408" on="1"/>
        <pt x="195" y="0" on="1"/>
        <pt x="176" y="-4" on="0"/>
        <pt x="111" y="-4" on="0"/>
        <pt x="92" y="0" on="1"/>
        <pt x="92" y="366" on="1"/>
        <pt x="92" y="394" on="0"/>
        <pt x="72" y="418" on="0"/>
        <pt x="48" y="418" on="1"/>
        <pt x="37" y="418" on="1"/>
        <pt x="32" y="440" on="0"/>
        <pt x="32" y="470" on="0"/>
        <pt x="37" y="493" on="1"/>
        <pt x="70" y="497" on="0"/>
        <pt x="100" y="497" on="1"/>
        <pt x="114" y="497" on="1"/>
        <pt x="152" y="497" on="0"/>
        <pt x="195" y="449" on="0"/>
      </contour>
      <contour>
        <pt x="70" y="587" on="1"/>
        <pt x="61" y="605" on="0"/>
        <pt x="61" y="631" on="1"/>
        <pt x="61" y="672" on="0"/>
        <pt x="91" y="687" on="0"/>
        <pt x="126" y="688" on="1"/>
        <pt x="166" y="687" on="0"/>
        <pt x="188" y="669" on="0"/>
        <pt x="189" y="631" on="1"/>
        <pt x="188" y="595" on="0"/>
        <pt x="166" y="575" on="0"/>
        <pt x="126" y="574" on="1"/>
        <pt x="87" y="574" on="0"/>
      </contour>
    </TTGlyph>
    <TTGlyph name="i.smcp" xMin="87" yMin="-4" xMax="193" yMax="550">
      <contour>
        <pt x="87" y="0" on="1"/>
        <pt x="87" y="546" on="1"/>
        <pt x="108" y="550" on="0"/>
        <pt x="170" y="550" on="0"/>
        <pt x="193" y="546" on="1"/>
        <pt x="193" y="0" on="1"/>
        <pt x="170" y="-4" on="0"/>
        <pt x="108" y="-4" on="0"/>
      </contour>
    </TTGlyph>
    <TTGlyph name="iacute" xMin="32" yMin="-4" xMax="268" yMax="739">
      <component glyphName="dotlessi" x="0" y="0" flags="0x204"/>
      <component glyphName="acute" x="-72" y="0" flags="0x4"/>
    </TTGlyph>
    <TTGlyph name="iacute.smcp" xMin="67" yMin="-4" xMax="284" yMax="792">
      <component glyphName="i.smcp" x="0" y="0" flags="0x204"/>
      <component glyphName="acute" x="-56" y="53" flags="0x4"/>
    </TTGlyph>
</ttFont>
